<svg width="127" height="120" viewBox="0 0 127 120" fill="none" xmlns="http://www.w3.org/2000/svg">
<path d="M16.6654 50.9651C16.5932 50.2662 16.1715 49.8282 15.7032 49.3483C15.4902 49.1115 15.2501 48.9003 14.988 48.7193C14.6758 48.5236 14.3287 48.4094 14.0212 48.1951C13.9901 48.1739 13.9574 48.1552 13.9233 48.1392C13.8907 47.9062 13.8534 47.6732 13.8208 47.4403C13.8208 47.3867 13.8022 47.3308 13.7928 47.2772C14.4302 47.711 15.212 47.8783 15.9711 47.7431C16.4091 47.6593 16.5536 47.1164 16.3672 46.767C16.0235 46.1519 15.4602 45.6892 14.79 45.4716C14.1749 45.2387 13.5529 44.9312 12.9122 44.7494C13.5459 42.478 13.9932 40.1645 13.9373 37.8115C13.9355 37.7317 13.9179 37.653 13.8857 37.5799C13.8534 37.5068 13.8071 37.4408 13.7493 37.3857C13.6915 37.3305 13.6235 37.2872 13.549 37.2584C13.4745 37.2295 13.3951 37.2156 13.3153 37.2174C13.2354 37.2193 13.1567 37.2368 13.0836 37.2691C13.0106 37.3013 12.9445 37.3477 12.8894 37.4054C12.8342 37.4632 12.791 37.5312 12.7621 37.6057C12.7332 37.6802 12.7193 37.7596 12.7212 37.8395C12.7748 40.1692 12.2972 42.4989 11.6355 44.796H11.6052H11.5284C10.8923 44.7681 10.254 44.9824 9.64361 45.1432C9.05041 45.279 8.50574 45.5747 8.06872 45.9982C7.98491 46.0805 7.92471 46.1838 7.89438 46.2973C7.86406 46.4108 7.86473 46.5303 7.89632 46.6435C8.33896 47.8946 10.0886 47.2585 11.0438 46.7134C10.8877 47.1933 10.7269 47.6709 10.5662 48.1485C10.4414 48.1693 10.3251 48.225 10.2307 48.3092C8.83287 49.5067 6.99006 50.0146 5.39653 50.8906C4.69761 51.268 4.04995 51.699 3.33706 52.0321C2.73133 52.3164 2.11395 52.6495 1.76449 53.2483C1.41504 53.847 1.16809 54.681 1.50823 55.345C1.68432 55.6464 1.92992 55.9014 2.22454 56.0886C2.51916 56.2758 2.85427 56.3899 3.20193 56.4213C4.52521 56.5728 5.76462 55.6572 6.62895 54.7486C7.14423 54.2252 7.57003 53.6208 7.88933 52.9594C8.07571 52.5517 8.15259 52.1067 8.33897 51.7037C8.4948 51.4097 8.61075 51.0963 8.68376 50.7718C9.09845 50.5761 9.50382 50.3711 9.89755 50.1404C9.46422 51.4451 9.04953 52.7613 8.71638 54.0893C8.17123 54.3852 7.76819 54.935 7.24633 55.2705C6.72447 55.6059 6.17932 55.6688 5.64115 55.8948C4.67665 56.2909 3.64691 57.2228 4.34583 58.3271C5.01213 59.4011 6.33541 59.2799 7.30923 58.7208C7.56775 58.5709 7.80713 58.3902 8.02212 58.1826C7.94452 59.1616 7.95544 60.1457 8.05474 61.1227C7.9505 61.238 7.89099 61.3867 7.887 61.5421C7.8707 61.8543 7.54919 62.1688 7.37679 62.4134C7.15708 62.7285 6.98588 63.0749 6.86891 63.4408C6.65225 64.1118 6.48684 64.9854 6.63594 65.6866C6.86891 66.8166 7.92893 68.0793 9.17766 67.9954C10.7386 67.8906 11.1719 66.1037 10.9879 64.8363C10.8631 64.1725 10.6934 63.5179 10.48 62.877C10.2726 62.1594 10.0257 61.4792 9.5248 60.9061C9.44886 60.8175 9.34956 60.7521 9.23824 60.7173C9.17888 60.0107 9.16954 59.3007 9.21028 58.5926C9.29648 58.7697 9.38501 58.9468 9.48519 59.1168C9.95113 59.9089 10.692 61.0272 11.7171 61.0621C13.1778 61.1134 13.6554 59.1984 13.1149 58.129C12.7607 57.4545 12.2423 56.88 11.6076 56.4586C11.2465 56.2256 10.8411 56.0579 10.487 55.804C10.1888 55.5896 10.021 55.2961 9.74146 55.0887L9.72282 55.0771C9.72282 55.0468 9.73447 55.0165 9.74146 54.9862C9.83852 54.8445 9.87998 54.672 9.85795 54.5017C10.2959 52.745 10.8947 50.9721 11.5074 49.1596C11.7753 48.3698 12.0432 47.5731 12.3018 46.7716C12.3927 47.2096 12.5185 47.6476 12.5744 48.0856C12.6676 48.8171 12.5907 49.6069 12.7771 50.3221C13.0264 51.2773 13.6903 52.4562 14.6409 52.8499C14.895 52.9637 15.1765 53.0023 15.4519 52.961C15.7274 52.9197 15.9852 52.8003 16.1948 52.6169C16.6351 52.2069 16.7236 51.5313 16.6654 50.9651Z" fill="#E6C690"/>
<path d="M34.1966 15.2714C34.1519 15.205 34.0945 15.1482 34.0278 15.1041C33.961 15.06 33.8862 15.0295 33.8076 15.0143C33.7291 14.9992 33.6483 14.9997 33.5699 15.0158C33.4916 15.0319 33.4171 15.0634 33.3509 15.1083C32.0277 16.0029 30.6718 16.9185 29.3159 17.8504C28.8359 16.4712 27.3985 15.7793 26.0659 15.3273C24.2813 14.7239 22.3803 14.689 20.5561 14.2649C20.0669 14.1508 19.5124 13.9551 19.0092 14.1065C18.266 14.3395 18.2707 15.0873 18.5432 15.6791C19.3027 17.2843 20.8403 18.6052 22.4758 19.2459C23.4013 19.5868 24.3807 19.7581 25.367 19.7514C25.8259 19.7537 26.2844 19.7242 26.7392 19.6629C25.1666 20.7928 23.5987 21.967 22.0798 23.1994C21.7323 22.9142 21.3382 22.6912 20.9149 22.5401C20.393 22.3328 19.7896 22.2932 19.2981 22.0322C18.7459 21.741 18.3266 21.2378 17.856 20.8394C17.3245 20.3943 16.7642 19.985 16.1786 19.614C15.0445 18.8834 13.8422 18.2646 12.5885 17.7665C11.3351 17.2936 9.88832 16.6855 8.53941 16.9674C8.40085 17.0081 8.27889 17.0919 8.19131 17.2068C8.10372 17.3216 8.05509 17.4614 8.0525 17.6058C7.92204 18.7706 8.84227 19.9169 9.47596 20.8161C10.3454 22.0181 11.4129 23.0635 12.6327 23.9077C13.9071 24.8163 15.1954 25.5198 16.7866 25.599C17.5145 25.6171 18.2424 25.5648 18.9603 25.443C19.1513 25.415 19.3423 25.3824 19.531 25.3451C17.5086 27.105 15.6144 29.007 13.8628 31.0366C12.9472 30.2608 11.3001 30.4402 10.2308 30.6406C9.41772 30.7897 8.6792 31.1484 7.90107 31.3954C7.16022 31.6284 6.41471 31.8427 5.82995 32.3832C5.72652 32.487 5.66021 32.622 5.64125 32.7673C5.6223 32.9126 5.65177 33.0601 5.72511 33.1869C6.5079 34.2097 7.85914 34.1608 9.02866 34.0653C9.95524 34.0042 10.8758 33.8725 11.7824 33.6715C11.2605 34.386 10.7627 35.1191 10.289 35.8708C10.2593 35.8853 10.2305 35.9017 10.2028 35.9197C9.48062 36.4183 8.66754 36.7607 7.98261 37.3175C7.31257 37.8676 6.73658 38.523 6.27726 39.2582C5.82113 40.0575 5.42401 40.8891 5.0891 41.7464C4.80105 42.3278 4.5671 42.9346 4.39018 43.5589C4.25506 44.1669 4.50201 44.796 5.15899 44.9264C5.73909 45.0429 6.32385 44.7261 6.83173 44.5094C8.32741 43.8757 9.9489 43.0883 10.755 41.5809C11.2195 40.7474 11.5126 39.8293 11.617 38.8808C11.6283 38.4064 11.5822 37.9323 11.4795 37.469C11.4427 37.1691 11.3772 36.8734 11.2838 36.586C12.4916 34.6752 13.8561 32.8681 15.3632 31.1834C15.441 32.2906 15.695 33.3783 16.1157 34.4054C16.498 35.3744 17.0208 36.2818 17.6673 37.0986C18.2054 37.7509 19.0977 38.5593 19.9644 38.7061C20.1342 38.7493 20.3141 38.7249 20.4663 38.6379C20.6184 38.551 20.7308 38.4084 20.7798 38.2401C20.9731 37.3665 20.6936 36.5464 20.5188 35.6937C20.3363 34.781 20.0648 33.8883 19.7081 33.0285C19.4108 32.2656 19.0017 31.5511 18.4943 30.9085C18.2646 30.6114 17.9921 30.35 17.6859 30.1327C17.5531 30.0465 17.404 29.9836 17.2642 29.8997C17.1244 29.8158 16.9078 29.5969 16.9916 29.8368C16.9611 29.7466 16.9128 29.6634 16.8495 29.5922C16.8495 29.5922 16.8495 29.5759 16.8495 29.5666C18.4088 27.9669 20.052 26.4512 21.7722 25.0259C21.8805 25.0102 21.9824 24.9652 22.067 24.8958C22.1515 24.8264 22.2156 24.7353 22.2521 24.6322C22.5177 24.4132 22.7841 24.1966 23.0512 23.9822C22.8612 25.0339 22.7653 26.1005 22.7647 27.1693C22.8223 28.4123 23.2204 29.6155 23.9156 30.6476C24.0903 30.9225 24.5306 31.1135 24.8242 30.8805C26.2942 29.7506 27.07 27.6935 27.1329 25.8856C27.1998 24.9434 26.9612 24.0047 26.4526 23.2088C26.1591 22.7871 25.8306 22.624 25.4089 22.3654L25.2668 22.2722C26.6204 21.2518 27.9903 20.2686 29.3555 19.3158C29.149 20.4885 29.1775 21.6906 29.4393 22.8523C29.6583 23.8378 30.7556 25.9252 31.8716 24.5367C32.2262 24.0376 32.4563 23.4608 32.5425 22.8546C32.6823 22.1208 32.9083 21.3636 32.9153 20.6111C32.9352 19.851 32.7689 19.0975 32.4307 18.4165C32.2755 18.1192 32.0897 17.8388 31.8762 17.5801C32.6 17.0862 33.3191 16.5986 34.0336 16.1171C34.0999 16.0723 34.1567 16.0149 34.2009 15.9482C34.245 15.8814 34.2755 15.8066 34.2906 15.7281C34.3058 15.6495 34.3053 15.5687 34.2891 15.4904C34.273 15.412 34.2416 15.3376 34.1966 15.2714Z" fill="#FFF8EC"/>
<path d="M67.3998 9.5169C66.5191 8.71082 65.5686 7.84882 64.3292 7.79989L64.1195 7.72301C64.3968 7.63448 64.6717 7.53198 64.9442 7.44578C65.6987 7.21566 66.4046 6.84928 67.027 6.36479C67.9286 5.66587 69.6177 3.7089 68.3433 2.60229C67.2623 1.6704 65.2704 2.68615 64.3245 3.38973C63.6331 3.91062 63.0217 4.52991 62.5097 5.22788C62.2647 5.55614 62.0465 5.90362 61.8574 6.26694C61.7362 6.49991 61.5568 6.73288 61.4333 6.96585C58.838 6.42381 55.9795 6.32906 52.8576 6.68163C52.9462 6.63736 53.0324 6.59543 53.1139 6.55116C53.8944 6.1388 54.4745 5.4958 55.0546 4.84814C55.6347 4.20048 56.2404 3.51321 56.3126 2.62092C56.3565 1.90138 56.1361 1.19058 55.6929 0.622023C55.4685 0.332434 55.1518 0.128311 54.7954 0.0435529C54.439 -0.0412052 54.0643 -0.00149877 53.7336 0.156079C52.9741 0.503207 52.5222 1.24872 52.2915 2.01986C52.0003 2.99601 51.8256 3.98847 51.3713 4.90638C50.9845 5.67286 50.5652 6.53718 49.843 7.05205C49.7953 7.08678 49.7515 7.12662 49.7125 7.17087C48.5989 7.38986 47.4566 7.66089 46.2855 7.98394L45.3536 8.2472C45.7998 7.82458 46.2119 7.3673 46.586 6.87966C47.0706 6.22267 47.6274 5.31175 47.6973 4.48237C47.7532 3.82539 47.4643 3.05891 46.8073 2.81429C45.7473 2.42523 44.6593 3.54116 44.0629 4.28435C43.6027 4.87582 43.222 5.52515 42.9307 6.21568C42.6348 5.51677 42.0873 4.75728 41.2836 4.81785C40.4798 4.87842 40.2235 5.81497 40.2235 6.50457C40.2235 7.59721 40.7431 8.66189 41.2277 9.62873C40.5287 9.88655 39.8345 10.1584 39.1449 10.4441C39.2614 10.2298 39.3569 10.0178 39.4361 9.83141C39.7623 9.05795 40.0115 8.28215 39.902 7.43413C39.8042 6.6327 39.3942 5.9035 38.6137 5.59831C38.2628 5.44976 37.8748 5.41233 37.502 5.49106C37.1292 5.56978 36.7895 5.76089 36.5286 6.03863C35.4243 7.23843 35.6573 9.21869 36.0627 10.6352C36.1559 10.966 36.2234 11.3341 36.3306 11.6905C35.3536 12.1565 34.3891 12.6442 33.4371 13.1536C33.3042 13.2346 33.2075 13.3635 33.1668 13.5136C33.1261 13.6638 33.1445 13.8238 33.2182 13.9609C33.292 14.0979 33.4154 14.2014 33.5632 14.2501C33.7109 14.2989 33.8717 14.2892 34.0125 14.2229C34.7891 13.8051 35.5719 13.4052 36.3609 13.0231C36.5752 13.524 37.0388 13.9201 37.3766 14.3371C37.9754 15.0779 38.5415 15.8118 39.4874 16.1356C40.2585 16.4012 41.2579 16.4129 41.7216 15.6254C42.2178 14.7821 41.845 13.8944 41.2673 13.2118C40.7085 12.5501 39.9853 12.0471 39.1705 11.7534C40.0061 11.3993 40.8495 11.0654 41.7006 10.7517C41.7039 10.8227 41.7189 10.8928 41.7449 10.959C42.0571 11.8353 42.2041 12.7619 42.1782 13.6918C42.1665 14.421 42.1293 15.1968 42.5043 15.8514C43.0821 16.8602 44.5429 17.5242 45.533 16.6948C45.7729 16.4978 45.9642 16.2482 46.0923 15.9654C46.2204 15.6827 46.2817 15.3742 46.2715 15.064C46.6272 15.3855 46.9945 15.6961 47.3735 15.9959C47.9885 16.4781 48.6595 16.8835 49.4539 16.9534C50.9449 17.0838 52.1028 16.0028 52.0166 14.5072C51.9118 12.8554 50.5815 12.0912 49.2885 11.3457C48.4211 10.8114 47.4788 10.4094 46.4928 10.1529C46.0152 10.0434 45.5307 9.96887 45.0601 9.82908C44.9506 9.79647 44.848 9.76152 44.7432 9.72424C45.3652 9.53088 45.9919 9.34683 46.6186 9.17443C47.8425 8.83429 49.033 8.55473 50.1901 8.33573H50.253C50.9146 8.80168 51.6718 9.16511 52.2566 9.73356C52.5046 9.97092 52.7186 10.2414 52.8926 10.5373C52.9154 10.622 52.955 10.7012 53.0091 10.7703C53.0324 10.8215 53.0533 10.8705 53.072 10.9241C53.2281 11.362 53.1209 11.814 53.1908 12.266C53.4517 13.9853 55.0056 15.7233 56.711 16.096C57.5194 16.2731 58.2929 16.0052 58.5398 15.1502C58.7868 14.2952 58.4909 13.4798 57.9737 12.8204C57.3866 12.0703 56.6388 11.4832 55.9119 10.8775C55.3038 10.3719 54.6958 9.77084 53.9037 9.65668C53.5709 9.15561 53.1549 8.71516 52.6736 8.35437C52.5128 8.23322 52.3451 8.1214 52.175 8.01423C53.6145 7.8114 55.0663 7.70942 56.52 7.70904C56.5281 7.86028 56.5863 8.00453 56.6854 8.11907C57.5353 9.18623 58.4528 10.1978 59.4321 11.1477C59.6045 11.3038 59.7886 11.4552 59.9749 11.6136V11.6323C59.9516 12.4523 60.3757 13.2072 60.7624 13.9038C61.0483 14.4337 61.428 14.9073 61.883 15.3016C62.2534 15.6161 62.6774 15.9586 63.1667 16.0471C63.8236 16.1636 64.2686 15.679 64.2849 15.0453C64.3059 14.2695 63.805 13.5357 63.3787 12.9299C62.8918 12.231 62.2511 11.7651 61.5871 11.2572C60.8439 10.687 60.1481 10.0575 59.5067 9.37479C59.0221 8.85526 58.5748 8.31709 58.1088 7.77427C59.439 7.85671 60.7587 8.06261 62.0507 8.38931C62.0798 8.4252 62.107 8.46252 62.1323 8.50114C62.3419 8.79934 62.5073 9.13249 62.7054 9.43303C63.0849 10.0158 63.5339 10.5501 64.0426 11.0242C64.7765 11.7231 66.1906 12.5945 67.267 12.3032C68.5483 11.9305 68.1243 10.1785 67.3998 9.5169ZM62.3559 13.7593C62.4421 13.8875 62.526 14.0133 62.6075 14.1437C62.3281 13.8708 62.0923 13.5565 61.9086 13.2118L61.8853 13.1722C62.0587 13.3541 62.2161 13.5506 62.3559 13.7593Z" fill="#E6C690"/>
<path d="M100.228 13.4236C100.123 12.8388 100.011 12.317 99.6268 11.8464C99.5025 11.724 99.3352 11.6554 99.1608 11.6554C98.9865 11.6554 98.8191 11.724 98.6949 11.8464C98.0424 12.6341 97.6235 13.5889 97.4858 14.6024C97.3635 15.1561 97.3056 15.7221 97.3134 16.2892C97.3134 16.3497 97.3134 16.408 97.3297 16.4662C95.7804 14.9239 93.7885 13.5005 91.3236 12.1725C91.34 11.3035 91.4821 10.4369 91.4564 9.56558C91.415 8.70542 91.2226 7.85926 90.888 7.06578C90.5758 6.27834 90.1681 5.52817 89.8839 4.73606C89.6719 4.14664 89.5997 3.33823 89.1384 2.87229C89.0337 2.77027 88.8986 2.70508 88.7536 2.68659C88.6086 2.6681 88.4616 2.6973 88.3346 2.76978C87.8361 3.08895 87.6869 3.68769 87.5425 4.22818C87.3135 5.14204 87.2676 6.09217 87.4074 7.02385C87.6037 8.32934 87.9914 9.59872 88.5583 10.791C87.5472 10.3251 86.5213 9.8995 85.4807 9.51432C85.4004 9.43095 85.3024 9.36671 85.1939 9.32638C85.0854 9.28605 84.9693 9.27066 84.854 9.28135C84.4137 9.12293 83.971 8.97383 83.5261 8.82705C83.5424 8.37975 83.7241 7.96972 83.6705 7.50144C83.6046 7.02355 83.4729 6.55707 83.2791 6.11526C82.9163 5.25894 82.4096 4.471 81.7811 3.78554C81.2196 3.15651 80.5673 2.63465 79.9499 2.06387C79.5096 1.65617 78.9249 1.13198 78.2772 1.39291C76.8794 1.97534 78.0116 4.68481 78.403 5.59806C78.7511 6.36387 79.1924 7.08376 79.717 7.7414C79.1252 7.59929 78.5288 7.46882 77.9324 7.35001C77.7768 7.32529 77.6177 7.36193 77.4886 7.45221C77.3595 7.54248 77.2704 7.67935 77.2402 7.83398C77.21 7.9886 77.241 8.14891 77.3267 8.28114C77.4123 8.41336 77.546 8.50718 77.6994 8.54283C79.2717 8.85667 80.8269 9.25091 82.3589 9.72399C82.0804 9.89137 81.812 10.075 81.5551 10.2738C80.8306 10.8213 80.1573 11.4387 79.4863 12.0444C78.9854 12.4964 78.5148 12.9297 77.8369 13.0718C77.3709 13.172 76.6347 13.2442 76.3878 13.7241C76.3165 13.852 76.2883 13.9993 76.3072 14.1445C76.326 14.2896 76.3911 14.4248 76.4926 14.5302C76.8727 14.8394 77.3019 15.0827 77.7623 15.2501C78.2432 15.4805 78.7458 15.6623 79.2627 15.7929C80.3763 16.0096 81.4945 16.0562 82.5359 15.5599C83.4946 15.0897 84.2379 14.2715 84.614 13.2722C84.8051 12.748 84.9029 12.1935 85.08 11.6623C85.1732 11.3758 85.313 11.0892 85.4388 10.798C87.1151 11.4443 88.7532 12.1856 90.3452 13.0182C90.8111 13.2512 91.2398 13.4981 91.6638 13.7428C91.1298 13.8523 90.6077 14.0138 90.1052 14.225C89.3212 14.5417 88.5559 14.9026 87.8128 15.306C87.4656 15.4994 87.1371 15.73 86.7807 15.9094C86.4795 16.0236 86.2219 16.2299 86.0445 16.4988C85.3968 17.68 87.0253 18.2904 87.864 18.5187C89.4016 18.9427 90.86 19.369 92.4652 19.0802C93.7652 18.8472 95.5614 18.2927 96.032 16.8925C97.2382 17.9827 98.245 19.2748 99.0071 20.711C99.0581 20.8102 99.1357 20.8934 99.231 20.9514C99.3264 21.0093 99.436 21.0398 99.5476 21.0395C99.6449 21.0401 99.7409 21.0169 99.8271 20.9719C99.8982 20.9352 99.9613 20.8849 100.013 20.8238C100.064 20.7628 100.103 20.6921 100.128 20.616C100.152 20.5398 100.161 20.4596 100.154 20.38C100.147 20.3003 100.125 20.2228 100.088 20.1518C99.7624 19.523 99.3877 18.9209 98.9675 18.351C99.1573 18.2072 99.3205 18.0314 99.4497 17.8314C99.5615 17.6427 99.5988 17.4424 99.7246 17.263C99.9317 17.0119 100.102 16.7327 100.23 16.4336C100.332 16.1227 100.399 15.8016 100.431 15.4761C100.503 14.7842 100.354 14.1225 100.228 13.4236Z" fill="#FFF8EC"/>
<path d="M126.095 60.6215C126.05 59.3239 125.664 58.2732 124.55 57.5626C123.25 56.7048 121.839 56.0276 120.357 55.5497C119.64 55.3116 118.886 55.2058 118.132 55.2376C117.797 55.251 117.477 55.3756 117.221 55.5917C117.207 55.6037 117.193 55.6169 117.181 55.6313C116.948 53.3412 116.424 50.7808 115.215 48.4511C115.18 48.3766 115.131 48.31 115.07 48.2551C115.009 48.2002 114.938 48.1582 114.86 48.1317C114.782 48.1052 114.7 48.0947 114.618 48.1008C114.536 48.1069 114.456 48.1296 114.384 48.1673C114.311 48.2051 114.246 48.2572 114.194 48.3206C114.142 48.384 114.103 48.4572 114.08 48.536C114.057 48.6147 114.05 48.6973 114.06 48.7788C114.069 48.8604 114.095 48.9391 114.136 49.0102C114.508 49.7392 114.82 50.4973 115.068 51.277H115.017C112.74 51.8415 110.768 53.2594 109.507 55.2376C108.862 56.272 108.519 57.4182 108.137 58.5644C107.86 59.3915 107.371 60.2674 107.604 61.1667C107.635 61.278 107.694 61.3794 107.775 61.4611C107.857 61.5427 107.958 61.6018 108.07 61.6326C108.878 61.8353 109.892 60.9151 110.462 60.4515C111.378 59.706 112.268 58.9278 113.188 58.1823C114.055 57.4842 114.785 56.631 115.341 55.6662C115.538 55.3308 115.7 54.9755 115.823 54.6062C116.028 56.1257 116.126 57.6578 116.117 59.1911C116.117 60.1463 116.09 61.1007 116.037 62.0543C115.315 61.7771 114.57 61.9821 113.81 62.0986C112.927 62.2522 112.074 62.5422 111.28 62.9583C110.536 63.3575 109.864 63.8779 109.29 64.4982C108.741 65.0597 108.202 65.6631 107.956 66.4319C107.752 67.1533 107.693 67.9077 107.781 68.6521C107.832 69.2229 107.916 69.9032 108.407 70.2829C109.095 70.8001 109.77 70.0499 110.038 69.4372C110.369 68.6903 110.801 67.9925 111.322 67.3638C111.957 66.5935 112.665 65.8859 113.435 65.2507C113.85 64.9152 114.283 64.6007 114.728 64.3025C115.096 64.0532 115.464 63.741 115.914 63.7084C115.688 66.3112 115.268 68.8935 114.658 71.4338C113.871 71.0657 112.841 71.6668 112.116 72.0116C110.938 72.587 109.882 73.4304 108.855 74.2295C107.995 74.8981 107.17 75.5784 106.26 76.1748C105.477 76.6896 104.687 77.286 104.594 78.2855C104.559 78.6583 104.927 78.9262 105.258 78.9495C106.241 79.0124 107.224 78.5557 108.165 78.3088C109.193 78.0409 110.076 77.4398 110.98 76.911C111.839 76.3602 112.65 75.7366 113.402 75.0472C113.521 74.9447 113.635 74.8422 113.752 74.7373C113.353 76.014 112.908 77.2713 112.417 78.5091C112.297 78.5644 112.18 78.6267 112.067 78.6955C111.671 78.9285 111.266 79.1428 110.854 79.3432C109.994 79.7649 109.113 80.1376 108.275 80.6012C107.49 81.0523 106.744 81.5681 106.045 82.1435C105.318 82.7189 104.612 83.3084 103.837 83.8326C103.301 84.1867 102.483 84.4662 102.206 85.0906C101.898 85.7732 102.301 86.2368 102.874 86.4628C103.506 86.7121 104.24 86.5281 104.869 86.365C105.722 86.1753 106.54 85.8538 107.294 85.4121C108.124 84.8692 108.922 84.2772 109.682 83.6392C109.915 83.4458 110.148 83.2455 110.357 83.0381C109.638 84.436 108.856 85.8035 108.011 87.1408C107.954 87.2326 107.921 87.3383 107.918 87.4467C107.915 87.5552 107.941 87.6625 107.993 87.7576C108.046 87.8527 108.122 87.9321 108.216 87.9875C108.309 88.0429 108.415 88.0723 108.524 88.0727C108.627 88.0734 108.728 88.0479 108.818 87.9985C108.908 87.9492 108.984 87.8777 109.039 87.7908C110.014 86.2541 110.909 84.6677 111.72 83.0381C111.748 83.84 111.923 84.6298 112.238 85.3678C112.587 86.1483 113.132 87.4646 114.041 87.7162C114.712 87.9072 115.147 87.3737 115.206 86.761C115.287 86.0015 115.439 85.256 115.536 84.4942C115.651 83.525 115.769 82.5629 115.606 81.589C115.555 81.2503 115.471 80.9172 115.357 80.5942C115.206 80.1866 114.938 79.9489 114.658 79.6321C114.339 79.271 114.057 78.8679 113.666 78.6186C114.243 77.1338 114.757 75.6203 115.206 74.078C115.654 72.5357 116.031 70.9865 116.336 69.4302C116.838 71.399 117.737 73.2445 118.977 74.8538C119.29 75.2545 119.714 75.6925 120.263 75.6972C121.023 75.6972 121.356 74.9726 121.347 74.3157C121.347 73.435 121.396 72.5474 121.209 71.6784C121.003 70.8392 120.72 70.0204 120.366 69.2322C120.035 68.4314 119.513 67.7241 118.845 67.1727C118.465 66.8396 118.071 66.5227 117.68 66.1966C117.489 66.0358 117.302 65.8658 117.104 65.712C117.065 65.6406 117.012 65.578 116.948 65.5279C117.206 63.4278 117.336 61.314 117.337 59.1981C117.337 58.8626 117.337 58.4992 117.337 58.1381C117.641 58.3612 117.964 58.5569 118.302 58.7228C119.276 59.2377 120.222 59.7759 121.219 60.2488C122.216 60.7217 122.943 61.6932 123.336 62.6857C123.604 63.3636 123.632 64.2792 124.399 64.5937C124.512 64.6251 124.631 64.6256 124.745 64.5953C124.858 64.565 124.962 64.5049 125.044 64.4213C125.51 63.9973 125.671 63.4009 125.797 62.8022C125.984 62.0901 126.084 61.3578 126.095 60.6215Z" fill="#FFF8EC"/>
<path d="M109.903 95.9285C109.443 95.5654 108.942 95.2581 108.41 95.0129C108.091 94.8762 107.756 94.7815 107.413 94.731C107.331 94.7147 107.25 94.6961 107.18 94.6751C107.299 94.547 107.413 94.4188 107.539 94.2884C107.66 94.218 107.756 94.1112 107.813 93.9832C107.956 93.8248 108.095 93.6663 108.235 93.5056C108.341 93.3839 108.394 93.225 108.383 93.064C108.372 92.903 108.297 92.7531 108.176 92.6471C108.054 92.5411 107.895 92.4879 107.734 92.499C107.573 92.5101 107.423 92.5848 107.317 92.7065L106.965 93.1002C106.786 93.1398 106.614 93.1911 106.427 93.2237C106.101 93.2598 105.771 93.2598 105.444 93.2237C104.799 93.2027 104.156 93.1701 103.515 93.1049C103.31 93.0839 103.105 93.0583 102.902 93.0303C102.871 92.9228 102.812 92.825 102.732 92.7461C101.593 91.5812 100.58 90.2743 98.8137 90.1345C98.1381 90.0786 97.2411 90.2836 97.0245 91.0245C96.8195 91.7234 97.3227 92.2732 97.8422 92.6553C99.035 93.5475 100.582 93.9669 102.036 94.2232C102.899 94.3699 103.77 94.4655 104.645 94.5097C104.967 94.526 105.29 94.5447 105.614 94.554C104.561 95.6489 103.456 96.7012 102.299 97.7107C102.236 97.6935 102.171 97.6848 102.106 97.6851C101.297 97.6851 100.489 97.7597 99.6827 97.7504C99.6125 97.6674 99.524 97.602 99.4241 97.5593C99.0979 97.4219 98.8417 97.0048 98.6134 96.7532C98.2802 96.3828 97.9144 96.0543 97.6022 95.6559C96.9336 94.8056 96.4141 93.7642 95.9249 92.8043C95.2259 91.4252 94.6621 89.4006 92.7122 89.5427C92.3356 89.562 91.9707 89.6797 91.6539 89.8841C91.337 90.0885 91.0794 90.3725 90.9066 90.7076C90.5036 91.5463 90.874 92.4246 91.2887 93.1818C91.6585 93.8995 92.1003 94.5779 92.6073 95.2063C92.5881 95.1902 92.5679 95.1755 92.5468 95.162C91.2351 94.1929 89.4389 93.3705 87.7708 93.7479C87.0346 93.9156 86.3147 94.4049 86.2239 95.2016C86.1447 95.8866 86.5547 96.5156 87.002 96.9955C88.2652 98.3132 89.9501 99.1466 91.764 99.3509C92.4609 99.416 93.1613 99.4347 93.8607 99.4068C92.9475 100.106 91.8851 101.364 92.8822 102.228C94.0844 103.269 95.6593 102.13 96.6354 101.387C97.2399 100.882 97.8756 100.415 98.5388 99.9892C98.9279 99.7562 99.3589 99.5 99.5336 99.0899C99.9157 99.0899 100.3 99.0899 100.682 99.0736C98.1422 101.117 95.4233 102.928 92.5584 104.483C92.4093 104.162 92.1833 104.115 91.8595 103.908C91.5357 103.7 91.3283 103.19 91.1606 102.859C90.8088 102.198 90.5572 101.506 90.252 100.823C89.6835 99.5606 88.3766 98.3025 86.8785 98.9804C85.7836 99.4767 86.0189 100.497 86.5128 101.417C85.1359 100.448 83.5424 99.5536 81.8091 99.712C81.1404 99.7702 80.4112 99.9752 80.0338 100.588C79.6284 101.264 79.8544 102.067 80.1759 102.727C81.0216 104.455 82.8015 105.434 84.5465 106.039C85.6124 106.408 86.7275 106.614 87.8547 106.652C87.9292 106.652 88.0038 106.652 88.0877 106.652C85.5544 107.739 82.9423 108.631 80.2738 109.322C80.2173 109.214 80.1312 109.124 80.0256 109.063C79.92 109.002 79.7992 108.972 79.6774 108.977C79.3093 108.761 78.8853 108.598 78.5288 108.4C77.9044 108.05 77.1892 107.768 76.6068 107.356C75.4885 106.566 74.5869 105.539 73.6108 104.597C73.1839 104.177 72.6783 103.846 72.123 103.622C71.5677 103.397 70.9736 103.285 70.3748 103.29C69.2332 103.328 68.0008 104.136 68.1382 105.417C68.2757 106.699 69.5803 107.747 70.5868 108.36C71.9246 109.167 73.3759 109.768 74.8921 110.144C75.1484 110.207 75.407 110.259 75.6679 110.303C74.517 110.497 73.3646 110.652 72.2106 110.769C72.1987 110.721 72.1839 110.675 72.1663 110.629C71.8658 109.93 70.9246 109.599 70.2769 109.31C69.4415 108.925 68.5495 108.676 67.635 108.574C66.0182 108.404 64.1171 108.74 62.9756 109.995C62.1043 110.955 62.4467 112.05 63.5906 112.537C64.5325 112.905 65.5386 113.08 66.5494 113.052C67.7648 113.003 68.9712 112.821 70.1465 112.507C70.6026 112.428 71.0436 112.279 71.4534 112.064C72.6975 111.964 73.9439 111.815 75.181 111.624C74.9213 111.788 74.6786 111.978 74.4565 112.19C74.138 112.542 73.8496 112.92 73.5945 113.32C72.7814 114.454 71.7074 116.63 73.2869 117.676C74.6848 118.608 76.4158 116.978 77.1217 115.897C77.5543 115.204 77.8655 114.443 78.0419 113.646C78.1584 113.154 78.2749 112.661 78.3471 112.157C78.3634 112.02 78.2889 111.342 78.3471 111.274C78.4274 111.198 78.4875 111.103 78.5218 110.997L79.0809 110.874C78.8643 111.948 78.9202 113.287 79.5469 114.201C80.3087 115.295 81.7065 114.899 82.4893 114.033C83.2279 113.222 83.2465 112.15 82.9949 111.144C82.8992 110.726 82.7244 110.331 82.48 109.979C83.3498 109.721 84.2126 109.441 85.0683 109.138C84.7503 109.798 84.5441 110.507 84.458 111.235C84.3601 112.057 84.5861 113.182 85.4062 113.578C86.4778 114.091 87.5192 112.88 87.7755 111.948C87.9216 111.376 87.9112 110.776 87.7452 110.21C87.5658 109.581 87.2 109.001 87.1604 108.346C88.0271 107.998 88.8852 107.631 89.7348 107.246C89.5741 107.567 89.437 107.9 89.3247 108.241C88.9427 109.38 88.5862 111.198 89.5577 112.148C90.874 113.453 92.393 111.864 92.7704 110.559C93.0034 109.748 92.8962 108.991 92.796 108.171C92.7424 107.726 92.6656 107.286 92.577 106.848C92.5111 106.568 92.5024 106.278 92.5514 105.995C92.5811 105.945 92.6024 105.89 92.6143 105.832C93.6534 105.282 94.673 104.699 95.6732 104.083C95.4546 104.429 95.2682 104.795 95.1164 105.175C94.6505 106.356 94.8485 108.472 96.0973 109.136C97.5883 109.937 98.8743 107.773 99.254 106.657C99.4985 105.941 99.6221 105.19 99.6198 104.434C99.6126 103.993 99.5524 103.554 99.4404 103.127C99.3565 102.794 99.1795 102.428 99.1259 102.091C99.2273 101.973 99.2798 101.822 99.2727 101.667C100.497 100.778 101.678 99.8463 102.816 98.871C102.659 99.1792 102.518 99.4957 102.394 99.8192C101.791 101.422 102.08 103.516 103.958 104.066C104.321 104.161 104.703 104.155 105.064 104.049C105.424 103.943 105.749 103.741 106.003 103.465C106.611 102.85 106.702 102.067 106.821 101.24C106.97 100.28 106.907 99.2988 106.637 98.3654C106.523 97.9787 106.367 97.6106 106.25 97.2262C106.197 97.0491 106.145 96.8721 106.082 96.6997L106.169 96.7859C106.59 97.1866 106.944 97.6548 107.394 98.0299C108.179 98.6822 109.782 99.7982 110.728 98.8593C111.674 97.9204 110.679 96.5412 109.903 95.9285Z" fill="#E6C690"/>
<path d="M63.6814 114.492C62.8381 113.364 61.5288 112.702 60.1869 112.372C59.7927 112.279 59.3937 112.208 58.9917 112.16C58.5258 112.104 58.0598 111.964 57.5939 111.955C57.2847 111.952 56.9777 112.006 56.6876 112.113C56.5339 112.167 56.3801 112.222 56.2217 112.271C55.9771 112.346 55.9654 112.271 56.1448 112.39C56.0612 112.321 55.9583 112.279 55.85 112.269C55.7417 112.26 55.6331 112.285 55.5391 112.339C55.4289 112.242 55.2872 112.189 55.1407 112.19C55.1267 112.189 55.1127 112.189 55.0987 112.19C53.6237 112.184 52.155 111.996 50.7259 111.631C51.3397 111.665 51.9552 111.613 52.5547 111.477C53.372 111.277 54.1604 110.973 54.9007 110.573C55.3924 110.26 55.8234 109.861 56.1727 109.394C56.7342 108.721 57.955 107.125 56.4546 106.689C55.9375 106.538 55.3387 106.638 54.8238 106.708C53.9516 106.848 53.1104 107.139 52.338 107.568C51.4642 108.005 50.6349 108.527 49.8615 109.124C49.4179 109.451 49.0011 109.814 48.6151 110.207C48.5017 110.26 48.4036 110.34 48.3302 110.442C48.2568 110.543 48.2105 110.661 48.1958 110.785L48.1725 110.827C46.5 110.185 44.8799 109.415 43.3267 108.523C43.5723 108.388 43.8061 108.232 44.0256 108.057C44.1334 108.125 44.2591 108.16 44.3867 108.157C45.0856 108.157 45.8008 108.069 46.4089 107.691C47.0432 107.264 47.5567 106.681 47.8999 105.997C48.2771 105.268 48.4992 104.469 48.5522 103.649C48.6384 102.703 48.7153 101.785 48.4847 100.853C48.445 100.714 48.3614 100.592 48.2464 100.504C48.1313 100.416 47.991 100.368 47.8463 100.367C47.1311 100.397 46.7001 101.021 46.3856 101.594C45.9569 102.375 45.6191 103.211 45.2627 104.027C44.9062 104.842 44.5637 105.657 43.9743 106.328C43.5433 106.818 42.8817 107.421 42.22 107.521C42.0938 107.537 41.9762 107.594 41.8846 107.682C40.4448 106.801 39.012 105.851 37.6282 104.93C36.3957 104.11 35.1447 103.279 33.8633 102.482C34.0951 102.603 34.3339 102.709 34.5786 102.801C35.2493 103.002 35.9326 103.157 36.624 103.267C38.9118 103.63 41.4745 102.121 42.1478 99.8959C42.1805 99.783 42.1819 99.6634 42.1519 99.5498C42.122 99.4361 42.0618 99.3327 41.9778 99.2506C41.3511 98.7404 40.4238 98.6588 39.648 98.6705C38.5933 98.6942 37.5408 98.779 36.4959 98.9244C35.5035 99.0852 34.5358 99.3726 33.6164 99.7794C33.1629 99.9412 32.7221 100.137 32.2978 100.364C32.1075 100.477 31.9288 100.608 31.7642 100.756C31.6781 100.83 31.5313 101.019 31.4381 101.04C30.9465 100.765 30.448 100.499 29.9424 100.248L29.6675 100.11C28.0949 99.3251 26.4688 98.5121 25.8887 97.0467C25.8294 96.8965 25.7128 96.7761 25.5647 96.7119C25.4166 96.6476 25.2491 96.6449 25.0989 96.7042C24.9488 96.7635 24.8283 96.88 24.7641 97.0282C24.6999 97.1763 24.6971 97.3438 24.7564 97.494C25.2573 98.7567 26.2731 99.6047 27.396 100.29C27.0419 100.673 26.7594 101.116 26.562 101.599C26.1247 102.59 25.8872 103.657 25.8631 104.739C25.8782 105.873 26.105 106.993 26.5317 108.043C26.8113 108.798 27.0745 109.725 27.7385 110.231C27.8901 110.319 28.0706 110.345 28.2407 110.301C28.4109 110.257 28.5569 110.148 28.6471 109.998C29.0478 109.089 29.53 108.19 29.7653 107.218C29.863 106.719 29.9284 106.214 29.961 105.706C30.0509 105.212 30.1015 104.711 30.1125 104.208C30.0752 103.346 29.996 102.344 29.6465 101.489C32.0555 102.724 34.3642 104.241 36.6008 105.73C36.5224 105.806 36.4627 105.899 36.426 106.002C36.0672 107.006 36.1931 108.131 36.256 109.178C36.3382 110.27 36.6004 111.341 37.0317 112.348C37.4347 113.302 37.9946 114.182 38.6882 114.951C39.3195 115.649 40.1606 116.563 41.0878 116.845C41.229 116.881 41.3783 116.871 41.5135 116.816C41.6486 116.761 41.7624 116.664 41.838 116.539C42.3389 115.68 41.5701 114.825 41.3977 113.977C41.1903 112.945 41.0855 111.903 40.8012 110.885C40.5295 109.875 40.1178 108.907 39.5781 108.01C39.4523 107.808 39.3195 107.61 39.1867 107.414C39.9369 107.901 40.6987 108.383 41.4629 108.847C42.9315 109.748 44.4541 110.558 46.0222 111.272C46.0222 111.34 46.0222 111.405 46.0222 111.472C46.0176 111.517 46.0176 111.563 46.0222 111.607C46.0944 112.98 46.4345 114.242 47.3524 115.335C48.3193 116.5 49.7311 117.362 51.2594 117.432C51.8814 117.457 52.0701 116.71 51.7253 116.297C51.3805 115.885 51.3735 115.093 51.0893 114.575C50.7433 114.01 50.3216 113.494 49.8359 113.043C49.6612 112.865 49.4888 112.686 49.3117 112.509C51.1629 113.088 53.0893 113.392 55.0289 113.411C55.0642 113.482 55.1115 113.546 55.1686 113.602C56.2869 114.699 57.4984 115.757 58.9591 116.386C60.3253 116.963 61.8294 117.133 63.2901 116.875C63.7909 116.786 64.3151 116.679 64.4549 116.113C64.6506 115.447 64.0309 114.962 63.6814 114.492Z" fill="#FFF8EC"/>
<path d="M31.2144 89.4705C31.1012 89.0325 30.9247 88.6134 30.6902 88.2264C30.5062 88.0217 30.3118 87.8265 30.1078 87.6417C30.2291 87.3383 30.3007 87.0173 30.3198 86.6912C30.4415 85.8869 30.3002 85.0648 29.9168 84.3475C29.2412 83.1104 27.8759 81.9176 26.4781 81.5961C26.1285 81.5194 25.7714 81.4819 25.4134 81.4842C25.117 81.4601 24.8186 81.4853 24.5305 81.5588V81.5471C24.4917 81.4092 24.4353 81.2769 24.3627 81.1534C24.1945 80.872 23.9682 80.6297 23.6988 80.4428C22.5339 79.5482 20.8775 79.4201 19.461 79.6111C18.0445 79.8022 16.4324 80.8505 16.3881 82.4068H16.3625C15.97 82.252 15.5519 82.173 15.13 82.1738C14.2913 82.1948 13.5854 82.6398 12.9634 83.1663C12.6427 83.4224 12.3877 83.7513 12.2196 84.1257C12.0514 84.5 11.975 84.9091 11.9966 85.3189C12.0096 85.8494 12.13 86.3717 12.3507 86.8542C11.994 87.1656 11.6721 87.5148 11.3908 87.8956C10.9398 88.4969 10.6553 89.2064 10.5661 89.9528C10.3844 91.3506 10.5917 93.0257 11.5399 94.13C11.9738 94.6361 12.5626 94.985 13.215 95.1224C13.2802 95.1364 13.3711 95.1574 13.462 95.1713C13.4154 95.3601 13.3711 95.586 13.3571 95.6373C13.0566 96.9606 13.2919 98.7125 14.1679 99.7842C14.4069 100.093 14.7176 100.34 15.0732 100.502C15.4287 100.665 15.8184 100.738 16.2087 100.716C16.6868 100.68 17.1573 100.576 17.6065 100.409C17.9121 100.273 18.2053 100.111 18.4825 99.924C18.9009 100.32 19.388 100.635 19.9199 100.856C20.7156 101.134 21.5707 101.198 22.3988 101.04C23.2118 100.879 23.9084 100.266 24.4815 99.698C25.0197 99.1645 25.5579 98.5704 25.714 97.8039C25.714 97.8039 25.7303 97.7177 25.7443 97.6222L25.8421 97.5966C26.308 97.5011 26.7623 97.3403 27.2399 97.2401C28.0157 97.0724 28.5562 96.6624 29.1992 96.2151C29.8646 95.7775 30.4403 95.2169 30.8953 94.5633C31.3117 93.8555 31.5432 93.0543 31.5686 92.2336C31.6107 91.299 31.4909 90.3642 31.2144 89.4705Z" fill="#E6C690"/>
<path d="M23.8595 61.4159C23.71 60.9079 23.3888 60.4675 22.9507 60.1701C22.5126 59.8727 21.9849 59.7366 21.4576 59.7851C21.0103 58.8928 19.9153 58.1543 19.044 58.3267C18.2542 58.4851 17.6764 59.3471 17.5157 60.0949C17.4259 60.4713 17.4747 60.8675 17.6531 61.2109C16.663 61.6046 15.8476 62.4363 16.0689 63.5592C16.211 64.2768 16.84 64.8103 17.5087 65.0433C17.7662 65.132 18.0418 65.1548 18.3104 65.1096C18.579 65.0645 18.832 64.9527 19.0463 64.7847C19.5122 65.5325 20.6235 65.7934 21.4762 65.4393C21.8216 65.3032 22.1192 65.0685 22.3322 64.7644C22.5451 64.4604 22.6639 64.1004 22.6737 63.7293C23.1171 63.5516 23.4814 63.2196 23.6993 62.7944C23.9173 62.3693 23.9742 61.8797 23.8595 61.4159Z" fill="#E6C690"/>
<path d="M40.2607 94.3167C40.3245 94.235 40.3806 94.1477 40.4285 94.0558C40.5379 93.8238 40.6253 93.582 40.6894 93.3336C40.787 92.9431 40.8107 92.5377 40.7593 92.1384C40.7266 91.7305 40.6067 91.3342 40.4078 90.9765C40.2088 90.6188 39.9354 90.308 39.6061 90.065C39.2685 89.8308 38.8835 89.6739 38.4784 89.6055C38.0733 89.537 37.6581 89.5587 37.2624 89.6689C36.8129 89.8245 36.4219 90.114 36.1418 90.4983L36.1022 90.4634C35.8638 90.2722 35.5964 90.1204 35.3101 90.0137C34.7324 89.7801 34.0983 89.7233 33.4882 89.8507C33.2219 89.9076 32.9722 90.025 32.7585 90.1939C32.5447 90.3627 32.3728 90.5785 32.2558 90.8245C31.9413 91.5444 32.2791 92.185 32.5424 92.856C32.5914 92.9851 32.6783 93.0963 32.7916 93.1752C32.4628 93.2148 32.1507 93.3422 31.888 93.5438C31.6253 93.7455 31.4216 94.014 31.2983 94.3214C31.149 94.7149 31.0801 95.1343 31.0957 95.5549C31.1113 95.9754 31.2111 96.3886 31.3891 96.7699C31.7295 97.5636 32.325 98.2209 33.0812 98.6379C33.8375 99.0548 34.7112 99.2075 35.564 99.0717C36.0308 98.9994 36.4802 98.8414 36.8896 98.6058C37.0708 98.4998 37.2396 98.374 37.3928 98.2307L37.4208 98.2004C38.0265 98.5266 39.1098 98.2353 39.669 98.0117C40.0433 97.8357 40.3656 97.5657 40.6045 97.2281C40.8434 96.8904 40.9906 96.4966 41.0319 96.085C41.1064 95.3651 40.7313 94.806 40.2607 94.3167Z" fill="#E6C690"/>
<path d="M21.2642 71.6016C21.4523 70.7847 21.3839 69.9298 21.0685 69.1531C20.7633 68.444 20.2684 67.8329 19.6381 67.3872C19.3206 67.1483 18.9687 66.959 18.5944 66.8257C18.4316 66.7705 18.2639 66.7315 18.0935 66.7092C17.9919 66.7011 17.8899 66.7011 17.7883 66.7092C17.2874 65.4232 15.8057 64.8012 14.4125 65.0132C13.5251 65.1352 12.6867 65.4932 11.9849 66.0499C11.6127 66.3528 11.3366 66.7576 11.1905 67.2148C8.86079 67.3266 6.90149 69.3837 6.86887 71.7647C6.86887 71.7997 6.86887 71.8323 6.86887 71.8626C6.76418 71.9947 6.67941 72.1415 6.61726 72.2982C6.43555 72.7222 6.33304 73.1859 6.18161 73.6215C5.86709 74.5324 5.63878 75.5063 5.99989 76.4405C6.1714 76.8867 6.43312 77.2928 6.76869 77.6333C6.44593 77.65 6.12945 77.7291 5.83681 77.8663C5.51932 78.0031 5.23491 78.2065 5.00277 78.4627C4.89459 78.5938 4.81521 78.7462 4.7698 78.91C4.67384 78.8771 4.57466 78.8544 4.47392 78.8424C4.14631 78.837 3.81948 78.8762 3.50243 78.9589C2.88747 79.1046 2.31532 79.3927 1.83202 79.7999C1.37948 80.1713 1.08745 80.7028 1.01661 81.284C0.994234 81.5446 1.02922 81.8071 1.11912 82.0528C0.868189 82.2006 0.655832 82.4058 0.499415 82.6515C0.0786862 83.2831 -0.0849632 84.0516 0.0419094 84.7998C0.168782 85.5481 0.576597 86.2196 1.18202 86.6773C1.78775 87.1269 2.4657 87.1269 3.15297 87.036C3.30424 87.5793 3.60253 88.0703 4.01497 88.4548C4.57559 88.9393 5.27914 89.2272 6.01852 89.2749C6.64988 89.3332 7.45829 89.3891 7.97549 88.9511C8.28305 88.6718 8.48262 88.2933 8.53929 87.8817C8.81091 87.9051 9.08453 87.8807 9.3477 87.8095C9.82605 87.675 10.2622 87.4209 10.6151 87.071C11.2895 86.3932 11.7477 85.5305 11.9314 84.5922C12.1413 83.7692 12.09 82.9012 11.7846 82.1087C11.6134 81.7063 11.3394 81.3561 10.9902 81.0929C10.8014 80.9435 10.5898 80.8255 10.3635 80.7435C10.3152 80.7311 10.2662 80.7217 10.2167 80.7155C10.201 80.528 10.1714 80.3419 10.1282 80.1587C10.0448 79.7972 9.88599 79.4575 9.66221 79.1616C9.52888 78.9912 9.3841 78.8301 9.22888 78.6793C9.3886 78.6651 9.54548 78.6282 9.69483 78.5698L9.77404 78.5326C9.83109 78.7172 9.90926 78.8947 10.007 79.0614C10.2578 79.4503 10.5804 79.7879 10.9575 80.0562C11.6228 80.4993 12.4065 80.7308 13.2057 80.7202C13.9677 80.7385 14.7142 80.5033 15.3281 80.0515C15.829 79.6462 16.0037 79.1196 16.1202 78.5442C16.2149 78.5851 16.3131 78.6171 16.4137 78.6397C16.8008 78.7156 17.2006 78.6965 17.5786 78.5838C18.3491 78.3491 19.0253 77.876 19.5099 77.2326C20.0202 76.5803 20.4884 75.9652 20.768 75.1754C21.001 74.4975 21.1897 73.5703 20.7191 72.9389C20.7564 72.8876 20.7913 72.8317 20.8216 72.7851C21.0348 72.4184 21.1845 72.0183 21.2642 71.6016Z" fill="#E6C690"/>
<path d="M96.6029 22.6567C96.5424 22.5246 96.464 22.4016 96.3699 22.2909C96.5842 21.9338 96.6786 21.5175 96.6392 21.1029C96.5998 20.6882 96.4287 20.2971 96.1509 19.9868C95.823 19.641 95.4101 19.3873 94.9534 19.2511C94.4967 19.115 94.0123 19.1011 93.5486 19.211C93.0732 19.317 92.6344 19.5469 92.2766 19.8773C92.1222 20.0138 91.9984 20.1813 91.9131 20.3689C91.7757 20.3433 91.6359 20.327 91.4984 20.3106C90.9647 20.2199 90.416 20.2888 89.9212 20.5087C89.4907 20.7341 89.1672 21.1212 89.0219 21.585C88.9334 21.8594 88.9127 22.1512 88.9614 22.4354C88.3789 22.6404 87.8664 23.3556 87.7732 23.9147C87.7071 24.3374 87.7825 24.7701 87.9877 25.1455C88.1928 25.5209 88.5163 25.818 88.9078 25.9905C89.2936 26.1698 89.7089 26.2772 90.1332 26.3074L90.2614 26.3213C90.3634 26.4497 90.4756 26.5697 90.5968 26.6801C90.9358 26.9938 91.3597 27.2005 91.8156 27.2742C92.2715 27.348 92.739 27.2856 93.1595 27.0948C93.5603 26.9274 93.9286 26.6908 94.2475 26.3959C94.3241 26.3224 94.3964 26.2446 94.4642 26.1629C94.4782 26.1443 94.5597 26.0557 94.597 25.9998H94.6389C94.7989 25.994 94.9566 25.9601 95.1048 25.8997C95.5285 25.7412 95.9045 25.4769 96.1969 25.1319C96.4893 24.7868 96.6884 24.3726 96.7753 23.9287C96.847 23.497 96.7869 23.0537 96.6029 22.6567Z" fill="#E6C690"/>
<path d="M120.345 41.0078C120.594 40.6507 120.764 40.2449 120.844 39.8172C120.925 39.3895 120.913 38.9496 120.811 38.5266C120.578 37.8603 119.94 37.42 119.315 37.1591C119.007 37.0147 118.673 36.9326 118.333 36.9174C117.993 36.9022 117.653 36.9543 117.333 37.0705C117.212 37.1152 117.095 37.1722 116.986 37.2406C116.711 37.0636 116.418 36.916 116.112 36.8003C115.334 36.5394 114.609 36.8609 114.069 37.434C113.37 38.1725 113.281 38.8644 113.484 39.8219C113.504 39.9293 113.551 40.0297 113.621 40.1132C113.53 40.2367 113.452 40.3695 113.389 40.5092C113.176 40.9192 112.89 41.2571 112.799 41.7253C112.62 42.6572 113.093 43.7056 113.661 44.4325C114.188 45.1058 114.975 45.6299 115.86 45.5787C116.322 45.5468 116.761 45.3699 117.116 45.0731C117.259 44.9572 117.386 44.8215 117.491 44.6701C117.665 44.7991 117.863 44.8921 118.074 44.9437C118.284 44.9953 118.503 45.0044 118.717 44.9706C119.304 44.8611 119.746 44.3998 120.028 43.8966C120.349 43.3452 120.493 42.7084 120.441 42.0725C120.42 41.8614 120.37 41.6543 120.291 41.4574C120.27 41.391 120.24 41.3276 120.203 41.2687L120.173 41.2338L120.201 41.2035C120.254 41.1424 120.302 41.0769 120.345 41.0078Z" fill="#E6C690"/>
<path d="M115.939 30.8781C115.811 30.4197 115.563 30.0034 115.222 29.6713C115.063 29.5268 114.868 29.4197 114.721 29.2636C114.502 29.0306 114.528 28.8419 114.537 28.5321C114.595 26.7382 114.318 24.8278 113.116 23.4067C112.388 22.5832 111.402 22.0312 110.32 21.8411C110.01 21.7805 109.696 21.7689 109.388 21.7176C109.155 21.678 109.155 21.5895 109.001 21.3332C108.733 20.8569 108.356 20.45 107.902 20.1451C106.271 19.1223 103.392 19.1712 102.504 20.9814H102.49C102.284 20.906 102.07 20.8567 101.852 20.8346C101.457 20.7857 101.056 20.8206 100.675 20.9372C99.8536 21.1827 99.1134 21.6445 98.5317 22.2744C97.4647 23.4672 97.0058 25.1307 96.9662 26.7009C96.9607 26.8307 96.9948 26.959 97.064 27.069C96.8699 27.3119 96.6548 27.5372 96.421 27.7423C96.0324 28.1225 95.7012 28.5573 95.4379 29.0329C94.9527 29.9986 94.7817 31.0917 94.9486 32.1594C95.2259 34.0884 96.1135 36.1735 98.0658 36.8981C98.4894 37.045 98.9337 37.1237 99.3821 37.1311C99.6276 37.1583 99.8758 37.1481 100.118 37.1008C100.148 37.091 100.18 37.0871 100.211 37.0891C100.242 37.1404 100.27 37.194 100.293 37.2312C100.872 38.1065 101.617 38.8599 102.485 39.4491C103.303 40.0199 104.319 40.3135 105.281 40.5161C106.262 40.7445 107.278 40.7723 108.27 40.5977C109.193 40.395 110.039 39.9317 110.707 39.2628C111.336 38.664 112.067 37.7671 112.053 36.8398C112.144 36.8235 112.27 36.7979 112.258 36.7979C112.449 36.7623 112.636 36.7101 112.818 36.6418C113.301 36.4614 113.755 36.2093 114.164 35.894C114.968 35.3024 115.587 34.4944 115.949 33.5643C116.243 32.6926 116.24 31.7477 115.939 30.8781Z" fill="#E6C690"/>
<path d="M113.069 44.889C113.01 44.5236 112.87 44.1758 112.66 43.8708C112.451 43.5659 112.176 43.3113 111.855 43.1254C111.525 42.9584 111.161 42.8714 110.791 42.8715C110.702 42.8729 110.614 42.8814 110.528 42.8971C110.459 42.284 110.167 41.7177 109.707 41.3059C109.201 40.9044 108.566 40.7007 107.921 40.7328C107.024 40.7328 106.057 40.996 105.568 41.6647C105.412 41.62 105.251 41.598 105.09 41.5994C104.611 41.6117 104.138 41.7079 103.692 41.8837C102.88 42.1652 102.149 42.6411 101.563 43.2698C100.829 44.1202 100.775 45.2245 101.162 46.1913C100.775 46.5145 100.497 46.9488 100.365 47.4354C100.1 48.4861 100.74 49.616 101.362 50.4198C102.012 51.2608 102.928 51.9318 104.004 52.0669C104.375 52.119 104.752 52.091 105.111 51.9849C105.47 51.8788 105.802 51.6971 106.085 51.4518C106.454 51.8965 106.937 52.233 107.483 52.4257C108.414 52.7332 109.607 52.5491 110.49 52.1368C110.838 51.9682 111.142 51.7198 111.376 51.4117C111.61 51.1036 111.768 50.7446 111.837 50.3639C111.922 49.8638 111.91 49.3521 111.802 48.8565C111.762 48.6479 111.698 48.4446 111.611 48.2508C111.583 48.1964 111.553 48.1436 111.52 48.0924C111.989 47.8303 112.397 47.4723 112.717 47.0417C112.915 46.7239 113.048 46.37 113.109 46.0006C113.169 45.6311 113.156 45.2533 113.069 44.889Z" fill="#E6C690"/>
<path d="M23.594 88.0562C23.0092 87.2384 22.1566 86.8098 21.2107 86.5256C20.0645 86.1831 19.0557 86.437 18.2449 87.334C17.8357 87.7628 17.5423 88.2888 17.3923 88.8623C17.2959 89.4473 17.274 90.0423 17.327 90.6328C17.327 90.6864 17.327 90.7423 17.327 90.7983C17.327 90.8542 17.327 90.8658 17.327 90.9008C17.329 90.9557 17.336 91.0103 17.348 91.0638C17.3573 91.1368 17.369 91.2091 17.3829 91.2805C17.7277 93.0464 19.5776 95.0081 21.5159 94.407C23.1164 93.9154 24.1182 92.1122 24.2882 90.535C24.3694 89.6515 24.1223 88.769 23.594 88.0562Z" fill="#33332F"/>
<path d="M9.04724 82.6165C8.75337 81.9393 8.2483 81.3754 7.60747 81.009C7.32615 80.8549 7.00749 80.7823 6.68723 80.7993C6.44261 80.8226 6.05354 81.1301 5.88813 81.1138C5.41054 81.0672 5.20319 81.4679 5.2661 81.843C4.56718 82.4883 4.10124 83.4039 4.31091 84.3684C4.58582 85.5822 6.20731 86.3533 7.3745 85.9992C8.7467 85.5892 9.63433 83.9374 9.04724 82.6165Z" fill="#33332F"/>
<path d="M16.6934 72.3171C16.6725 71.6531 16.4605 70.8517 15.9712 70.3717C15.3981 69.8196 14.4103 69.999 13.6951 70.0013C13.5625 69.9961 13.432 70.0345 13.3234 70.1107C13.2148 70.1869 13.1342 70.2966 13.094 70.423C12.3788 70.656 11.7451 71.1033 11.4749 71.8092C10.925 73.2536 12.5395 74.6841 13.8442 74.9427C15.468 75.2665 16.7377 73.8803 16.6934 72.3171Z" fill="#33332F"/>
<path d="M21.4505 61.4373C20.9858 61.0719 20.4109 60.8748 19.8197 60.8782C19.6496 60.8803 19.4867 60.9469 19.3639 61.0646C19.2411 61.1822 19.1675 61.3421 19.1581 61.5119C18.9821 61.786 18.9036 62.1115 18.9353 62.4357C18.967 62.7599 19.1071 63.0639 19.3328 63.2988C19.9082 63.8952 20.8075 63.8044 21.3806 63.2615C21.9165 62.756 22.0516 61.9522 21.4505 61.4373ZM20.3928 62.3692C20.4371 62.3273 20.3672 62.3692 20.3602 62.3692L20.3276 62.3809H20.3113L20.281 62.3646C20.281 62.3646 20.281 62.3646 20.281 62.3529L20.2647 62.3133V62.2854C20.2647 62.3063 20.2833 62.3063 20.2787 62.2854L20.3392 62.3017L20.3742 62.3157C20.3742 62.3157 20.3951 62.3157 20.4208 62.3296H20.4394H20.4231H20.4464L20.4138 62.3622L20.3928 62.3692Z" fill="#33332F"/>
<path d="M38.1501 94.3469C37.6678 93.2939 36.6451 92.6346 35.6386 93.2776C35.3309 93.4582 35.0766 93.7173 34.9019 94.0284C34.7271 94.3395 34.638 94.6914 34.6438 95.0482C34.6974 96.1152 35.7784 97.1053 36.8617 96.8747C37.1174 96.8041 37.3562 96.6825 37.5636 96.5171C37.771 96.3518 37.9428 96.1461 38.0685 95.9125C38.2232 95.6836 38.3125 95.4169 38.3269 95.1411C38.3412 94.8652 38.2801 94.5906 38.1501 94.3469Z" fill="#33332F"/>
<path d="M8.03852 90.4863C7.93136 90.0507 7.53064 89.615 7.05538 89.6313C6.85336 89.646 6.66255 89.7298 6.51494 89.8685C6.36733 90.0072 6.27189 90.1924 6.24463 90.3931C6.20144 90.5656 6.2256 90.7481 6.3122 90.9033C6.33521 90.9454 6.36425 90.9838 6.3984 91.0175C6.40857 91.0954 6.4356 91.1701 6.47761 91.2365C6.56747 91.3836 6.70853 91.4923 6.87366 91.5417C7.03556 91.5987 7.20978 91.6113 7.37819 91.5781C7.5466 91.5449 7.70303 91.4672 7.83118 91.353C7.93805 91.239 8.01338 91.0991 8.04974 90.9471C8.0861 90.7952 8.08224 90.6363 8.03852 90.4863Z" fill="#33332F"/>
<path d="M4.11292 90.0949C3.92919 90.034 3.73178 90.0276 3.54446 90.0763C3.40449 90.0835 3.27016 90.1337 3.15971 90.22C3.04925 90.3063 2.96804 90.4245 2.92709 90.5585C2.89214 90.6587 2.85719 90.7565 2.82691 90.859C2.78876 90.9848 2.78575 91.1185 2.81819 91.2458C2.85064 91.3731 2.9173 91.4891 3.01096 91.5813C3.12105 91.6962 3.25545 91.7851 3.40434 91.8413C3.55322 91.8976 3.7128 91.9198 3.87139 91.9064C4.02999 91.893 4.18358 91.8443 4.3209 91.7639C4.45823 91.6834 4.57582 91.5733 4.66506 91.4415C4.7278 91.3184 4.76322 91.1831 4.7689 91.0451C4.77458 90.907 4.75038 90.7694 4.69796 90.6415C4.64553 90.5136 4.56612 90.3986 4.46515 90.3043C4.36418 90.2099 4.24403 90.1385 4.11292 90.0949Z" fill="#33332F"/>
<path d="M5.41291 92.9749C5.3312 92.8902 5.22782 92.8295 5.11403 92.7996C5.00024 92.7696 4.8804 92.7714 4.76757 92.8048C4.59985 92.859 4.44791 92.9534 4.32493 93.0797C4.2058 93.2106 4.12517 93.3718 4.09195 93.5456C4.09195 93.5596 4.09195 93.5736 4.09195 93.5853C4.09195 93.5969 4.09195 93.6039 4.09195 93.6132C4.08486 93.6486 4.08019 93.6844 4.07798 93.7204C4.07148 93.8606 4.09634 94.0004 4.15075 94.1298C4.20516 94.2592 4.28774 94.3748 4.39249 94.4682C4.4986 94.5646 4.63062 94.6278 4.77223 94.6499C4.91839 94.6689 5.06679 94.6412 5.19624 94.5707C5.32432 94.5063 5.43639 94.4141 5.52426 94.3009C5.61213 94.1876 5.67358 94.0561 5.70412 93.9161C5.73767 93.7473 5.72862 93.5729 5.67777 93.4086C5.62692 93.2442 5.53588 93.0952 5.41291 92.9749Z" fill="#33332F"/>
<path d="M7.84052 92.5273C7.69955 92.3987 7.52203 92.3173 7.33264 92.2943C7.30128 92.2799 7.26848 92.269 7.23479 92.2617C7.06468 92.2184 6.88441 92.2427 6.73189 92.3296C6.57938 92.4165 6.46653 92.5592 6.41706 92.7276C6.28427 93.154 6.23534 93.6432 6.58479 93.988C6.68513 94.0843 6.80608 94.1564 6.93847 94.199C7.07085 94.2416 7.21119 94.2534 7.34884 94.2337C7.48649 94.2139 7.61783 94.1631 7.73289 94.085C7.84795 94.0069 7.94372 93.9036 8.01292 93.783C8.12793 93.5843 8.17342 93.353 8.14219 93.1255C8.11097 92.8981 8.00482 92.6876 7.84052 92.5273Z" fill="#33332F"/>
<path d="M7.14152 95.2435C7.0411 95.1789 6.9284 95.1359 6.81052 95.117C6.69263 95.0982 6.57212 95.104 6.45658 95.134C6.38307 95.153 6.31253 95.182 6.24691 95.2202C6.15689 95.2142 6.06664 95.2279 5.98252 95.2605C5.89839 95.2931 5.82244 95.3438 5.76 95.4089C5.5939 95.5726 5.49363 95.7916 5.47817 96.0243C5.46271 96.2571 5.53315 96.4874 5.67613 96.6716C5.79403 96.8263 5.95076 96.9469 6.13038 97.0214C6.31001 97.0959 6.50615 97.1215 6.69887 97.0956C6.90757 97.0675 7.10303 96.9774 7.26001 96.837C7.41699 96.6967 7.52829 96.5125 7.57951 96.3082C7.62314 96.1072 7.60461 95.8978 7.52638 95.7076C7.44815 95.5175 7.31392 95.3556 7.14152 95.2435Z" fill="#33332F"/>
<path d="M9.65996 94.1138C9.62489 94.0955 9.58714 94.083 9.54813 94.0765C9.40178 94.0381 9.24814 94.037 9.10124 94.0732C8.95433 94.1094 8.81883 94.1819 8.7071 94.2839C8.62564 94.368 8.5628 94.4683 8.52266 94.5783C8.48252 94.6882 8.46598 94.8054 8.47413 94.9222C8.48249 95.0366 8.50842 95.1489 8.55101 95.2554C8.56253 95.4126 8.62871 95.5609 8.73806 95.6745C8.8474 95.7881 8.99304 95.8599 9.14975 95.8774L9.23594 95.903C9.49532 95.9566 9.76536 95.9076 9.98946 95.7665C10.2136 95.6253 10.3743 95.4029 10.4381 95.1459C10.4658 95.0258 10.4669 94.9012 10.4413 94.7807C10.4157 94.6601 10.3639 94.5467 10.2898 94.4483C10.2156 94.35 10.1208 94.269 10.012 94.2112C9.90316 94.1534 9.783 94.1202 9.65996 94.1138Z" fill="#33332F"/>
<path d="M63.1153 107.487L63.0827 107.47C63.0585 107.359 63.0028 107.257 62.9222 107.176C62.8417 107.096 62.7397 107.04 62.6284 107.016C62.4296 106.98 62.2253 106.99 62.0308 107.044C61.8364 107.099 61.6567 107.197 61.5055 107.331C61.361 107.448 61.2431 107.594 61.1596 107.761C61.076 107.927 61.0287 108.109 61.0209 108.295C61.0209 109.113 61.8549 109.597 62.5888 109.341C63.3226 109.085 63.9866 108.039 63.1153 107.487Z" fill="#33332F"/>
<path d="M60.7252 106.054C60.6759 105.895 60.5878 105.752 60.469 105.637C60.3502 105.521 60.2044 105.437 60.0449 105.392C59.5789 105.287 59.2085 105.564 58.9592 105.928C58.9149 106.005 58.8863 106.09 58.8751 106.178C58.8639 106.266 58.8703 106.355 58.894 106.44C58.9348 106.576 59.0161 106.697 59.127 106.785C59.1468 106.8 59.1679 106.813 59.1899 106.825C59.2203 106.936 59.2792 107.038 59.361 107.12C59.4427 107.201 59.5443 107.26 59.6558 107.291C59.8462 107.347 60.0501 107.339 60.235 107.266C60.42 107.194 60.5753 107.061 60.6762 106.89C60.7421 106.762 60.7805 106.621 60.7889 106.477C60.7974 106.333 60.7756 106.189 60.7252 106.054Z" fill="#33332F"/>
<path d="M58.4444 105.692C58.319 105.572 58.1521 105.505 57.9784 105.505C57.8048 105.505 57.6378 105.572 57.5125 105.692C57.4456 105.767 57.3826 105.845 57.3238 105.925C57.2217 105.979 57.1362 106.06 57.0768 106.158C56.9875 106.314 56.9632 106.498 57.0093 106.671C57.04 106.756 57.0849 106.834 57.1421 106.904C57.1923 107.02 57.2598 107.129 57.3424 107.225C57.4431 107.33 57.5779 107.394 57.7222 107.407C57.8684 107.43 58.0182 107.402 58.1462 107.328C58.2572 107.268 58.3546 107.186 58.4324 107.086C58.5101 106.987 58.5666 106.872 58.5981 106.75C58.6249 106.627 58.6249 106.499 58.5981 106.375C58.6427 106.259 58.6518 106.132 58.6245 106.01C58.5971 105.889 58.5344 105.778 58.4444 105.692Z" fill="#33332F"/>
<path d="M60.7716 109.837C60.7489 109.718 60.6932 109.608 60.6107 109.52C60.5283 109.431 60.4226 109.367 60.3056 109.336C60.034 109.271 59.7478 109.314 59.5074 109.457C59.267 109.599 59.0913 109.829 59.0173 110.098C58.9792 110.224 58.967 110.356 58.9815 110.487C58.9959 110.618 59.0367 110.745 59.1013 110.86C59.166 110.974 59.2531 111.075 59.3576 111.155C59.4621 111.235 59.5817 111.293 59.7092 111.326C59.8368 111.359 59.9696 111.365 60.0998 111.345C60.2299 111.325 60.3547 111.279 60.4665 111.21C60.5784 111.14 60.6751 111.049 60.7507 110.941C60.8264 110.833 60.8794 110.711 60.9067 110.583C60.9393 110.456 60.9441 110.324 60.9208 110.195C60.8975 110.066 60.8466 109.944 60.7716 109.837Z" fill="#33332F"/>
<path d="M66.7288 115.295C66.6988 115.184 66.64 115.082 66.5582 115C66.4764 114.918 66.3746 114.859 66.2628 114.829C66.1165 114.781 65.9621 114.763 65.8085 114.775C65.655 114.787 65.5053 114.829 65.3682 114.899L65.2774 114.951C65.1026 114.955 64.9361 115.026 64.8125 115.15C64.6888 115.273 64.6175 115.44 64.6134 115.615C64.611 115.66 64.611 115.706 64.6134 115.752C64.6072 115.879 64.6379 116.005 64.7019 116.115C64.7391 116.171 64.7838 116.221 64.8347 116.265C64.9436 116.39 65.0804 116.488 65.2341 116.552C65.3879 116.615 65.5543 116.641 65.72 116.628C66.0092 116.614 66.2824 116.491 66.4842 116.283C66.601 116.15 66.6842 115.991 66.7268 115.819C66.7693 115.647 66.77 115.468 66.7288 115.295Z" fill="#33332F"/>
<path d="M68.6462 113.313C68.4132 112.908 67.889 112.924 67.5163 113.101C67.4856 113.115 67.456 113.132 67.4277 113.15C67.3175 113.118 67.2002 113.118 67.0899 113.15C66.922 113.2 66.7797 113.312 66.6929 113.464C66.606 113.616 66.5814 113.796 66.624 113.965C66.6603 114.185 66.7642 114.388 66.9211 114.547C67.0781 114.705 67.2804 114.81 67.5 114.848C67.6795 114.868 67.8611 114.843 68.0286 114.776C68.1961 114.708 68.3442 114.6 68.4598 114.462C68.6072 114.314 68.7045 114.124 68.7379 113.917C68.7713 113.711 68.7393 113.5 68.6462 113.313Z" fill="#33332F"/>
<path d="M67.5699 117.618C67.5616 117.474 67.5123 117.335 67.4278 117.217C67.3432 117.102 67.2214 117.02 67.0829 116.984C67.0306 116.975 66.9777 116.969 66.9245 116.966C66.8728 116.952 66.8195 116.946 66.7661 116.947C66.5036 116.971 66.2549 117.076 66.0542 117.247C65.8536 117.418 65.7108 117.647 65.6455 117.902C65.6073 118.044 65.6165 118.193 65.6716 118.329C65.7267 118.464 65.8248 118.578 65.9507 118.652C66.1242 118.739 66.3171 118.779 66.5107 118.77C66.7043 118.76 66.8922 118.7 67.0561 118.597C67.2201 118.493 67.3545 118.349 67.4466 118.179C67.5386 118.008 67.5851 117.817 67.5815 117.623L67.5699 117.618Z" fill="#33332F"/>
<path d="M69.9484 118.166L69.8948 118.089C69.8791 118.035 69.8564 117.983 69.8273 117.935C69.735 117.787 69.589 117.68 69.4197 117.636C69.2505 117.593 69.0709 117.616 68.9187 117.702L68.8371 117.749C68.7491 117.77 68.6639 117.801 68.5832 117.842C68.4268 117.922 68.2933 118.04 68.1951 118.185C68.0969 118.331 68.0373 118.499 68.0217 118.674C67.9732 118.824 67.9589 118.983 67.9798 119.14C68.0005 119.332 68.078 119.514 68.2025 119.662C68.327 119.81 68.4928 119.918 68.6787 119.971C68.8268 120.007 68.9808 120.009 69.1301 119.979C69.2793 119.949 69.4202 119.887 69.543 119.797C70.0276 119.426 70.3025 118.727 69.9484 118.166Z" fill="#33332F"/>
<path d="M71.5863 113.879C71.445 113.798 71.2827 113.761 71.1201 113.772C70.9575 113.783 70.8019 113.842 70.6731 113.942C70.6097 113.99 70.5526 114.046 70.503 114.108L70.4447 114.152C70.051 114.518 69.9322 115.21 70.3609 115.599C70.8454 116.041 71.6399 115.787 71.9381 115.247C72.0677 115.018 72.1034 114.747 72.0378 114.492C71.9722 114.237 71.8104 114.018 71.5863 113.879Z" fill="#33332F"/>
<path d="M72.2829 117.264C72.2114 117.143 72.1093 117.041 71.9867 116.971C71.8641 116.901 71.7253 116.864 71.5839 116.864C71.2728 116.881 70.9759 117 70.7383 117.202C70.5937 117.294 70.4858 117.434 70.4331 117.598C70.3882 117.77 70.4124 117.953 70.5006 118.108C70.5088 118.188 70.5292 118.267 70.5612 118.341C70.6523 118.529 70.8087 118.677 71.0012 118.758C71.1937 118.839 71.4092 118.847 71.6073 118.781C71.7612 118.738 71.9036 118.661 72.0242 118.556C72.1447 118.451 72.2404 118.321 72.3042 118.174C72.368 118.028 72.3984 117.869 72.3931 117.709C72.3878 117.549 72.3469 117.393 72.2735 117.25L72.2829 117.264Z" fill="#33332F"/>
<path d="M110.7 87.4064C110.651 87.2449 110.543 87.1076 110.398 87.0215C110.252 86.9353 110.08 86.9064 109.915 86.9405C109.798 86.8718 109.668 86.8285 109.533 86.8132C109.398 86.798 109.262 86.8113 109.132 86.8521C109.003 86.893 108.884 86.9605 108.782 87.0504C108.68 87.1402 108.599 87.2504 108.543 87.3738C108.474 87.5018 108.447 87.648 108.465 87.792C108.484 87.9361 108.547 88.0708 108.645 88.1775C108.685 88.2148 108.724 88.2474 108.766 88.28C108.77 88.302 108.774 88.3238 108.78 88.3453C109.013 89.2189 110.315 88.9976 110.525 88.2265C110.543 88.1619 110.553 88.0954 110.555 88.0284C110.628 87.9443 110.679 87.8437 110.705 87.7353C110.73 87.6269 110.728 87.514 110.7 87.4064Z" fill="#33332F"/>
<path d="M110.218 89.9131C110.145 89.8425 110.063 89.7829 109.973 89.736C109.945 89.6862 109.909 89.6413 109.866 89.6032C109.741 89.4825 109.574 89.415 109.4 89.415C109.226 89.415 109.059 89.4825 108.934 89.6032C108.771 89.7767 108.635 89.9729 108.529 90.1856C108.444 90.3083 108.404 90.4563 108.415 90.605C108.407 90.6973 108.415 90.7901 108.438 90.8799C108.578 91.4367 109.265 91.7186 109.789 91.5485C109.95 91.4971 110.095 91.406 110.211 91.2836C110.327 91.1612 110.41 91.0116 110.452 90.8485C110.495 90.6854 110.496 90.5142 110.455 90.3507C110.414 90.1871 110.332 90.0366 110.218 89.9131Z" fill="#33332F"/>
<path d="M111.28 92.2614C111.194 92.1627 111.085 92.0867 110.963 92.0401C110.894 91.9851 110.815 91.9439 110.73 91.919C110.599 91.8832 110.461 91.8741 110.326 91.8919C110.191 91.9098 110.061 91.9545 109.943 92.0232C109.825 92.0919 109.722 92.1834 109.64 92.2923C109.558 92.4012 109.499 92.5253 109.465 92.6575C109.385 92.9185 109.406 93.2003 109.525 93.4462C109.644 93.6921 109.851 93.8839 110.106 93.9831C111.098 94.3535 111.979 93.0349 111.28 92.2614Z" fill="#33332F"/>
<path d="M112.689 90.3045C112.527 90.3035 112.367 90.3435 112.224 90.4209C112.11 90.3861 111.988 90.3861 111.874 90.4209C111.706 90.4704 111.564 90.5829 111.477 90.7349C111.39 90.8869 111.365 91.0666 111.408 91.2363C111.467 91.4558 111.595 91.6505 111.772 91.7919C111.95 91.9332 112.169 92.0137 112.396 92.0215C112.586 92.0428 112.778 92.0105 112.951 91.9281C113.123 91.8457 113.269 91.7167 113.372 91.5555C113.442 91.4314 113.48 91.2914 113.481 91.1487C113.482 91.006 113.447 90.8654 113.379 90.7401C113.31 90.6149 113.211 90.5091 113.091 90.4329C112.97 90.3567 112.832 90.3125 112.689 90.3045Z" fill="#33332F"/>
<path d="M114.106 88.3806C113.992 88.2946 113.853 88.248 113.71 88.2478C113.535 88.2492 113.368 88.3186 113.244 88.4412L113.141 88.5763C113.121 88.6099 113.104 88.6459 113.092 88.6835C112.988 88.8069 112.904 88.9444 112.808 89.0725C112.729 89.1962 112.695 89.3428 112.709 89.4887C112.723 89.6347 112.787 89.7715 112.888 89.8773C112.99 89.9832 113.124 90.0518 113.269 90.0723C113.414 90.0928 113.562 90.064 113.689 89.9904L113.745 90.0021C113.891 90.019 114.039 89.9914 114.169 89.9229C114.315 89.8539 114.441 89.7463 114.531 89.6118C114.621 89.4772 114.673 89.3206 114.681 89.1587C114.68 88.9848 114.624 88.8156 114.521 88.6757C114.417 88.5358 114.272 88.4325 114.106 88.3806Z" fill="#33332F"/>
<path d="M120.173 50.7506C120.173 50.5766 120.105 50.4094 119.984 50.2847C119.859 50.1645 119.692 50.0974 119.518 50.0974C119.344 50.0974 119.177 50.1645 119.052 50.2847C118.79 50.5065 118.568 50.7712 118.395 51.0675C118.287 51.2816 118.247 51.523 118.278 51.7606C118.309 51.9982 118.411 52.2209 118.57 52.4001C118.695 52.5508 118.863 52.6606 119.052 52.7154C119.24 52.7702 119.441 52.7675 119.627 52.7076C119.894 52.5986 120.121 52.4113 120.279 52.1705C120.436 51.9296 120.517 51.6465 120.51 51.3587C120.506 51.2378 120.474 51.1196 120.415 51.0139C120.356 50.9081 120.273 50.8179 120.173 50.7506Z" fill="#33332E"/>
<path d="M118.414 47.6452C118.326 47.4964 118.184 47.3871 118.018 47.34L117.866 47.2981C117.818 47.2864 117.769 47.2793 117.719 47.2771H117.668C117.616 47.2784 117.565 47.2854 117.514 47.2981L117.363 47.34C117.196 47.3858 117.054 47.4954 116.967 47.6452L116.899 47.8036C116.869 47.919 116.869 48.0401 116.899 48.1554C116.941 48.3341 117.041 48.4937 117.185 48.6083C117.328 48.7228 117.506 48.7857 117.689 48.7868C117.873 48.7858 118.051 48.723 118.195 48.6085C118.338 48.494 118.439 48.3343 118.481 48.1554C118.524 47.9829 118.5 47.8005 118.414 47.6452Z" fill="#33332E"/>
<path d="M121.242 46.9926C121.172 46.7767 121.023 46.5952 120.825 46.4847C120.799 46.3563 120.738 46.2376 120.648 46.1423C120.522 46.0232 120.355 45.9568 120.182 45.9568C120.009 45.9568 119.842 46.0232 119.716 46.1423C119.521 46.3239 119.375 46.5515 119.291 46.8042C119.206 47.057 119.187 47.3268 119.234 47.589C119.269 47.746 119.34 47.8928 119.442 48.0179C119.543 48.143 119.671 48.2432 119.818 48.3108C119.964 48.3783 120.123 48.4114 120.284 48.4074C120.445 48.4035 120.603 48.3626 120.746 48.288C120.964 48.1613 121.132 47.9636 121.223 47.7279C121.313 47.4922 121.32 47.2327 121.242 46.9926Z" fill="#33332E"/>
<path d="M118.116 51.3006C118.103 51.2041 118.069 51.1117 118.015 51.0304C118.009 50.9335 117.98 50.8394 117.932 50.7555C117.887 50.6804 117.829 50.6147 117.759 50.5623C117.689 50.5099 117.61 50.4718 117.526 50.4502C117.441 50.4285 117.353 50.4238 117.267 50.4362C117.181 50.4486 117.098 50.4779 117.023 50.5225C116.873 50.6093 116.764 50.7516 116.718 50.9186C116.678 51.0678 116.631 51.2148 116.576 51.3589C116.549 51.4578 116.545 51.5616 116.566 51.662C116.587 51.7624 116.631 51.8565 116.694 51.9367C116.754 52.0194 116.832 52.0864 116.923 52.1318C117.014 52.1773 117.115 52.1999 117.216 52.1976C117.38 52.191 117.539 52.1463 117.682 52.0671C117.82 51.9797 117.938 51.8637 118.027 51.727L118.092 51.5686C118.125 51.4833 118.133 51.3903 118.116 51.3006Z" fill="#33332E"/>
<path d="M94.5433 33.3474C94.4934 33.2395 94.4118 33.1494 94.3095 33.0891C94.2071 33.0287 94.0887 33.001 93.9702 33.0096C93.2713 33.0259 92.5351 33.182 92.3207 33.9415C92.118 34.6404 92.4559 35.5234 93.2363 35.6631C93.5544 35.7216 93.8829 35.6759 94.1729 35.5327C94.4629 35.3896 94.699 35.1567 94.8462 34.8687C94.964 34.6159 94.9982 34.3321 94.9437 34.0585C94.8892 33.7849 94.749 33.5358 94.5433 33.3474Z" fill="#33332E"/>
<path d="M91.6124 33.019C91.5817 32.9022 91.5197 32.7961 91.433 32.7119C91.3464 32.6277 91.2385 32.5688 91.1209 32.5414C91.0399 32.4591 90.9387 32.3996 90.8273 32.369C90.6575 32.3252 90.4773 32.3493 90.325 32.4364C90.1727 32.5234 90.0604 32.6664 90.0119 32.835C90.013 32.8513 90.013 32.8676 90.0119 32.8839C89.931 33.0014 89.8893 33.1415 89.8926 33.2841C89.896 33.4268 89.9442 33.5647 90.0306 33.6783L90.0469 33.697C90.0937 33.8193 90.1669 33.9299 90.2612 34.0208C90.377 34.1378 90.5274 34.2146 90.6901 34.2397C90.8529 34.2649 91.0194 34.2372 91.1651 34.1606C91.3506 34.0418 91.4937 33.8675 91.5741 33.6624C91.6544 33.4574 91.6679 33.2322 91.6124 33.019Z" fill="#33332E"/>
<path d="M89.1011 30.3844C88.6072 30.2469 87.8803 30.2865 87.5285 30.7152C87.411 30.8419 87.3456 31.0083 87.3456 31.1811C87.3456 31.354 87.411 31.5204 87.5285 31.6471C87.6685 31.7775 87.8545 31.847 88.0458 31.8404L88.0993 31.8917C88.5653 32.332 89.4529 32.6558 89.8559 31.9569C90.238 31.3023 89.7744 30.5707 89.1011 30.3844Z" fill="#33332E"/>
<path d="M89.9421 28.4621C89.76 28.2967 89.5218 28.2068 89.2759 28.2105C89.1542 28.0975 88.9946 28.0343 88.8285 28.0334C88.6542 28.0358 88.4874 28.105 88.3626 28.2268C88.2488 28.3567 88.1808 28.5204 88.1692 28.6928C88.1625 28.8779 88.1933 29.0625 88.2598 29.2355C88.3263 29.4084 88.427 29.5662 88.556 29.6992C88.6375 29.791 88.7363 29.8658 88.8468 29.9194C88.9572 29.973 89.0772 30.0043 89.1997 30.0116C89.3223 30.0188 89.445 30.0018 89.561 29.9616C89.677 29.9214 89.784 29.8588 89.8758 29.7772C89.9675 29.6957 90.0424 29.5969 90.096 29.4864C90.1496 29.376 90.1809 29.2561 90.1881 29.1335C90.1954 29.011 90.1784 28.8882 90.1382 28.7722C90.098 28.6562 90.0353 28.5492 89.9538 28.4575L89.9421 28.4621Z" fill="#33332E"/>
<path d="M93.3062 28.8629C93.3038 28.73 93.2616 28.6009 93.1853 28.4921C93.1089 28.3834 93.0017 28.2999 92.8775 28.2525C92.7494 28.1447 92.5862 28.0875 92.4188 28.0918C92.2514 28.0961 92.0913 28.1616 91.9689 28.2758C91.8023 28.4226 91.681 28.614 91.6195 28.8274C91.558 29.0408 91.5588 29.2673 91.6218 29.4803C91.66 29.6024 91.7323 29.7111 91.8301 29.7936C91.9279 29.8761 92.0471 29.9291 92.1739 29.9463C92.2845 29.9599 92.3968 29.947 92.5013 29.9085C92.6059 29.87 92.6997 29.8071 92.775 29.7249L92.8076 29.7063C92.9839 29.5896 93.1185 29.4199 93.192 29.2217C93.2671 29.1172 93.307 28.9916 93.3062 28.8629Z" fill="#33332E"/>
<path d="M92.6633 30.773C92.5803 30.6902 92.4769 30.6309 92.3635 30.601C92.2502 30.5712 92.1309 30.5718 92.0179 30.603C91.8507 30.6568 91.6994 30.7512 91.5776 30.8779C91.4572 31.0079 91.3764 31.1695 91.3446 31.3438C91.3322 31.4208 91.3268 31.4988 91.3283 31.5768C91.3238 31.6139 91.3238 31.6515 91.3283 31.6886C91.3297 31.8632 91.3991 32.0303 91.5217 32.1546C91.6494 32.2719 91.8144 32.3404 91.9876 32.3479C92.1619 32.3597 92.3361 32.3223 92.4901 32.2399C92.6442 32.1575 92.772 32.0335 92.8589 31.882C92.9545 31.7018 92.9872 31.4948 92.9517 31.2939C92.9163 31.093 92.8148 30.9097 92.6633 30.773Z" fill="#33332E"/>
<path d="M33.7679 8.25872C33.7679 8.24009 33.7562 8.22378 33.7516 8.20514C33.7469 8.1865 33.7516 8.15389 33.7516 8.12826C33.7498 7.95273 33.6792 7.7849 33.5551 7.66077C33.431 7.53665 33.2631 7.46611 33.0876 7.46429C33.0394 7.44542 32.9895 7.43137 32.9385 7.42236C32.7357 7.38852 32.5281 7.39565 32.3281 7.44332L32.1697 7.47594C32.3305 7.44332 32.1441 7.47594 32.0928 7.46429C31.9366 7.46378 31.7852 7.51877 31.6658 7.61947C31.5463 7.72017 31.4664 7.86002 31.4405 8.0141C31.4049 8.067 31.373 8.12227 31.345 8.17952C31.2598 8.36762 31.2248 8.57454 31.2432 8.78019C31.2616 8.98585 31.3329 9.18324 31.4501 9.35322C31.5673 9.52319 31.7265 9.65997 31.9122 9.75027C32.0979 9.84057 32.3038 9.88132 32.5099 9.86856C33.2763 9.80566 33.9519 9.04151 33.7679 8.25872Z" fill="#33332F"/>
<path d="M30.9046 10.1344C30.8746 10.0227 30.8158 9.92081 30.734 9.83903C30.6522 9.75724 30.5504 9.69841 30.4387 9.66844C30.1581 9.57715 29.8548 9.58454 29.579 9.68941C29.488 9.63904 29.3847 9.61485 29.2808 9.61952C29.1054 9.62193 28.938 9.69265 28.814 9.81665C28.69 9.94065 28.6192 10.1081 28.6168 10.2835C28.6184 10.4958 28.6781 10.7037 28.7892 10.8846C28.8155 11.0401 28.8958 11.1814 29.0159 11.2837C29.1361 11.386 29.2884 11.4426 29.4462 11.4437C29.5006 11.4412 29.5545 11.4326 29.607 11.4181C29.6793 11.4297 29.7527 11.4344 29.8259 11.432C30.1275 11.4289 30.4169 11.3125 30.6367 11.1059C30.7588 10.9791 30.8473 10.8239 30.8941 10.6542C30.9409 10.4845 30.9445 10.3058 30.9046 10.1344Z" fill="#33332F"/>
<path d="M30.3945 12.7783C30.3551 12.6716 30.293 12.5747 30.2126 12.4943C30.1321 12.4139 30.0352 12.3518 29.9285 12.3124C29.8963 12.1642 29.8146 12.0314 29.6969 11.9357C29.5793 11.84 29.4325 11.7872 29.2809 11.7859C29.1057 11.7889 28.9386 11.8598 28.8147 11.9837C28.6908 12.1076 28.6199 12.2747 28.6169 12.4499C28.6169 12.5827 28.6169 12.7154 28.6052 12.8506C28.4997 12.9789 28.4454 13.1418 28.4527 13.3078C28.46 13.4738 28.5284 13.6313 28.6448 13.7498C28.75 13.8472 28.8826 13.9098 29.0246 13.9292H29.0362C29.2054 14.0418 29.4078 14.0934 29.6102 14.0757C29.8126 14.0579 30.0029 13.9717 30.1499 13.8314C30.2861 13.697 30.3814 13.5267 30.4247 13.3403C30.468 13.1539 30.4575 12.959 30.3945 12.7783Z" fill="#33332F"/>
<path d="M27.1771 10.8614C27.1446 10.7986 27.1047 10.74 27.0583 10.6867C27.0078 10.5698 26.9242 10.4702 26.8178 10.4003C26.7114 10.3303 26.5869 10.293 26.4596 10.293C26.2309 10.2982 26.0102 10.3783 25.8314 10.521C25.6525 10.6636 25.5254 10.8609 25.4694 11.0827C25.3922 11.3206 25.4123 11.5795 25.5253 11.8026C25.6384 12.0257 25.8353 12.1949 26.0728 12.2732C26.1946 12.3068 26.3218 12.316 26.4471 12.3003C26.5724 12.2846 26.6934 12.2443 26.8032 12.1818C26.9129 12.1192 27.0092 12.0356 27.0866 11.9358C27.1639 11.8359 27.2208 11.7218 27.254 11.5999C27.32 11.3527 27.2926 11.0898 27.1771 10.8614Z" fill="#33332F"/>
<path d="M19.1466 40.9265C19.1769 40.7647 19.146 40.5974 19.0599 40.457C18.9738 40.3167 18.8386 40.2133 18.6806 40.167C18.3764 40.105 18.0599 40.1644 17.7988 40.3324C17.5377 40.5004 17.3525 40.7637 17.2828 41.0663C17.1384 41.5812 17.2688 42.2312 17.772 42.5084C17.9098 42.5807 18.0625 42.6197 18.2181 42.6221C18.3736 42.6245 18.5275 42.5903 18.6674 42.5223C18.8073 42.4543 18.9292 42.3543 19.0234 42.2305C19.1176 42.1067 19.1813 41.9625 19.2095 41.8095C19.2398 41.6767 19.2493 41.5399 19.2374 41.4041C19.2589 41.2393 19.2271 41.0719 19.1466 40.9265Z" fill="#33332F"/>
<path d="M15.9944 42.4477C15.8247 42.3526 15.6327 42.3044 15.4382 42.3081C15.2437 42.3117 15.0537 42.3672 14.8878 42.4687L14.8598 42.4873C14.7373 42.5134 14.6217 42.5651 14.5205 42.639C14.4193 42.7128 14.3349 42.8072 14.2727 42.916C14.1747 43.1038 14.139 43.3179 14.1708 43.5273C14.2026 43.7368 14.3004 43.9307 14.4498 44.0808C14.5691 44.1879 14.7092 44.2692 14.8614 44.3196C15.0136 44.37 15.1746 44.3884 15.3342 44.3738C15.4938 44.3591 15.6487 44.3117 15.7892 44.2344C15.9296 44.1572 16.0527 44.0517 16.1505 43.9247C16.4767 43.4914 16.5093 42.7622 15.9944 42.4477Z" fill="#33332F"/>
<path d="M17.9002 38.0745C17.8504 37.9485 17.775 37.8343 17.6789 37.739L17.6416 37.7087C17.6275 37.5834 17.5752 37.4655 17.4919 37.3709C17.4085 37.2763 17.2981 37.2096 17.1756 37.1799C16.8541 37.1076 16.4185 37.2777 16.3579 37.6458C16.3579 37.6458 16.3579 37.6458 16.3579 37.6575C16.3579 37.6691 16.3229 37.7437 16.3113 37.7716C16.2324 37.9224 16.1631 38.078 16.104 38.2376C16.0185 38.4387 16.0065 38.6634 16.0699 38.8725C16.1334 39.0816 16.2683 39.2617 16.4511 39.3815C16.6912 39.5072 16.9714 39.5327 17.2304 39.4524C17.4893 39.372 17.7058 39.1924 17.8326 38.9528C17.9111 38.8216 17.958 38.674 17.9697 38.5216C17.9814 38.3692 17.9576 38.2161 17.9002 38.0745Z" fill="#33332F"/>
<path d="M108.755 28.9979C108.289 28.3246 107.702 27.4976 106.942 27.1342L106.84 27.0922C106.751 27.0161 106.641 26.9682 106.525 26.9548C105.71 26.829 104.913 26.7218 104.137 27.0852C103.357 27.4523 102.737 28.0908 102.392 28.8814C101.74 30.4144 102.471 32.1757 103.736 33.1542C104.296 33.6001 104.981 33.8596 105.696 33.8959C106.41 33.9323 107.118 33.7437 107.72 33.3568C109.183 32.4017 109.815 30.5076 108.755 28.9979Z" fill="#33332E"/>
<path d="M93.5322 22.0439C93.2914 21.9272 93.0211 21.8858 92.7564 21.9251C92.6102 21.9597 92.4614 21.9815 92.3114 21.9903C92.1417 21.9495 91.9628 21.9749 91.8113 22.0615C91.6597 22.1481 91.547 22.2893 91.496 22.4563C91.4791 22.5224 91.4728 22.5908 91.4774 22.659C91.3076 22.8811 91.1959 23.1421 91.1524 23.4183C91.1089 23.6945 91.1349 23.9772 91.2281 24.2408C91.8198 25.86 94.1868 24.8396 94.3546 23.4627C94.3772 23.1708 94.3107 22.8789 94.1638 22.6255C94.017 22.3722 93.7967 22.1694 93.5322 22.0439ZM92.7447 23.6048C92.6806 23.6473 92.6137 23.6855 92.5444 23.719L92.4861 23.7399H92.4628C92.457 23.7178 92.457 23.6945 92.4628 23.6724V23.6747C92.4628 23.6118 92.4768 23.5932 92.4628 23.5932C92.4704 23.5718 92.4767 23.5501 92.4815 23.5279C92.4802 23.5218 92.4802 23.5154 92.4815 23.5093V23.5326C92.5787 23.5487 92.6783 23.5408 92.7717 23.5095C92.8651 23.4782 92.9494 23.4246 93.0173 23.3532C93.0141 23.3662 93.0077 23.3782 92.9987 23.3882C92.9185 23.4677 92.8337 23.5424 92.7447 23.6118V23.6048Z" fill="#33332E"/>
<path d="M108.929 45.108C108.445 44.5582 107.711 44.02 106.977 43.8872C106.816 43.859 106.65 43.8881 106.509 43.9694C106.367 44.0506 106.258 44.179 106.201 44.3322C104.426 44.663 104.272 47.5146 105.845 48.4255C106.989 49.0848 108.515 48.3906 109.123 47.3212C109.338 46.9824 109.436 46.5819 109.401 46.1818C109.366 45.7817 109.2 45.4043 108.929 45.108Z" fill="#33332E"/>
<path d="M118.502 39.9104C118.22 39.5073 117.78 39.3839 117.417 39.088C117.369 39.0498 117.316 39.0177 117.261 38.9925C117.214 38.9043 117.147 38.8285 117.065 38.7716C116.983 38.7147 116.889 38.6783 116.79 38.6655C116.691 38.6527 116.591 38.6639 116.497 38.6981C116.403 38.7323 116.319 38.7885 116.252 38.862C115.436 39.7473 114.961 41.8907 116.503 42.3286C116.928 42.4484 117.381 42.4077 117.777 42.2143C118.174 42.0209 118.485 41.6884 118.651 41.2803C118.744 41.0578 118.779 40.8157 118.753 40.5762C118.727 40.3367 118.64 40.1077 118.502 39.9104Z" fill="#33332E"/>
<path d="M80.8026 76.5595L80.5696 87.2925L86.8994 86.3187L96.1647 77.0255C96.1647 77.0255 98.1403 70.6001 98.11 66.7421C98.0798 62.884 80.8026 76.5595 80.8026 76.5595Z" fill="#323232"/>
<path d="M67.9984 54.9559C67.9984 54.9559 72.8396 52.6075 94.972 53.1783C98.2755 53.1783 98.7974 55.4591 98.6623 55.7946C98.5271 56.13 100.594 57.6211 100.016 60.1045C99.438 62.588 99.706 63.7436 99.7945 64.0115C99.883 64.2794 99.3518 65.4746 98.9069 65.9638C98.4619 66.453 98.9511 66.8305 98.1544 67.562C97.3576 68.2935 94.1938 70.8772 94.1938 71.5225C94.1938 72.1678 89.984 75.0311 87.1418 75.8837C84.2995 76.7364 83.9827 78.4884 80.8981 78.9124C77.8136 79.3364 71.6445 75.4551 71.6445 75.4551C71.6445 75.4551 64.5039 58.553 67.9984 54.9559Z" fill="#3F3F3F"/>
<path d="M61.4868 41.4109L60.1775 41.6928L63.1013 48.011L67.3157 53.0292L68.3921 54.66C68.3921 54.66 74.3142 53.6606 77.9439 53.7281C81.5736 53.7957 84.3577 53.1993 86.9553 53.3391C87.7055 52.7077 86.0677 45.185 86.0677 45.185L83.8661 44.1786C83.8661 44.1786 81.0704 45.6766 73.825 45.2549C66.5796 44.8333 63.5369 43.1955 62.9009 42.5874C62.2649 41.9793 61.4868 41.4109 61.4868 41.4109Z" fill="#323232"/>
<path d="M43.0565 43.764L40.8549 44.4746L39.9742 46.9441L43.4968 50.1987L52.5734 52.1067L62.8987 50.4433V46.534L55.7535 42.9812L43.0565 43.764Z" fill="#323232"/>
<path d="M65.2378 41.5971C65.2378 41.5971 66.0882 41.4433 66.3584 41.2616C66.7231 41.0059 67.1698 40.8947 67.6118 40.9494C68.2292 41.003 71.0458 41.5109 71.9195 41.5388C72.7931 41.5668 80.628 41.3432 81.2057 41.427C81.7835 41.5109 82.8831 42.1609 82.967 42.5686C83.0509 42.9763 81.4597 45.1196 81.4597 45.1196L72.4134 45.6322L64.4527 43.2861L65.2378 41.5971Z" fill="#323232"/>
<path d="M56.3452 26.361C56.3452 26.361 57.0185 27.0204 57.0977 27.3721C57.1769 27.7239 60.4921 40.7797 61.5917 42.4641C61.9482 43.3424 63.7956 47.6268 63.7956 47.6268L62.2534 47.7922C62.2534 47.7922 61.7105 45.4625 59.1851 45.3483C56.6597 45.2341 51.2221 45.4857 49.9594 45.2947C48.6967 45.1037 42.481 43.6639 41.6703 44.251C40.8595 44.8381 37.3323 44.1415 37.3323 44.1415L29.6838 25.2707V22.1722L35.5641 18.9502H44.65L50.7795 20.814L52.7947 22.4448L54.3882 23.577L56.3452 26.361Z" fill="#3F3F3F"/>
<path d="M31.3705 38.0464L31.2517 40.1757C31.2517 40.1757 38.9165 75.5106 38.6835 76.9504C38.4506 78.3902 44.205 78.6651 44.205 78.6651L78.3517 88.3637L79.6051 80.2097L68.9257 67.345L66.2348 50.4102L55.1943 51.4772C55.1943 51.4772 47.0146 50.8692 44.4123 49.6437C41.9149 48.5837 42.3738 49.1429 39.7529 47.0321C37.1319 44.9214 31.3705 38.0464 31.3705 38.0464Z" fill="#3F3F3F"/>
<path d="M97.3623 72.3656C97.3623 72.3656 95.6709 81.0205 82.3542 85.8058L82.1003 86.2251L81.6343 86.2438L81.5434 78.1037C81.5434 78.1037 68.4318 76.5288 69.0888 52.9171C71.4767 51.7266 71.4185 50.5687 71.3486 49.5716C71.2787 48.5745 70.5099 46.9716 67.2879 47.349C64.7252 47.6566 64.3734 47.78 64.3361 47.815L64.2942 47.2326C64.2942 47.2326 61.5894 47.2326 60.8742 47.6193C60.6039 48.4393 61.3401 50.1284 58.817 50.8203C53.4377 51.6311 42.4111 50.0189 40.8991 47.5913C40.2002 46.3892 40.99 45.3758 40.99 45.2337C40.99 45.0915 41.3325 44.9471 42.0547 44.2855C42.1805 43.9709 40.997 44.0921 40.7803 44.0688C40.5637 44.0455 32.2675 37.1984 31.2285 23.283C32.0439 23.3156 33.9496 23.4391 33.9496 23.4391C33.9496 23.4391 34.0847 19.3364 38.397 19.1058C42.7093 18.8752 48.4847 19.8234 52.7434 22.7844C54.337 24.0495 55.7325 26.5003 56.4943 26.6238C56.6574 25.7339 56.1658 24.4735 56.1658 24.4735C56.1658 24.4735 54.4604 23.2411 53.6846 22.9126C52.9088 22.5841 50.8121 17.8198 40.8968 16.9858C32.9874 16.2612 31.6991 19.9096 31.2285 20.3545C30.7579 20.7995 28.7403 18.549 28.4095 18.549C28.0787 18.549 27.7339 18.5141 27.6989 18.7144C27.6727 18.9733 27.6291 19.2302 27.5685 19.4832C27.5028 19.5702 27.4554 19.6694 27.429 19.7751C27.4026 19.8808 27.3977 19.9907 27.4147 20.0983C27.4729 20.3708 26.774 20.1588 27.0583 20.7622C27.3425 21.3656 29.0548 32.4714 29.9122 35.3766C30.7695 38.2818 38.2992 73.9615 38.404 76.0885C38.3784 76.1747 37.9101 76.3215 37.9101 76.3215L38.5298 80.9995L39.6667 81.3397C39.6667 81.3397 39.6667 81.8056 39.888 81.9012C40.1094 81.9967 40.1769 83.4458 40.1769 83.4458C40.1769 83.4458 39.4966 83.6787 40.0907 84.564C40.4567 85.0463 40.6429 85.6412 40.6172 86.2461C40.6335 86.5163 41.5678 92.6435 41.5678 92.6435C41.4876 92.8743 41.4581 93.1197 41.4814 93.363C41.5048 93.6062 41.5803 93.8416 41.7029 94.053C42.1269 94.6983 42.0989 95.8911 42.0989 95.8911C42.0989 95.8911 43.2918 96.4177 43.9021 95.6582C43.8882 95.1456 43.7624 93.841 43.7624 93.841C43.7624 93.841 44.2073 93.5498 44.0256 92.5503C43.8882 92.0075 43.7344 92.0238 43.7344 92.0238L43.6086 84.0562C43.7431 83.8519 43.809 83.6102 43.7969 83.366C43.7847 83.1218 43.6951 82.8878 43.541 82.6979C43.4588 82.2265 43.4074 81.7502 43.3873 81.2721L43.5573 80.5872L74.9527 90.9195L75.0855 93.3098C75.0855 93.3098 76.4833 93.6826 76.672 94.2417C76.8607 94.8008 76.672 95.9867 76.672 95.9867C76.5424 96.321 76.4959 96.6818 76.5365 97.0381C76.5771 97.3944 76.7035 97.7355 76.905 98.0322C77.138 98.7637 77.9091 108.283 77.9091 108.283C77.9091 108.283 77.3453 108.959 78.1887 109.9C78.205 110.447 78.2702 111.549 78.2702 111.549C78.2702 111.549 78.3168 112.714 79.7006 112.758C81.0845 112.803 80.8655 111.985 80.8655 111.896C80.8655 111.808 80.9587 109.916 80.9587 109.916C81.0966 109.653 81.1687 109.36 81.1687 109.063C81.1687 108.766 81.0966 108.474 80.9587 108.211C80.8305 107.512 81.173 98.0135 81.173 98.0135C81.173 98.0135 82.2983 96.83 81.2429 95.7327C81.2126 95.1689 81.18 94.3908 81.18 94.3908C81.18 94.3908 81.4666 93.7851 81.413 93.4985C81.3594 93.212 82.5965 92.0168 82.5965 92.0168V89.6708C82.5965 89.6708 95.0815 85.6776 97.5067 74.6977L97.3623 72.3656ZM76.6487 87.2758C76.6487 87.2758 42.9936 77.0693 39.0307 76.4519C38.9818 74.9469 31.9553 44.1853 31.3659 39.0366C31.3578 38.9747 31.3705 38.9119 31.4019 38.8581C31.4333 38.8042 31.4817 38.7622 31.5395 38.7388C31.5973 38.7153 31.6612 38.7117 31.7213 38.7285C31.7814 38.7453 31.8342 38.7816 31.8715 38.8316C33.8937 41.5107 38.5694 53.9142 64.2825 51.7802C64.8929 72.5636 70.2117 78.5417 76.6487 82.7655C77.1286 83.7952 76.6487 87.2758 76.6487 87.2758Z" fill="#BB9662"/>
<path d="M59.5602 36.4085C59.4274 36.087 61.226 41.7459 61.2726 41.8577C61.3192 41.9695 66.4399 45.6318 72.4063 45.6318C78.3727 45.6318 84.2273 45.2847 85.0264 45.0983C85.08 49.4666 85.1336 52.2879 85.5856 53.3013C86.3562 53.3645 87.1307 53.3645 87.9013 53.3013C87.9013 53.3013 87.0766 47.3628 87.4354 45.8974C87.7802 45.5526 89.5321 45.2591 89.2176 43.7424C88.9031 42.2258 87.5402 42.277 87.1674 42.3306C86.7947 42.3842 84.1388 42.7173 84.1388 42.7173L84.1225 42.2398L82.7852 42.4098C82.7852 42.4098 82.5709 44.6068 80.7257 44.7745C78.8806 44.9422 69.2728 45.3989 65.9064 43.6096C64.9535 43.0435 65.4008 42.1512 65.4008 41.9136C65.4008 41.676 66.1673 41.3661 66.1673 41.3661L65.1516 40.9631L64.4783 41.0446L64.406 41.3801C64.406 41.3801 60.166 37.8482 59.5602 36.4085Z" fill="#BB9662"/>
<path d="M92.9685 81.7149C92.9685 81.7149 92.7984 83.0778 92.9685 83.2479C93.1385 83.418 94.1962 83.7954 94.6226 83.3923C94.7554 82.9916 94.7321 81.9829 94.7321 81.9829C94.7321 81.9829 95.0116 81.9945 94.9883 81.5169C94.965 81.0393 94.8532 80.2146 94.8532 80.2146L92.9685 81.7149Z" fill="#BB9662"/>
</svg>
