<svg width="652" height="541" viewBox="0 0 652 541" fill="none" xmlns="http://www.w3.org/2000/svg">
<path d="M135 53.4999L231 7.16758L231 99.8323L135 53.4999Z" fill="#E6C690" fill-opacity="0.7"/>
<path d="M238 149.5L334 103.168L334 195.832L238 149.5Z" fill="#E6C690" fill-opacity="0.7"/>
<path d="M292 270.5L388 224.168L388 316.832L292 270.5Z" fill="#E6C690" fill-opacity="0.7"/>
<path d="M-2.33856e-06 142.5L96 96.1676L96 188.832L-2.33856e-06 142.5Z" fill="#112749" fill-opacity="0.7"/>
<path d="M366 88.4999L462 42.1676L462 134.832L366 88.4999Z" fill="#E6C690" fill-opacity="0.7"/>
<path d="M326.5 53.4999L230.5 99.8323L230.5 7.16758L326.5 53.4999Z" fill="#112749" fill-opacity="0.7"/>
<path d="M249.5 275.5L153.5 321.832L153.5 229.168L249.5 275.5Z" fill="#E6C690" fill-opacity="0.7"/>
<path d="M429.5 149.5L333.5 195.832L333.5 103.168L429.5 149.5Z" fill="#112749" fill-opacity="0.7"/>
<path d="M483.5 270.5L387.5 316.832L387.5 224.168L483.5 270.5Z" fill="#112749" fill-opacity="0.7"/>
<path d="M191.5 142.5L95.5 188.832L95.5 96.1676L191.5 142.5Z" fill="#E6C690" fill-opacity="0.7"/>
<path d="M396 366.5L492 320.168L492 412.832L396 366.5Z" fill="#E6C690" fill-opacity="0.7"/>
<path d="M450 487.5L546 441.168L546 533.832L450 487.5Z" fill="#E6C690" fill-opacity="0.7"/>
<path d="M524 305.5L620 259.168L620 351.832L524 305.5Z" fill="#E6C690" fill-opacity="0.7"/>
<path d="M301 460.5L397 414.168L397 506.832L301 460.5Z" fill="#112749" fill-opacity="0.7"/>
<path d="M587.5 366.5L491.5 412.832L491.5 320.168L587.5 366.5Z" fill="#112749" fill-opacity="0.7"/>
<path d="M641.5 487.5L545.5 533.832L545.5 441.168L641.5 487.5Z" fill="#112749" fill-opacity="0.7"/>
<path d="M349.5 359.5L253.5 405.832L253.5 313.168L349.5 359.5Z" fill="#E6C690" fill-opacity="0.7"/>
</svg>
