<svg width="400" height="380" viewBox="0 0 400 380" fill="none" xmlns="http://www.w3.org/2000/svg">
<path d="M52.7737 161.39C52.545 159.176 51.2097 157.789 49.7268 156.27C49.0522 155.52 48.292 154.851 47.462 154.278C46.4734 153.658 45.3741 153.297 44.4003 152.618C44.302 152.551 44.1983 152.491 44.0905 152.441C43.9872 151.703 43.8692 150.965 43.7659 150.228C43.7659 150.058 43.7068 149.881 43.6773 149.711C45.6957 151.085 48.1715 151.615 50.5752 151.187C51.9622 150.921 52.4196 149.202 51.8294 148.095C50.741 146.148 48.9572 144.683 46.8349 143.994C44.8872 143.256 42.9174 142.282 40.8886 141.707C42.8953 134.514 44.3118 127.188 44.1347 119.736C44.1289 119.484 44.0734 119.234 43.9712 119.003C43.8691 118.772 43.7224 118.563 43.5395 118.388C43.3566 118.213 43.141 118.076 42.9052 117.985C42.6693 117.893 42.4178 117.849 42.165 117.855C41.9121 117.861 41.6629 117.917 41.4315 118.019C41.2001 118.121 40.9911 118.268 40.8164 118.451C40.6417 118.633 40.5047 118.849 40.4133 119.085C40.3219 119.321 40.2779 119.572 40.2837 119.825C40.4534 127.202 38.941 134.58 36.8458 141.854H36.7499H36.5064C34.4924 141.766 32.471 142.444 30.5381 142.953C28.6596 143.383 26.9348 144.32 25.5509 145.661C25.2855 145.922 25.0949 146.249 24.9989 146.608C24.9028 146.968 24.905 147.346 25.005 147.704C26.4067 151.666 31.9472 149.652 34.9719 147.926C34.4776 149.446 33.9686 150.958 33.4596 152.47C33.0644 152.536 32.696 152.713 32.3972 152.979C27.9707 156.771 22.1352 158.38 17.089 161.154C14.8757 162.349 12.8248 163.714 10.5673 164.769C8.64917 165.669 6.69415 166.724 5.58753 168.62C4.48091 170.516 3.69891 173.157 4.77602 175.259C5.33365 176.214 6.11136 177.021 7.04433 177.614C7.97731 178.207 9.03849 178.568 10.1394 178.668C14.3298 179.147 18.2546 176.248 20.9916 173.371C22.6234 171.713 23.9718 169.799 24.9829 167.705C25.5731 166.414 25.8165 165.005 26.4067 163.728C26.9002 162.797 27.2673 161.805 27.4986 160.777C28.8118 160.158 30.0954 159.508 31.3422 158.778C29.97 162.909 28.6568 167.078 27.6019 171.283C25.8755 172.22 24.5992 173.961 22.9467 175.023C21.2941 176.086 19.5678 176.285 17.8636 177C14.8093 178.254 11.5485 181.205 13.7618 184.702C15.8717 188.103 20.0621 187.72 23.1459 185.949C23.9645 185.474 24.7226 184.902 25.4034 184.245C25.1576 187.345 25.1922 190.461 25.5067 193.555C25.1766 193.92 24.9881 194.391 24.9755 194.883C24.9239 195.872 23.9058 196.868 23.3598 197.642C22.6641 198.64 22.1219 199.737 21.7515 200.896C21.0654 203.021 20.5416 205.787 21.0138 208.008C21.7515 211.586 25.1083 215.584 29.0626 215.319C34.0055 214.987 35.3777 209.328 34.7949 205.315C34.3997 203.213 33.8624 201.14 33.1866 199.111C32.53 196.838 31.748 194.684 30.1618 192.869C29.9214 192.589 29.6069 192.382 29.2544 192.272C29.0664 190.034 29.0369 187.785 29.1659 185.543C29.4388 186.104 29.7192 186.665 30.0364 187.203C31.5119 189.712 33.858 193.253 37.104 193.364C41.7297 193.526 43.2421 187.462 41.5305 184.075C40.4089 181.939 38.7674 180.12 36.7573 178.786C35.6138 178.048 34.3301 177.517 33.2087 176.713C32.2644 176.034 31.7332 175.104 30.8479 174.448L30.7889 174.411C30.7889 174.315 30.8258 174.219 30.8479 174.123C31.1553 173.674 31.2866 173.128 31.2168 172.589C32.6038 167.026 34.4998 161.412 36.44 155.672C37.2884 153.171 38.1369 150.648 38.9558 148.11C39.2435 149.497 39.6419 150.884 39.8189 152.271C40.114 154.588 39.8706 157.089 40.4608 159.353C41.2502 162.378 43.3527 166.111 46.3627 167.358C47.1676 167.718 48.059 167.841 48.9312 167.71C49.8033 167.579 50.6197 167.201 51.2835 166.62C52.6778 165.322 52.9582 163.182 52.7737 161.39Z" fill="#FCFCF2"/>
<path d="M108.289 48.3593C108.148 48.1492 107.966 47.9692 107.755 47.8295C107.543 47.6898 107.306 47.5932 107.058 47.5452C106.809 47.4973 106.553 47.4989 106.305 47.5499C106.057 47.601 105.821 47.7006 105.611 47.8429C101.421 50.6758 97.1273 53.5752 92.8336 56.5262C91.3139 52.1587 86.762 49.9676 82.5421 48.5364C76.891 46.6256 70.8709 46.5149 65.0944 45.1722C63.5451 44.8108 61.7893 44.191 60.1958 44.6706C57.8424 45.4083 57.8571 47.7765 58.7203 49.6504C61.1253 54.7334 65.9945 58.9165 71.1734 60.9453C74.1042 62.0248 77.2056 62.5671 80.3289 62.5462C81.7821 62.5534 83.234 62.4598 84.6742 62.2658C79.6944 65.8439 74.7294 69.5621 69.9193 73.4648C68.819 72.5617 67.5711 71.8554 66.2305 71.377C64.578 70.7204 62.6672 70.595 61.1106 69.7687C59.3621 68.8465 58.0342 67.253 56.5439 65.9914C54.861 64.582 53.0866 63.2856 51.2322 62.1109C47.641 59.7972 43.8336 57.8379 39.8635 56.2606C35.8944 54.7629 31.313 52.8374 27.0415 53.7301C26.6027 53.8589 26.2165 54.1244 25.9391 54.488C25.6618 54.8516 25.5078 55.2943 25.4996 55.7515C25.0865 59.4403 28.0005 63.07 30.0072 65.9177C32.7605 69.7239 36.1408 73.0344 40.0037 75.7076C44.0392 78.5848 48.1189 80.8128 53.1577 81.0636C55.4626 81.1207 57.7677 80.9552 60.0409 80.5693C60.6458 80.4808 61.2507 80.3775 61.8483 80.2595C55.4441 85.8325 49.4457 91.8555 43.899 98.2826C40.9996 95.8259 35.7838 96.394 32.3975 97.0284C29.8228 97.5006 27.4841 98.6367 25.0201 99.4187C22.674 100.156 20.3132 100.835 18.4615 102.547C18.134 102.875 17.924 103.303 17.864 103.763C17.804 104.223 17.8973 104.69 18.1295 105.092C20.6083 108.331 24.8873 108.176 28.5908 107.873C31.5249 107.68 34.4401 107.263 37.3109 106.626C35.6584 108.889 34.082 111.21 32.582 113.591C32.4879 113.637 32.3967 113.689 32.309 113.746C30.022 115.325 27.4472 116.409 25.2783 118.172C23.1565 119.914 21.3325 121.99 19.878 124.318C18.4336 126.849 17.176 129.482 16.1155 132.197C15.2033 134.038 14.4625 135.959 13.9022 137.936C13.4743 139.862 14.2564 141.854 16.3368 142.267C18.1738 142.636 20.0255 141.633 21.6338 140.946C26.3701 138.94 31.5049 136.446 34.0575 131.673C35.5285 129.033 36.4565 126.126 36.7871 123.122C36.823 121.62 36.6769 120.119 36.3518 118.652C36.2352 117.702 36.0277 116.766 35.7321 115.856C39.5567 109.805 43.8775 104.082 48.6501 98.7474C48.8966 102.253 49.701 105.698 51.033 108.95C52.2436 112.019 53.8991 114.892 55.9464 117.479C57.6505 119.544 60.4761 122.104 63.2205 122.569C63.7583 122.706 64.3281 122.629 64.8099 122.353C65.2916 122.078 65.6476 121.626 65.8027 121.094C66.415 118.327 65.5297 115.73 64.9764 113.03C64.3985 110.14 63.5386 107.313 62.409 104.59C61.4676 102.174 60.1722 99.9118 58.5654 97.8768C57.8378 96.9362 56.9751 96.1084 56.0054 95.4201C55.5849 95.1472 55.1127 94.948 54.6701 94.6824C54.2274 94.4168 53.5413 93.7233 53.8069 94.4832C53.7101 94.1975 53.5571 93.9341 53.3569 93.7086C53.3569 93.7086 53.3569 93.6569 53.3569 93.6274C58.2947 88.5617 63.4982 83.7621 68.9454 79.2487C69.2882 79.1989 69.6109 79.0564 69.8787 78.8367C70.1465 78.617 70.3493 78.3284 70.4652 78.0019C71.3062 77.3085 72.1497 76.6224 72.9957 75.9436C72.3937 79.2741 72.0901 82.6516 72.0882 86.036C72.2707 89.9721 73.5314 93.7824 75.7327 97.0505C76.286 97.9211 77.6803 98.526 78.6099 97.7883C83.2651 94.2102 85.7218 87.6959 85.921 81.971C86.1327 78.9873 85.3773 76.0149 83.7668 73.4943C82.8372 72.159 81.797 71.6426 80.4617 70.8237L80.0116 70.5286C84.2979 67.2973 88.6359 64.184 92.9591 61.1666C92.3053 64.8803 92.3955 68.687 93.2246 72.3656C93.9181 75.4862 97.3929 82.0964 100.927 77.6995C102.05 76.1189 102.778 74.2926 103.051 72.373C103.494 70.0491 104.21 67.6514 104.232 65.2685C104.295 62.8614 103.768 60.4755 102.697 58.3189C102.206 57.3773 101.617 56.4896 100.941 55.6704C103.233 54.1063 105.511 52.562 107.773 51.0373C107.983 50.8957 108.163 50.7139 108.303 50.5025C108.442 50.2912 108.539 50.0543 108.587 49.8055C108.635 49.5567 108.633 49.3009 108.582 49.0527C108.531 48.8046 108.432 48.5689 108.289 48.3593V48.3593Z" fill="#BB9662"/>
<path d="M213.433 30.1369C210.644 27.5843 207.634 24.8546 203.709 24.6997L203.045 24.4562C203.923 24.1759 204.794 23.8513 205.657 23.5783C208.046 22.8496 210.281 21.6894 212.252 20.1552C215.107 17.9419 220.456 11.7449 216.421 8.24058C212.997 5.2896 206.69 8.50616 203.695 10.7342C201.505 12.3836 199.569 14.3447 197.947 16.555C197.172 17.5945 196.481 18.6948 195.882 19.8453C195.498 20.5831 194.93 21.3208 194.539 22.0586C186.321 20.3421 177.268 20.0421 167.383 21.1585C167.663 21.0183 167.936 20.8855 168.194 20.7454C170.666 19.4396 172.503 17.4034 174.34 15.3525C176.177 13.3015 178.095 11.1252 178.323 8.2996C178.462 6.02104 177.764 3.77018 176.361 1.96974C175.65 1.05271 174.648 0.406319 173.519 0.137918C172.39 -0.130483 171.204 -0.0047461 170.157 0.49425C167.752 1.59349 166.32 3.95428 165.59 6.39622C164.668 9.48737 164.114 12.6302 162.676 15.5369C161.451 17.9641 160.123 20.7011 157.836 22.3315C157.685 22.4415 157.547 22.5677 157.423 22.7078C153.897 23.4013 150.279 24.2595 146.571 25.2825L143.62 26.1162C145.033 24.7779 146.338 23.3298 147.523 21.7856C149.057 19.7052 150.82 16.8206 151.042 14.1942C151.219 12.1137 150.304 9.68657 148.223 8.91193C144.867 7.6799 141.421 11.2137 139.533 13.5671C138.075 15.4401 136.87 17.4963 135.947 19.683C135.01 17.4698 133.277 15.0647 130.731 15.2565C128.186 15.4484 127.375 18.4141 127.375 20.5978C127.375 24.0579 129.02 27.4294 130.554 30.491C128.341 31.3074 126.143 32.1681 123.959 33.0731C124.328 32.3944 124.63 31.723 124.881 31.1328C125.914 28.6835 126.703 26.2268 126.357 23.5414C126.047 21.0036 124.748 18.6944 122.277 17.728C121.166 17.2576 119.937 17.139 118.756 17.3884C117.576 17.6377 116.5 18.2428 115.674 19.1223C112.177 22.9217 112.915 29.1926 114.199 33.6781C114.494 34.7257 114.708 35.8913 115.047 37.02C111.953 38.4955 108.899 40.0399 105.884 41.6531C105.463 41.9096 105.157 42.3177 105.028 42.7932C104.899 43.2687 104.958 43.7755 105.191 44.2094C105.425 44.6433 105.816 44.9711 106.283 45.1255C106.751 45.2799 107.261 45.249 107.706 45.0393C110.165 43.7163 112.644 42.4499 115.143 41.2399C115.822 42.8261 117.29 44.0803 118.359 45.4008C120.255 47.7469 122.048 50.0708 125.043 51.0962C127.485 51.9373 130.65 51.9741 132.118 49.4806C133.69 46.8099 132.509 43.9991 130.68 41.8375C128.91 39.742 126.62 38.1493 124.04 37.2192C126.686 36.0979 129.357 35.0404 132.052 34.0469C132.062 34.272 132.11 34.4938 132.192 34.7035C133.181 37.4784 133.646 40.4126 133.564 43.3573C133.527 45.6664 133.409 48.1231 134.597 50.1962C136.427 53.3906 141.052 55.4932 144.188 52.8668C144.948 52.2429 145.554 51.4527 145.959 50.5573C146.365 49.6618 146.559 48.6851 146.527 47.7026C147.653 48.7207 148.816 49.7043 150.016 50.6536C151.964 52.1807 154.088 53.4644 156.604 53.6857C161.326 54.0989 164.992 50.6757 164.719 45.9394C164.387 40.7088 160.175 38.289 156.08 35.9282C153.333 34.2362 150.35 32.9631 147.227 32.1509C145.715 31.8042 144.181 31.5681 142.69 31.1255C142.344 31.0222 142.019 30.9115 141.687 30.7935C143.657 30.1811 145.641 29.5983 147.626 29.0524C151.501 27.9753 155.271 27.09 158.935 26.3965H159.135C161.23 27.872 163.628 29.0229 165.479 30.823C166.265 31.5746 166.942 32.4311 167.493 33.3682C167.566 33.6363 167.691 33.8872 167.862 34.1059C167.936 34.2683 168.002 34.4232 168.061 34.5929C168.556 35.9798 168.216 37.411 168.438 38.8423C169.264 44.2868 174.185 49.7904 179.585 50.9708C182.145 51.5315 184.594 50.6831 185.376 47.9756C186.158 45.268 185.221 42.6859 183.584 40.5981C181.724 38.2226 179.356 36.3635 177.054 34.4453C175.129 32.8444 173.203 30.941 170.695 30.5795C169.641 28.9928 168.324 27.598 166.8 26.4555C166.291 26.0719 165.76 25.7178 165.221 25.3784C169.779 24.7361 174.377 24.4132 178.98 24.412C179.006 24.8909 179.19 25.3477 179.504 25.7104C182.195 29.0897 185.101 32.2932 188.202 35.3011C188.748 35.7954 189.331 36.2749 189.921 36.7766V36.8356C189.847 39.4325 191.19 41.8228 192.414 44.0286C193.32 45.7066 194.522 47.2064 195.963 48.4551C197.136 49.4511 198.479 50.5355 200.028 50.8159C202.108 51.1848 203.517 49.6503 203.569 47.6436C203.635 45.1869 202.049 42.863 200.699 40.9449C199.157 38.7316 197.129 37.2561 195.026 35.6478C192.672 33.8422 190.469 31.8487 188.438 29.6868C186.903 28.0417 185.487 26.3375 184.011 24.6185C188.224 24.8796 192.403 25.5316 196.494 26.5662C196.586 26.6798 196.672 26.798 196.752 26.9203C197.416 27.8646 197.94 28.9196 198.567 29.8713C199.769 31.7166 201.191 33.4087 202.802 34.9101C205.126 37.1233 209.604 39.8825 213.012 38.9603C217.07 37.7799 215.727 32.2321 213.433 30.1369ZM197.461 43.5712C197.734 43.977 197.999 44.3754 198.257 44.7885C197.372 43.9244 196.626 42.929 196.044 41.8375L195.97 41.7121C196.519 42.2881 197.018 42.9101 197.461 43.5712Z" fill="#FCFCF2"/>
<path d="M317.388 42.5083C317.056 40.6565 316.702 39.004 315.485 37.5137C315.091 37.1263 314.561 36.9091 314.009 36.9091C313.457 36.9091 312.927 37.1263 312.534 37.5137C310.468 40.0083 309.141 43.0316 308.705 46.2413C308.318 47.9947 308.134 49.787 308.159 51.5826C308.159 51.7744 308.159 51.9588 308.211 52.1432C303.305 47.2594 296.997 42.7517 289.192 38.5466C289.243 35.7948 289.693 33.0504 289.612 30.2912C289.481 27.5674 288.872 24.8879 287.812 22.3752C286.823 19.8816 285.532 17.5061 284.632 14.9977C283.961 13.1313 283.732 10.5713 282.272 9.09578C281.94 8.77272 281.512 8.56631 281.053 8.50775C280.594 8.44918 280.128 8.54165 279.726 8.77117C278.148 9.78188 277.675 11.6779 277.218 13.3895C276.493 16.2833 276.348 19.2921 276.79 22.2424C277.412 26.3765 278.64 30.3962 280.435 34.1718C277.233 32.6963 273.984 31.3487 270.689 30.1289C270.435 29.8649 270.124 29.6615 269.781 29.5338C269.437 29.4061 269.069 29.3573 268.704 29.3912C267.31 28.8895 265.908 28.4173 264.499 27.9526C264.551 26.5361 265.126 25.2377 264.957 23.7548C264.748 22.2415 264.331 20.7643 263.717 19.3652C262.568 16.6535 260.964 14.1584 258.974 11.9877C257.196 9.99583 255.13 8.34328 253.175 6.5358C251.781 5.24475 249.929 3.58482 247.878 4.41109C243.451 6.25546 247.037 14.8354 248.276 17.7274C249.379 20.1525 250.776 22.4321 252.437 24.5147C250.563 24.0646 248.675 23.6515 246.786 23.2752C246.293 23.197 245.789 23.313 245.38 23.5989C244.972 23.8848 244.69 24.3182 244.594 24.8078C244.498 25.2975 244.597 25.8051 244.868 26.2238C245.139 26.6425 245.562 26.9396 246.048 27.0525C251.027 28.0463 255.952 29.2948 260.803 30.7929C259.921 31.3229 259.071 31.9042 258.258 32.534C255.963 34.2677 253.831 36.2227 251.707 38.1408C250.121 39.5721 248.63 40.9443 246.483 41.3943C245.008 41.7115 242.677 41.9402 241.895 43.46C241.669 43.8648 241.58 44.3315 241.639 44.7911C241.699 45.2507 241.905 45.6789 242.227 46.0126C243.43 46.9915 244.789 47.7621 246.247 48.2922C247.77 49.0217 249.362 49.5975 250.998 50.0112C254.525 50.6973 258.066 50.8448 261.364 49.2734C264.4 47.7844 266.753 45.1934 267.944 42.0288C268.549 40.3688 268.859 38.613 269.42 36.9309C269.715 36.0235 270.158 35.1161 270.556 34.1939C275.864 36.2404 281.052 38.5878 286.093 41.2246C287.569 41.9623 288.926 42.7444 290.269 43.519C288.578 43.8657 286.925 44.3772 285.333 45.0461C282.851 46.049 280.427 47.1919 278.074 48.4693C276.975 49.0816 275.934 49.812 274.806 50.38C273.852 50.7418 273.036 51.3948 272.474 52.2465C270.423 55.9869 275.58 57.9198 278.236 58.6428C283.105 59.9855 287.723 61.3356 292.807 60.4207C296.923 59.683 302.611 57.9272 304.101 53.4933C307.921 56.9453 311.109 61.0372 313.522 65.585C313.684 65.8992 313.93 66.1627 314.232 66.3462C314.534 66.5298 314.881 66.6263 315.234 66.6252C315.542 66.6272 315.846 66.5537 316.119 66.4112C316.344 66.2951 316.544 66.1358 316.707 65.9424C316.871 65.749 316.994 65.5253 317.071 65.2841C317.148 65.0429 317.176 64.789 317.155 64.5368C317.133 64.2846 317.062 64.0391 316.946 63.8144C315.914 61.8232 314.728 59.9164 313.397 58.1116C313.998 57.6564 314.515 57.0996 314.924 56.4664C315.278 55.8689 315.396 55.2344 315.795 54.6663C316.45 53.8714 316.989 52.987 317.396 52.04C317.718 51.0556 317.93 50.0387 318.03 49.0078C318.259 46.8167 317.787 44.7215 317.388 42.5083Z" fill="#BB9662"/>
<path d="M399.3 191.968C399.16 187.859 397.935 184.532 394.409 182.282C390.292 179.565 385.824 177.421 381.129 175.908C378.86 175.154 376.473 174.819 374.084 174.919C373.024 174.962 372.009 175.356 371.199 176.04C371.154 176.078 371.112 176.12 371.074 176.166C370.336 168.914 368.676 160.806 364.847 153.429C364.738 153.193 364.582 152.982 364.389 152.808C364.195 152.634 363.969 152.501 363.723 152.417C363.477 152.333 363.217 152.3 362.957 152.319C362.698 152.339 362.446 152.41 362.215 152.53C361.984 152.65 361.78 152.815 361.615 153.015C361.45 153.216 361.327 153.448 361.253 153.697C361.18 153.947 361.158 154.208 361.189 154.466C361.22 154.725 361.302 154.974 361.432 155.199C362.609 157.507 363.596 159.908 364.383 162.377H364.22C357.011 164.165 350.764 168.655 346.773 174.919C344.729 178.195 343.645 181.824 342.435 185.454C341.557 188.073 340.008 190.847 340.745 193.695C340.843 194.047 341.03 194.368 341.289 194.627C341.547 194.885 341.868 195.073 342.221 195.17C344.781 195.812 347.99 192.898 349.797 191.43C352.697 189.069 355.515 186.605 358.429 184.244C361.175 182.033 363.487 179.332 365.246 176.276C365.872 175.214 366.383 174.089 366.773 172.92C367.422 177.732 367.733 182.583 367.703 187.439C367.703 190.463 367.619 193.486 367.452 196.505C365.165 195.628 362.804 196.277 360.399 196.646C357.603 197.132 354.9 198.05 352.387 199.368C350.03 200.632 347.901 202.28 346.087 204.244C344.345 206.022 342.641 207.933 341.859 210.368C341.215 212.652 341.027 215.041 341.306 217.398C341.468 219.206 341.734 221.36 343.29 222.563C345.467 224.2 347.606 221.825 348.455 219.885C349.501 217.519 350.869 215.31 352.52 213.319C354.531 210.879 356.772 208.639 359.211 206.627C360.524 205.565 361.896 204.569 363.306 203.625C364.471 202.835 365.637 201.847 367.061 201.743C366.346 209.986 365.016 218.163 363.084 226.207C360.591 225.041 357.33 226.945 355.035 228.037C351.302 229.859 347.96 232.53 344.707 235.06C341.985 237.177 339.373 239.332 336.488 241.22C334.01 242.851 331.509 244.739 331.214 247.904C331.103 249.085 332.269 249.933 333.316 250.007C336.429 250.206 339.543 248.76 342.523 247.978C345.777 247.13 348.573 245.226 351.435 243.552C354.157 241.807 356.724 239.833 359.108 237.65C359.484 237.325 359.845 237 360.214 236.668C358.95 240.711 357.541 244.693 355.987 248.612C355.607 248.788 355.238 248.985 354.88 249.203C353.626 249.94 352.343 250.619 351.037 251.254C348.315 252.589 345.526 253.769 342.87 255.237C340.384 256.666 338.023 258.299 335.81 260.121C333.508 261.944 331.273 263.81 328.816 265.47C327.119 266.591 324.53 267.477 323.652 269.454C322.678 271.615 323.954 273.083 325.769 273.799C327.768 274.589 330.092 274.006 332.084 273.489C334.785 272.889 337.376 271.871 339.764 270.472C342.394 268.753 344.919 266.878 347.326 264.858C348.064 264.245 348.801 263.611 349.465 262.954C347.188 267.381 344.712 271.711 342.036 275.946C341.853 276.237 341.751 276.571 341.741 276.915C341.731 277.258 341.813 277.598 341.979 277.899C342.145 278.2 342.388 278.452 342.683 278.627C342.979 278.803 343.316 278.896 343.659 278.897C343.985 278.899 344.305 278.818 344.59 278.662C344.876 278.506 345.116 278.28 345.29 278.004C348.379 273.138 351.213 268.115 353.781 262.954C353.867 265.493 354.422 267.995 355.419 270.332C356.526 272.803 358.252 276.971 361.129 277.768C363.254 278.373 364.633 276.684 364.818 274.743C365.076 272.338 365.556 269.978 365.866 267.565C366.227 264.496 366.603 261.449 366.087 258.365C365.924 257.293 365.66 256.238 365.297 255.215C364.818 253.924 363.97 253.172 363.084 252.168C362.073 251.025 361.181 249.749 359.941 248.959C361.771 244.257 363.397 239.464 364.818 234.581C366.239 229.697 367.432 224.791 368.396 219.863C369.987 226.097 372.834 231.941 376.762 237.037C377.751 238.306 379.093 239.693 380.834 239.708C383.239 239.708 384.294 237.413 384.265 235.333C384.265 232.544 384.42 229.734 383.83 226.982C383.175 224.324 382.282 221.731 381.159 219.235C380.112 216.699 378.458 214.46 376.341 212.714C375.139 211.659 373.892 210.655 372.653 209.623C372.048 209.114 371.458 208.575 370.831 208.088C370.707 207.862 370.539 207.664 370.336 207.505C371.152 200.855 371.563 194.161 371.568 187.461C371.568 186.398 371.568 185.247 371.568 184.104C372.529 184.811 373.552 185.43 374.623 185.956C377.706 187.586 380.702 189.29 383.859 190.788C387.017 192.286 389.318 195.362 390.565 198.505C391.414 200.652 391.502 203.551 393.929 204.547C394.288 204.646 394.666 204.648 395.025 204.552C395.385 204.456 395.712 204.266 395.973 204.001C397.448 202.658 397.957 200.77 398.356 198.874C398.949 196.619 399.266 194.3 399.3 191.968Z" fill="#BB9662"/>
<path d="M348.027 303.774C346.571 302.624 344.984 301.651 343.298 300.875C342.289 300.442 341.227 300.142 340.141 299.982C339.883 299.93 339.624 299.871 339.403 299.805C339.779 299.399 340.141 298.993 340.539 298.58C340.924 298.357 341.228 298.019 341.41 297.614C341.86 297.112 342.302 296.61 342.745 296.101C343.081 295.716 343.249 295.213 343.214 294.703C343.179 294.193 342.942 293.718 342.557 293.383C342.171 293.047 341.668 292.878 341.159 292.914C340.649 292.949 340.174 293.185 339.838 293.571L338.724 294.818C338.156 294.943 337.61 295.105 337.02 295.209C335.985 295.323 334.941 295.323 333.907 295.209C331.863 295.142 329.827 295.039 327.798 294.832C327.149 294.766 326.5 294.685 325.858 294.596C325.757 294.256 325.572 293.946 325.319 293.696C321.712 290.008 318.503 285.869 312.911 285.426C310.771 285.249 307.931 285.898 307.245 288.244C306.595 290.458 308.189 292.199 309.834 293.409C313.611 296.234 318.51 297.562 323.114 298.374C325.848 298.838 328.607 299.141 331.376 299.281C332.394 299.333 333.42 299.392 334.445 299.421C331.111 302.889 327.611 306.221 323.947 309.418C323.748 309.363 323.542 309.336 323.335 309.336C320.775 309.336 318.215 309.573 315.662 309.543C315.44 309.281 315.16 309.073 314.843 308.938C313.811 308.503 312.999 307.182 312.276 306.385C311.221 305.212 310.063 304.172 309.074 302.911C306.957 300.218 305.312 296.92 303.763 293.881C301.549 289.513 299.764 283.102 293.589 283.552C292.397 283.613 291.241 283.986 290.238 284.633C289.234 285.28 288.418 286.18 287.871 287.241C286.595 289.897 287.768 292.678 289.081 295.076C290.252 297.349 291.652 299.497 293.257 301.487C293.196 301.436 293.132 301.389 293.065 301.347C288.912 298.278 283.224 295.673 277.941 296.869C275.61 297.4 273.33 298.949 273.043 301.472C272.792 303.641 274.09 305.633 275.507 307.153C279.507 311.325 284.842 313.964 290.586 314.611C292.793 314.818 295.011 314.877 297.226 314.788C294.334 317.002 290.97 320.985 294.128 323.723C297.934 327.02 302.921 323.413 306.013 321.059C307.927 319.459 309.94 317.98 312.04 316.633C313.272 315.895 314.637 315.084 315.19 313.785C316.4 313.785 317.617 313.785 318.827 313.733C310.784 320.204 302.174 325.938 293.102 330.864C292.63 329.846 291.914 329.698 290.889 329.042C289.863 328.385 289.207 326.769 288.676 325.722C287.562 323.627 286.765 321.436 285.798 319.274C283.998 315.275 279.86 311.292 275.116 313.438C271.648 315.01 272.394 318.241 273.958 321.155C269.597 318.086 264.551 315.253 259.062 315.755C256.945 315.939 254.636 316.589 253.441 318.529C252.157 320.668 252.873 323.213 253.891 325.301C256.569 330.775 262.205 333.874 267.731 335.792C271.106 336.959 274.638 337.613 278.207 337.732C278.443 337.732 278.679 337.732 278.945 337.732C270.923 341.173 262.651 344 254.201 346.187C254.022 345.844 253.749 345.56 253.415 345.367C253.081 345.173 252.698 345.079 252.312 345.095C251.146 344.409 249.804 343.892 248.675 343.265C246.698 342.159 244.433 341.266 242.589 339.96C239.047 337.459 236.192 334.206 233.101 331.225C231.749 329.895 230.148 328.845 228.39 328.135C226.631 327.425 224.75 327.069 222.854 327.087C219.239 327.205 215.336 329.765 215.772 333.822C216.207 337.88 220.338 341.2 223.525 343.14C227.762 345.695 232.357 347.6 237.159 348.791C237.97 348.99 238.789 349.153 239.615 349.293C235.971 349.908 232.322 350.399 228.667 350.768C228.63 350.618 228.583 350.47 228.527 350.326C227.575 348.112 224.595 347.065 222.544 346.15C219.899 344.929 217.074 344.142 214.178 343.819C209.058 343.28 203.038 344.343 199.423 348.319C196.664 351.359 197.748 354.826 201.371 356.368C204.353 357.533 207.539 358.087 210.74 357.998C214.589 357.844 218.409 357.265 222.131 356.272C223.575 356.024 224.972 355.551 226.27 354.87C230.209 354.553 234.156 354.081 238.074 353.476C237.251 353.996 236.483 354.596 235.779 355.269C234.771 356.383 233.857 357.579 233.05 358.847C230.475 362.439 227.074 369.33 232.076 372.642C236.502 375.593 241.984 370.429 244.219 367.006C245.589 364.814 246.575 362.404 247.133 359.879C247.502 358.323 247.871 356.759 248.1 355.165C248.151 354.73 247.915 352.583 248.1 352.369C248.354 352.127 248.544 351.825 248.653 351.491L250.423 351.1C249.737 354.501 249.914 358.743 251.899 361.635C254.311 365.103 258.738 363.849 261.217 361.104C263.555 358.537 263.614 355.143 262.818 351.956C262.514 350.634 261.961 349.382 261.187 348.267C263.941 347.451 266.674 346.563 269.384 345.604C268.377 347.695 267.723 349.939 267.451 352.244C267.141 354.848 267.856 358.411 270.453 359.666C273.847 361.289 277.145 357.452 277.956 354.501C278.419 352.691 278.386 350.79 277.86 348.998C277.292 347.006 276.134 345.169 276.008 343.096C278.753 341.994 281.47 340.833 284.161 339.614C283.652 340.631 283.218 341.683 282.862 342.764C281.652 346.371 280.523 352.126 283.6 355.136C287.768 359.267 292.578 354.236 293.773 350.104C294.511 347.537 294.172 345.139 293.855 342.542C293.685 341.133 293.441 339.739 293.161 338.352C292.952 337.467 292.925 336.548 293.08 335.652C293.174 335.492 293.241 335.317 293.279 335.135C296.569 333.394 299.798 331.548 302.966 329.595C302.273 330.692 301.683 331.85 301.203 333.055C299.727 336.795 300.354 343.494 304.308 345.597C309.03 348.135 313.102 341.281 314.305 337.747C315.079 335.482 315.47 333.103 315.463 330.709C315.44 329.312 315.25 327.922 314.895 326.57C314.629 325.515 314.069 324.357 313.899 323.287C314.22 322.916 314.387 322.435 314.364 321.945C318.24 319.131 321.98 316.18 325.585 313.092C325.086 314.068 324.64 315.07 324.25 316.094C322.339 321.17 323.254 327.802 329.2 329.543C330.351 329.842 331.561 329.823 332.702 329.488C333.843 329.153 334.871 328.514 335.677 327.64C337.603 325.692 337.891 323.213 338.267 320.594C338.739 317.554 338.54 314.446 337.684 311.491C337.323 310.266 336.828 309.1 336.459 307.883C336.29 307.322 336.127 306.762 335.928 306.216L336.201 306.489C337.537 307.758 338.658 309.241 340.082 310.428C342.568 312.494 347.644 316.028 350.639 313.055C353.634 310.082 350.484 305.714 348.027 303.774Z" fill="#FCFCF2"/>
<path d="M201.658 362.557C198.987 358.986 194.841 356.891 190.592 355.843C189.344 355.549 188.08 355.325 186.807 355.172C185.332 354.995 183.856 354.552 182.381 354.523C181.402 354.516 180.429 354.686 179.511 355.025C179.024 355.194 178.537 355.371 178.035 355.526C177.261 355.762 177.224 355.526 177.792 355.902C177.527 355.682 177.201 355.549 176.858 355.52C176.515 355.491 176.172 355.568 175.874 355.74C175.525 355.434 175.076 355.266 174.612 355.268C174.568 355.264 174.524 355.264 174.48 355.268C169.809 355.248 165.158 354.654 160.632 353.497C162.576 353.606 164.525 353.442 166.423 353.011C169.011 352.377 171.508 351.415 173.852 350.148C175.409 349.157 176.774 347.892 177.881 346.415C179.658 344.283 183.524 339.229 178.773 337.85C177.135 337.37 175.239 337.688 173.609 337.909C170.847 338.352 168.183 339.273 165.737 340.631C162.97 342.017 160.344 343.667 157.895 345.559C156.49 346.596 155.17 347.743 153.948 348.99C153.589 349.156 153.278 349.411 153.046 349.732C152.813 350.052 152.667 350.426 152.62 350.819L152.546 350.952C147.25 348.921 142.12 346.481 137.201 343.656C137.979 343.227 138.72 342.734 139.414 342.18C139.756 342.397 140.154 342.507 140.558 342.498C142.771 342.498 145.036 342.217 146.962 341.022C148.97 339.67 150.596 337.823 151.683 335.659C152.877 333.349 153.581 330.817 153.749 328.222C154.022 325.227 154.265 322.32 153.535 319.369C153.409 318.929 153.145 318.541 152.78 318.263C152.416 317.985 151.972 317.832 151.513 317.827C149.249 317.923 147.884 319.9 146.888 321.715C145.53 324.187 144.461 326.835 143.332 329.417C142.203 332 141.119 334.582 139.252 336.706C137.887 338.256 135.792 340.166 133.697 340.484C133.297 340.535 132.925 340.713 132.635 340.993C128.075 338.204 123.538 335.194 119.156 332.28C115.253 329.683 111.292 327.049 107.234 324.526C107.968 324.909 108.724 325.246 109.499 325.537C111.623 326.172 113.787 326.665 115.976 327.012C123.221 328.163 131.336 323.383 133.468 316.337C133.572 315.98 133.576 315.601 133.481 315.241C133.386 314.881 133.196 314.554 132.93 314.294C130.945 312.678 128.009 312.42 125.552 312.457C122.212 312.532 118.879 312.8 115.571 313.261C112.428 313.77 109.363 314.68 106.452 315.968C105.016 316.481 103.62 317.1 102.276 317.82C101.674 318.177 101.108 318.592 100.587 319.059C100.314 319.296 99.8491 319.893 99.554 319.96C97.9974 319.089 96.4186 318.248 94.8177 317.451L93.9472 317.016C88.9674 314.53 83.8179 311.955 81.9809 307.315C81.7931 306.839 81.4241 306.458 80.955 306.254C80.486 306.051 79.9554 306.042 79.48 306.23C79.0045 306.418 78.6231 306.787 78.4198 307.256C78.2164 307.725 78.2076 308.256 78.3955 308.731C79.9816 312.73 83.1982 315.415 86.7541 317.584C85.6328 318.797 84.7382 320.201 84.113 321.73C82.7283 324.867 81.9761 328.247 81.8998 331.675C81.9478 335.263 82.6659 338.811 84.0171 342.136C84.9024 344.526 85.7361 347.463 87.8386 349.064C88.3186 349.345 88.8902 349.425 89.429 349.287C89.9679 349.149 90.4303 348.803 90.7158 348.326C91.9848 345.449 93.5119 342.601 94.257 339.525C94.5664 337.944 94.7734 336.344 94.8767 334.737C95.1611 333.17 95.3215 331.584 95.3563 329.993C95.2382 327.263 94.9874 324.091 93.8808 321.383C101.509 325.293 108.82 330.096 115.902 334.81C115.655 335.052 115.465 335.347 115.349 335.673C114.213 338.853 114.611 342.416 114.811 345.729C115.071 349.188 115.901 352.581 117.267 355.77C118.543 358.79 120.316 361.576 122.513 364.01C124.512 366.224 127.175 369.116 130.111 370.008C130.559 370.124 131.031 370.093 131.459 369.919C131.887 369.745 132.248 369.437 132.487 369.042C134.073 366.319 131.639 363.612 131.093 360.927C130.436 357.658 130.104 354.361 129.204 351.137C128.344 347.936 127.04 344.872 125.331 342.033C124.933 341.391 124.512 340.764 124.091 340.144C126.467 341.686 128.879 343.213 131.299 344.681C135.95 347.535 140.772 350.1 145.737 352.361C145.737 352.575 145.737 352.782 145.737 352.996C145.723 353.138 145.723 353.281 145.737 353.424C145.966 357.769 147.043 361.768 149.949 365.228C153.011 368.916 157.482 371.646 162.321 371.867C164.291 371.948 164.889 369.58 163.797 368.274C162.705 366.969 162.683 364.46 161.783 362.823C160.687 361.031 159.352 359.398 157.814 357.968C157.261 357.407 156.715 356.839 156.154 356.279C162.016 358.113 168.116 359.075 174.258 359.134C174.37 359.359 174.52 359.564 174.701 359.739C178.242 363.214 182.078 366.563 186.704 368.555C191.03 370.383 195.793 370.921 200.419 370.104C202.005 369.824 203.665 369.484 204.107 367.692C204.727 365.582 202.765 364.047 201.658 362.557Z" fill="#BB9662"/>
<path d="M98.8458 283.323C98.4874 281.936 97.9282 280.609 97.1859 279.384C96.6032 278.735 95.9876 278.117 95.3415 277.532C95.7255 276.571 95.9522 275.555 96.0129 274.522C96.3983 271.975 95.9507 269.372 94.7366 267.1C92.5971 263.183 88.2739 259.406 83.8475 258.388C82.7403 258.145 81.6094 258.026 80.4759 258.033C79.5373 257.957 78.5925 258.037 77.6799 258.27V258.233C77.557 257.796 77.3785 257.377 77.1487 256.986C76.6161 256.095 75.8993 255.327 75.0461 254.736C71.3574 251.903 66.112 251.497 61.6265 252.102C57.1411 252.707 52.0358 256.027 51.8957 260.955H51.8145C50.5719 260.465 49.2477 260.215 47.9119 260.217C45.256 260.284 43.0206 261.693 41.0508 263.36C40.0353 264.171 39.2279 265.213 38.6954 266.398C38.163 267.584 37.9208 268.879 37.9892 270.177C38.0303 271.856 38.4118 273.51 39.1105 275.039C37.9809 276.024 36.9618 277.13 36.071 278.336C34.6427 280.24 33.7418 282.487 33.4594 284.851C32.884 289.277 33.5406 294.581 36.5432 298.078C37.9172 299.681 39.7817 300.786 41.8476 301.221C42.0541 301.265 42.3419 301.332 42.6296 301.376C42.482 301.974 42.3419 302.689 42.2976 302.852C41.3459 307.042 42.091 312.59 44.865 315.983C45.6219 316.963 46.6058 317.743 47.7318 318.257C48.8577 318.771 50.0918 319.004 51.3276 318.934C52.8415 318.819 54.3316 318.491 55.7541 317.961C56.7219 317.531 57.6501 317.018 58.528 316.426C59.8528 317.679 61.3955 318.679 63.0799 319.377C65.5996 320.259 68.3073 320.46 70.9295 319.96C73.5042 319.451 75.7101 317.511 77.525 315.71C79.2292 314.021 80.9334 312.14 81.4276 309.713C81.4276 309.713 81.4793 309.44 81.5236 309.137L81.8334 309.056C83.3089 308.753 84.7475 308.244 86.2599 307.927C88.7166 307.396 90.4281 306.098 92.4643 304.681C94.5713 303.296 96.3943 301.52 97.8351 299.451C99.1537 297.209 99.8869 294.672 99.9672 292.073C100.101 289.114 99.7213 286.153 98.8458 283.323Z" fill="#FCFCF2"/>
<path d="M75.5552 194.484C75.0819 192.875 74.0647 191.481 72.6774 190.539C71.2901 189.597 69.6188 189.166 67.949 189.32C66.5325 186.494 63.0651 184.155 60.306 184.701C57.805 185.203 55.9754 187.933 55.4663 190.301C55.182 191.493 55.3365 192.747 55.9016 193.835C52.7662 195.081 50.1841 197.715 50.8849 201.271C51.335 203.543 53.3269 205.233 55.4442 205.97C56.2596 206.251 57.1325 206.324 57.983 206.181C58.8335 206.038 59.6347 205.684 60.3133 205.152C61.7888 207.52 65.3079 208.346 68.008 207.225C69.1017 206.794 70.0443 206.05 70.7186 205.088C71.3929 204.125 71.769 202.985 71.8 201.81C73.2044 201.247 74.3579 200.195 75.048 198.849C75.7381 197.503 75.9182 195.952 75.5552 194.484V194.484Z" fill="#FCFCF2"/>
<path d="M127.492 298.67C127.694 298.411 127.872 298.135 128.024 297.844C128.37 297.109 128.647 296.343 128.85 295.557C129.159 294.32 129.234 293.036 129.071 291.772C128.968 290.48 128.588 289.225 127.958 288.093C127.328 286.96 126.462 285.976 125.419 285.206C124.35 284.465 123.131 283.968 121.848 283.751C120.566 283.534 119.251 283.603 117.998 283.952C116.574 284.445 115.336 285.361 114.449 286.578L114.324 286.468C113.569 285.862 112.722 285.382 111.815 285.044C109.986 284.304 107.978 284.124 106.046 284.527C105.203 284.708 104.412 285.079 103.735 285.614C103.058 286.149 102.514 286.832 102.143 287.611C101.148 289.891 102.217 291.92 103.051 294.044C103.206 294.453 103.481 294.805 103.84 295.055C102.799 295.181 101.811 295.584 100.979 296.222C100.147 296.861 99.5019 297.711 99.1113 298.685C98.6385 299.931 98.4203 301.259 98.4697 302.591C98.5191 303.922 98.8351 305.231 99.399 306.438C100.477 308.952 102.363 311.033 104.757 312.354C107.152 313.674 109.919 314.157 112.619 313.727C114.098 313.498 115.521 312.998 116.817 312.252C117.391 311.916 117.925 311.518 118.411 311.064L118.499 310.968C120.417 312.001 123.848 311.079 125.619 310.371C126.804 309.813 127.825 308.958 128.581 307.889C129.337 306.82 129.804 305.573 129.934 304.269C130.17 301.99 128.983 300.219 127.492 298.67Z" fill="#FCFCF2"/>
<path d="M67.3368 226.739C67.9322 224.152 67.7158 221.444 66.7171 218.985C65.7507 216.74 64.1832 214.804 62.1873 213.393C61.182 212.636 60.0676 212.037 58.8822 211.615C58.3669 211.44 57.8357 211.316 57.2961 211.246C56.9744 211.22 56.6513 211.22 56.3296 211.246C54.7435 207.174 50.0514 205.204 45.6397 205.875C42.8295 206.261 40.1746 207.395 37.9524 209.158C36.7735 210.117 35.8993 211.399 35.4367 212.847C28.0592 213.201 21.8547 219.715 21.7514 227.255C21.7514 227.366 21.7514 227.469 21.7514 227.565C21.4199 227.983 21.1515 228.448 20.9547 228.945C20.3792 230.287 20.0546 231.755 19.5751 233.135C18.5792 236.02 17.8562 239.103 18.9997 242.062C19.5428 243.475 20.3716 244.761 21.4342 245.839C20.4121 245.892 19.41 246.142 18.4832 246.577C17.4779 247.01 16.5772 247.654 15.8421 248.465C15.4996 248.88 15.2482 249.363 15.1044 249.882C14.8005 249.778 14.4864 249.706 14.1674 249.668C13.13 249.651 12.095 249.775 11.091 250.037C9.14367 250.498 7.33186 251.41 5.80139 252.7C4.36835 253.876 3.44359 255.559 3.21928 257.399C3.14841 258.225 3.2592 259.056 3.54388 259.834C2.74927 260.302 2.0768 260.952 1.58148 261.73C0.249173 263.73 -0.26905 266.164 0.132713 268.533C0.534477 270.902 1.82589 273.029 3.74307 274.478C5.66121 275.902 7.80806 275.902 9.98441 275.614C10.4634 277.335 11.408 278.889 12.7141 280.107C14.4894 281.641 16.7173 282.553 19.0587 282.704C21.058 282.889 23.6179 283.066 25.2557 281.679C26.2297 280.794 26.8617 279.596 27.0411 278.292C27.9012 278.366 28.7677 278.289 29.6011 278.064C31.1158 277.638 32.4971 276.833 33.6144 275.725C35.7503 273.579 37.2009 270.847 37.7827 267.875C38.4474 265.269 38.285 262.521 37.3179 260.011C36.7757 258.737 35.9081 257.628 34.8022 256.794C34.2045 256.321 33.5343 255.948 32.8176 255.688C32.6647 255.649 32.5095 255.619 32.3529 255.599C32.3031 255.005 32.2094 254.416 32.0725 253.836C31.8085 252.691 31.3057 251.615 30.597 250.679C30.1748 250.139 29.7164 249.629 29.2248 249.151C29.7306 249.106 30.2274 248.989 30.7003 248.805L30.9511 248.687C31.1318 249.271 31.3794 249.833 31.6889 250.361C32.4832 251.593 33.5047 252.662 34.6989 253.511C36.8055 254.915 39.2873 255.648 41.8182 255.614C44.2311 255.672 46.5951 254.927 48.539 253.497C50.1252 252.213 50.6785 250.546 51.0474 248.723C51.3472 248.853 51.6583 248.954 51.9769 249.026C53.2027 249.266 54.4685 249.206 55.6656 248.849C58.1056 248.106 60.247 246.607 61.7816 244.57C63.3972 242.504 64.8801 240.557 65.7654 238.056C66.5031 235.909 67.1007 232.973 65.6105 230.973C65.7285 230.811 65.8392 230.634 65.9351 230.486C66.6104 229.325 67.0843 228.058 67.3368 226.739V226.739Z" fill="#FCFCF2"/>
<path d="M305.909 71.7462C305.718 71.3281 305.469 70.9384 305.172 70.588C305.85 69.4572 306.149 68.1388 306.024 66.8258C305.9 65.5129 305.358 64.2744 304.478 63.2917C303.44 62.1964 302.132 61.3931 300.686 60.9619C299.24 60.5308 297.706 60.487 296.237 60.835C294.732 61.1707 293.342 61.8986 292.209 62.9449C291.721 63.3771 291.328 63.9076 291.058 64.5016C290.623 64.4204 290.181 64.3688 289.745 64.3171C288.055 64.0298 286.318 64.2479 284.751 64.9442C283.387 65.658 282.363 66.884 281.903 68.3526C281.623 69.2216 281.557 70.1455 281.711 71.0454C279.867 71.6946 278.244 73.9595 277.949 75.7301C277.739 77.0685 277.978 78.4387 278.628 79.6274C279.278 80.8162 280.302 81.757 281.542 82.3034C282.763 82.8713 284.078 83.2113 285.422 83.3067L285.828 83.351C286.151 83.7576 286.506 84.1375 286.89 84.4871C287.963 85.4804 289.306 86.1349 290.75 86.3685C292.193 86.6021 293.674 86.4044 295.005 85.8003C296.275 85.2701 297.441 84.521 298.451 83.5871C298.693 83.3543 298.922 83.108 299.137 82.8493C299.181 82.7903 299.439 82.51 299.557 82.3329H299.69C300.197 82.3145 300.696 82.2071 301.166 82.0157C302.507 81.514 303.698 80.677 304.624 79.5843C305.55 78.4917 306.18 77.18 306.455 75.7743C306.682 74.4073 306.492 73.0035 305.909 71.7462Z" fill="#FCFCF2"/>
<path d="M381.093 129.858C381.881 128.728 382.42 127.443 382.674 126.088C382.928 124.734 382.892 123.341 382.568 122.001C381.831 119.891 379.809 118.497 377.832 117.671C376.855 117.214 375.798 116.954 374.721 116.906C373.644 116.857 372.567 117.022 371.554 117.39C371.17 117.532 370.802 117.712 370.455 117.929C369.584 117.368 368.657 116.901 367.688 116.535C365.224 115.708 362.93 116.726 361.218 118.541C359.005 120.88 358.725 123.071 359.366 126.103C359.429 126.443 359.579 126.761 359.802 127.025C359.513 127.417 359.266 127.837 359.064 128.28C358.393 129.578 357.485 130.648 357.197 132.131C356.629 135.082 358.127 138.401 359.927 140.703C361.594 142.835 364.088 144.495 366.891 144.333C368.353 144.232 369.744 143.672 370.868 142.732C371.322 142.365 371.722 141.935 372.056 141.456C372.607 141.864 373.234 142.159 373.9 142.322C374.566 142.485 375.259 142.514 375.936 142.407C377.795 142.061 379.197 140.6 380.09 139.006C381.107 137.26 381.563 135.244 381.395 133.23C381.331 132.561 381.172 131.906 380.923 131.282C380.856 131.072 380.761 130.871 380.643 130.685L380.547 130.574L380.636 130.478C380.805 130.285 380.958 130.077 381.093 129.858Z" fill="#FCFCF2"/>
<path d="M367.142 97.781C366.734 96.3294 365.95 95.0113 364.87 93.9594C364.368 93.502 363.748 93.1626 363.284 92.6684C362.59 91.9306 362.671 91.333 362.701 90.3518C362.885 84.6712 362.007 78.6217 358.201 74.1214C355.896 71.5138 352.775 69.7658 349.348 69.1638C348.366 68.972 347.37 68.9351 346.397 68.7728C345.659 68.6474 345.659 68.367 345.172 67.5555C344.32 66.0472 343.128 64.7588 341.69 63.793C336.526 60.5543 327.407 60.7092 324.596 66.4415H324.552C323.9 66.2026 323.221 66.0464 322.531 65.9767C321.28 65.8218 320.01 65.9324 318.805 66.3013C316.204 67.0787 313.859 68.5414 312.018 70.536C308.639 74.3132 307.185 79.5807 307.06 84.5532C307.043 84.9641 307.151 85.3707 307.37 85.7188C306.755 86.4881 306.074 87.2016 305.334 87.8509C304.103 89.055 303.054 90.4318 302.22 91.938C300.684 94.9959 300.142 98.4576 300.671 101.839C301.549 107.947 304.36 114.55 310.542 116.844C311.884 117.31 313.291 117.559 314.71 117.582C315.488 117.668 316.274 117.636 317.042 117.486C317.137 117.455 317.237 117.443 317.337 117.449C317.433 117.612 317.521 117.781 317.595 117.899C319.429 120.671 321.787 123.057 324.537 124.923C327.127 126.73 330.343 127.66 333.39 128.302C336.496 129.025 339.715 129.113 342.855 128.56C345.779 127.918 348.457 126.451 350.572 124.332C352.564 122.436 354.881 119.596 354.836 116.66C355.124 116.608 355.523 116.527 355.486 116.527C356.089 116.414 356.682 116.249 357.256 116.033C358.788 115.461 360.226 114.663 361.52 113.665C364.066 111.791 366.026 109.233 367.172 106.287C368.105 103.527 368.094 100.535 367.142 97.781Z" fill="#FCFCF2"/>
<path d="M358.053 142.149C357.865 140.991 357.423 139.89 356.759 138.924C356.094 137.959 355.223 137.152 354.209 136.564C353.164 136.035 352.009 135.76 350.838 135.76C350.558 135.764 350.279 135.791 350.004 135.841C349.786 133.9 348.862 132.106 347.407 130.802C345.804 129.531 343.793 128.886 341.749 128.987C338.908 128.987 335.847 129.821 334.297 131.938C333.806 131.797 333.297 131.727 332.785 131.732C331.268 131.771 329.77 132.075 328.359 132.632C325.787 133.523 323.472 135.03 321.616 137.021C319.292 139.714 319.122 143.211 320.347 146.273C319.122 147.296 318.241 148.671 317.824 150.212C316.983 153.539 319.011 157.117 320.981 159.663C323.039 162.326 325.939 164.451 329.347 164.879C330.521 165.044 331.716 164.955 332.852 164.619C333.989 164.283 335.04 163.707 335.935 162.931C337.106 164.339 338.635 165.405 340.362 166.015C343.313 166.989 347.09 166.406 349.886 165.1C350.989 164.566 351.95 163.779 352.691 162.804C353.432 161.828 353.932 160.691 354.15 159.486C354.419 157.902 354.382 156.282 354.04 154.712C353.913 154.052 353.71 153.408 353.435 152.794C353.347 152.622 353.251 152.455 353.147 152.293C354.631 151.463 355.923 150.329 356.939 148.965C357.566 147.959 357.987 146.839 358.178 145.669C358.369 144.498 358.327 143.302 358.053 142.149Z" fill="#FCFCF2"/>
<path d="M74.7142 278.845C72.8624 276.255 70.1623 274.898 67.167 273.998C63.5373 272.913 60.3429 273.717 57.7755 276.558C56.4796 277.916 55.5504 279.581 55.0754 281.397C54.7704 283.25 54.7009 285.134 54.8688 287.004C54.8688 287.174 54.8688 287.351 54.8688 287.528C54.8688 287.705 54.8688 287.742 54.8688 287.852C54.8749 288.026 54.8972 288.199 54.9352 288.369C54.9647 288.6 55.0016 288.829 55.0458 289.055C56.1377 294.647 61.9954 300.859 68.1335 298.955C73.2018 297.399 76.3741 291.689 76.9127 286.694C77.1697 283.896 76.387 281.102 74.7142 278.845V278.845Z" fill="#BB9662"/>
<path d="M28.6494 261.619C27.7188 259.475 26.1194 257.689 24.0901 256.529C23.1993 256.041 22.1902 255.811 21.176 255.865C20.4014 255.938 19.1694 256.912 18.6456 256.861C17.1332 256.713 16.4766 257.982 16.6758 259.17C14.4625 261.213 12.9871 264.113 13.651 267.167C14.5216 271.01 19.6563 273.452 23.3524 272.331C27.6977 271.033 30.5085 265.802 28.6494 261.619Z" fill="#BB9662"/>
<path d="M52.8626 229.004C52.7962 226.902 52.1248 224.364 50.5756 222.844C48.7607 221.096 45.6327 221.664 43.3678 221.671C42.9481 221.654 42.5346 221.776 42.1907 222.017C41.8469 222.259 41.5917 222.606 41.4644 223.006C39.1995 223.744 37.1929 225.161 36.3371 227.396C34.596 231.97 39.7086 236.5 43.8399 237.319C48.982 238.344 53.0028 233.954 52.8626 229.004Z" fill="#BB9662"/>
<path d="M67.9267 194.552C66.4551 193.395 64.6346 192.77 62.7625 192.781C62.224 192.788 61.708 192.999 61.3191 193.371C60.9301 193.744 60.6971 194.25 60.6673 194.788C60.1101 195.656 59.8616 196.686 59.962 197.713C60.0624 198.74 60.5058 199.703 61.2206 200.446C63.0428 202.335 65.8905 202.047 67.7054 200.328C69.4022 198.727 69.8301 196.182 67.9267 194.552ZM64.5773 197.503C64.7175 197.37 64.4962 197.503 64.474 197.503L64.3708 197.54H64.3191L64.2232 197.488C64.2232 197.488 64.2232 197.488 64.2232 197.451L64.1716 197.326V197.237C64.1716 197.304 64.2306 197.304 64.2158 197.237L64.4076 197.289L64.5183 197.333C64.5183 197.333 64.5847 197.333 64.6659 197.377H64.7249H64.6732H64.747L64.6437 197.481L64.5773 197.503Z" fill="#BB9662"/>
<path d="M120.809 298.766C119.281 295.431 116.043 293.343 112.856 295.379C111.881 295.951 111.076 296.772 110.523 297.757C109.969 298.742 109.687 299.856 109.705 300.986C109.875 304.365 113.298 307.5 116.729 306.77C117.539 306.547 118.295 306.161 118.951 305.638C119.608 305.114 120.152 304.463 120.55 303.723C121.04 302.998 121.323 302.154 121.368 301.28C121.414 300.407 121.22 299.537 120.809 298.766Z" fill="#BB9662"/>
<path d="M25.4552 286.541C25.1159 285.161 23.8469 283.781 22.3419 283.833C21.7022 283.88 21.098 284.145 20.6305 284.584C20.1631 285.023 19.8609 285.61 19.7746 286.245C19.6378 286.792 19.7143 287.369 19.9885 287.861C20.0614 287.994 20.1534 288.116 20.2615 288.223C20.2937 288.469 20.3793 288.706 20.5123 288.916C20.7969 289.382 21.2436 289.726 21.7665 289.882C22.2792 290.063 22.8309 290.103 23.3642 289.998C23.8975 289.893 24.3928 289.647 24.7986 289.285C25.1371 288.924 25.3756 288.481 25.4907 288C25.6059 287.518 25.5936 287.016 25.4552 286.541V286.541Z" fill="#BB9662"/>
<path d="M13.0242 285.301C12.4424 285.108 11.8173 285.088 11.2241 285.242C10.7809 285.265 10.3555 285.424 10.0058 285.697C9.65598 285.97 9.39879 286.344 9.26912 286.769C9.15846 287.086 9.04779 287.396 8.95188 287.721C8.8311 288.119 8.82156 288.542 8.92429 288.945C9.02703 289.349 9.23813 289.716 9.53471 290.008C9.88333 290.372 10.309 290.653 10.7804 290.831C11.2519 291.009 11.7572 291.08 12.2594 291.037C12.7616 290.995 13.248 290.841 13.6829 290.586C14.1178 290.331 14.4901 289.982 14.7727 289.565C14.9714 289.175 15.0836 288.747 15.1015 288.31C15.1195 287.872 15.0429 287.437 14.8769 287.032C14.7109 286.627 14.4594 286.263 14.1397 285.964C13.8199 285.665 13.4394 285.439 13.0242 285.301Z" fill="#BB9662"/>
<path d="M17.1407 294.42C16.8819 294.152 16.5546 293.96 16.1942 293.865C15.8339 293.77 15.4544 293.776 15.0971 293.882C14.566 294.054 14.0849 294.353 13.6954 294.752C13.3182 295.167 13.0629 295.677 12.9577 296.228C12.9577 296.272 12.9577 296.316 12.9577 296.353C12.9577 296.39 12.9577 296.412 12.9577 296.442C12.9352 296.554 12.9204 296.667 12.9134 296.781C12.8928 297.225 12.9716 297.668 13.1439 298.078C13.3162 298.488 13.5777 298.854 13.9094 299.149C14.2454 299.455 14.6634 299.655 15.1119 299.725C15.5747 299.785 16.0446 299.697 16.4546 299.474C16.8601 299.27 17.215 298.978 17.4933 298.619C17.7716 298.261 17.9662 297.845 18.0629 297.401C18.1691 296.867 18.1404 296.314 17.9794 295.794C17.8184 295.273 17.5301 294.801 17.1407 294.42V294.42Z" fill="#BB9662"/>
<path d="M24.8283 293.003C24.3819 292.596 23.8198 292.338 23.22 292.266C23.1207 292.22 23.0169 292.186 22.9102 292.162C22.3715 292.025 21.8006 292.102 21.3177 292.378C20.8347 292.653 20.4773 293.104 20.3207 293.638C19.9002 294.988 19.7452 296.537 20.8519 297.629C21.1696 297.934 21.5526 298.162 21.9718 298.297C22.391 298.432 22.8355 298.47 23.2714 298.407C23.7072 298.344 24.1231 298.183 24.4875 297.936C24.8519 297.689 25.1551 297.362 25.3742 296.98C25.7384 296.351 25.8825 295.618 25.7836 294.898C25.6847 294.178 25.3486 293.511 24.8283 293.003V293.003Z" fill="#BB9662"/>
<path d="M22.6148 301.604C22.2968 301.4 21.9399 301.264 21.5666 301.204C21.1933 301.144 20.8117 301.163 20.4458 301.258C20.2131 301.318 19.9897 301.41 19.7819 301.531C19.4968 301.512 19.211 301.555 18.9446 301.658C18.6782 301.762 18.4377 301.922 18.24 302.128C17.714 302.647 17.3965 303.34 17.3475 304.077C17.2986 304.814 17.5216 305.543 17.9744 306.127C18.3478 306.617 18.8441 306.999 19.4129 307.234C19.9817 307.47 20.6028 307.551 21.2131 307.47C21.874 307.38 22.4929 307.095 22.99 306.651C23.4871 306.206 23.8396 305.623 24.0018 304.976C24.1399 304.34 24.0813 303.676 23.8335 303.074C23.5858 302.472 23.1607 301.959 22.6148 301.604V301.604Z" fill="#BB9662"/>
<path d="M30.5897 298.027C30.4787 297.969 30.3591 297.929 30.2356 297.909C29.7721 297.788 29.2856 297.784 28.8204 297.899C28.3552 298.013 27.9261 298.243 27.5723 298.566C27.3143 298.832 27.1154 299.15 26.9882 299.498C26.8611 299.846 26.8088 300.217 26.8346 300.587C26.861 300.949 26.9431 301.305 27.078 301.642C27.1145 302.14 27.3241 302.61 27.6703 302.969C28.0166 303.329 28.4778 303.556 28.974 303.612L29.247 303.693C30.0684 303.863 30.9235 303.708 31.6331 303.261C32.3428 302.814 32.8519 302.109 33.0538 301.295C33.1416 300.915 33.1451 300.52 33.0639 300.139C32.9828 299.757 32.819 299.398 32.5841 299.086C32.3492 298.775 32.049 298.519 31.7044 298.336C31.3598 298.153 30.9793 298.047 30.5897 298.027Z" fill="#BB9662"/>
<path d="M199.865 340.375L199.762 340.323C199.685 339.97 199.509 339.647 199.254 339.392C198.999 339.137 198.676 338.961 198.323 338.884C197.694 338.771 197.047 338.802 196.431 338.974C195.815 339.147 195.246 339.457 194.767 339.88C194.31 340.252 193.937 340.716 193.672 341.243C193.408 341.769 193.258 342.346 193.233 342.935C193.233 345.524 195.874 347.059 198.198 346.247C200.522 345.436 202.624 342.123 199.865 340.375Z" fill="#BB9662"/>
<path d="M192.296 335.837C192.14 335.336 191.861 334.882 191.485 334.516C191.109 334.15 190.647 333.884 190.142 333.742C188.667 333.41 187.494 334.288 186.704 335.439C186.564 335.682 186.473 335.951 186.438 336.229C186.402 336.508 186.423 336.791 186.498 337.062C186.627 337.492 186.884 337.873 187.236 338.154C187.298 338.201 187.365 338.243 187.435 338.279C187.531 338.632 187.718 338.954 187.976 339.213C188.235 339.471 188.557 339.658 188.91 339.754C189.513 339.934 190.159 339.907 190.744 339.677C191.33 339.447 191.822 339.027 192.142 338.486C192.35 338.079 192.472 337.634 192.498 337.178C192.525 336.722 192.456 336.265 192.296 335.837V335.837Z" fill="#BB9662"/>
<path d="M185.074 334.693C184.677 334.312 184.148 334.1 183.599 334.1C183.049 334.1 182.52 334.312 182.123 334.693C181.911 334.928 181.712 335.175 181.525 335.431C181.202 335.6 180.932 335.855 180.743 336.168C180.461 336.66 180.384 337.243 180.529 337.791C180.627 338.059 180.769 338.309 180.95 338.529C181.109 338.899 181.323 339.242 181.584 339.547C181.903 339.877 182.33 340.081 182.787 340.123C183.25 340.197 183.725 340.108 184.13 339.872C184.481 339.682 184.79 339.421 185.036 339.106C185.282 338.791 185.461 338.429 185.561 338.042C185.646 337.651 185.646 337.246 185.561 336.854C185.702 336.486 185.731 336.085 185.644 335.7C185.558 335.315 185.359 334.965 185.074 334.693V334.693Z" fill="#BB9662"/>
<path d="M192.444 347.818C192.372 347.441 192.195 347.093 191.934 346.812C191.673 346.531 191.338 346.33 190.968 346.231C190.108 346.026 189.201 346.162 188.44 346.613C187.679 347.063 187.122 347.791 186.888 348.644C186.768 349.043 186.729 349.462 186.775 349.877C186.821 350.291 186.95 350.692 187.154 351.056C187.359 351.419 187.635 351.737 187.966 351.991C188.297 352.244 188.676 352.429 189.079 352.532C189.483 352.636 189.904 352.657 190.316 352.593C190.728 352.53 191.123 352.384 191.478 352.164C191.832 351.944 192.138 351.655 192.377 351.314C192.617 350.973 192.785 350.586 192.871 350.178C192.975 349.777 192.99 349.359 192.916 348.951C192.842 348.544 192.681 348.157 192.444 347.818V347.818Z" fill="#BB9662"/>
<path d="M211.308 365.102C211.213 364.749 211.027 364.426 210.768 364.167C210.509 363.908 210.186 363.722 209.832 363.627C209.369 363.475 208.88 363.416 208.394 363.454C207.907 363.492 207.434 363.626 206.999 363.848L206.712 364.011C206.158 364.024 205.631 364.249 205.239 364.641C204.848 365.032 204.622 365.56 204.609 366.113C204.602 366.258 204.602 366.403 204.609 366.548C204.589 366.951 204.687 367.351 204.889 367.699C205.007 367.875 205.149 368.034 205.31 368.171C205.655 368.569 206.088 368.881 206.575 369.08C207.062 369.28 207.589 369.363 208.113 369.322C209.029 369.278 209.894 368.888 210.533 368.23C210.903 367.809 211.167 367.305 211.301 366.761C211.436 366.216 211.438 365.648 211.308 365.102V365.102Z" fill="#BB9662"/>
<path d="M217.38 358.825C216.642 357.542 214.982 357.593 213.802 358.154C213.704 358.198 213.611 358.25 213.521 358.309C213.172 358.206 212.801 358.206 212.451 358.309C211.92 358.466 211.469 358.822 211.194 359.303C210.919 359.784 210.841 360.353 210.976 360.891C211.091 361.587 211.42 362.231 211.917 362.732C212.414 363.233 213.055 363.566 213.75 363.687C214.318 363.75 214.893 363.671 215.424 363.458C215.954 363.244 216.423 362.902 216.789 362.463C217.256 361.994 217.564 361.392 217.67 360.739C217.776 360.086 217.674 359.417 217.38 358.825V358.825Z" fill="#BB9662"/>
<path d="M213.971 372.458C213.945 372 213.789 371.56 213.521 371.189C213.254 370.824 212.868 370.563 212.43 370.451C212.264 370.42 212.096 370.401 211.928 370.392C211.764 370.35 211.595 370.33 211.426 370.333C210.595 370.409 209.807 370.741 209.172 371.282C208.537 371.824 208.084 372.549 207.878 373.358C207.757 373.805 207.786 374.279 207.96 374.708C208.135 375.137 208.445 375.497 208.844 375.733C209.393 376.007 210.004 376.135 210.617 376.104C211.231 376.073 211.826 375.885 212.345 375.557C212.864 375.229 213.29 374.773 213.581 374.233C213.872 373.693 214.02 373.086 214.008 372.472L213.971 372.458Z" fill="#BB9662"/>
<path d="M221.503 374.192L221.334 373.948C221.284 373.778 221.212 373.614 221.12 373.462C220.828 372.991 220.366 372.652 219.829 372.515C219.293 372.377 218.725 372.452 218.243 372.724L217.984 372.871C217.706 372.938 217.436 373.037 217.18 373.166C216.685 373.419 216.262 373.793 215.951 374.254C215.64 374.715 215.451 375.247 215.402 375.8C215.249 376.276 215.203 376.78 215.27 377.276C215.335 377.885 215.581 378.461 215.975 378.93C216.369 379.399 216.894 379.74 217.483 379.909C217.952 380.021 218.44 380.029 218.912 379.934C219.385 379.838 219.831 379.641 220.22 379.356C221.754 378.183 222.625 375.97 221.503 374.192Z" fill="#BB9662"/>
<path d="M226.69 360.618C226.242 360.361 225.729 360.243 225.214 360.278C224.699 360.314 224.206 360.501 223.798 360.817C223.597 360.969 223.416 361.145 223.259 361.341L223.075 361.481C221.828 362.64 221.452 364.831 222.809 366.063C224.344 367.464 226.86 366.66 227.804 364.949C228.214 364.223 228.327 363.366 228.12 362.559C227.912 361.751 227.4 361.056 226.69 360.618V360.618Z" fill="#BB9662"/>
<path d="M228.896 371.338C228.67 370.952 228.346 370.632 227.958 370.409C227.57 370.186 227.13 370.069 226.683 370.069C225.697 370.125 224.757 370.5 224.005 371.139C223.547 371.432 223.205 371.875 223.038 372.393C222.896 372.939 222.973 373.518 223.252 374.008V374.008C223.278 374.263 223.343 374.512 223.444 374.746C223.732 375.341 224.228 375.811 224.837 376.068C225.447 376.324 226.129 376.35 226.756 376.14C227.244 376.004 227.695 375.761 228.077 375.428C228.459 375.096 228.761 374.683 228.963 374.218C229.166 373.754 229.262 373.251 229.245 372.745C229.228 372.239 229.099 371.743 228.866 371.293L228.896 371.338Z" fill="#BB9662"/>
<path d="M350.55 276.787C350.394 276.276 350.052 275.841 349.592 275.568C349.133 275.295 348.587 275.204 348.064 275.312C347.693 275.094 347.281 274.957 346.855 274.909C346.428 274.861 345.996 274.903 345.586 275.032C345.176 275.161 344.799 275.375 344.477 275.66C344.155 275.944 343.897 276.293 343.718 276.684C343.501 277.089 343.416 277.552 343.474 278.008C343.532 278.464 343.731 278.891 344.043 279.229C344.168 279.347 344.294 279.45 344.427 279.554C344.438 279.623 344.453 279.692 344.471 279.76C345.209 282.527 349.333 281.826 349.997 279.384C350.054 279.18 350.086 278.969 350.093 278.757C350.323 278.49 350.485 278.172 350.565 277.829C350.645 277.485 350.639 277.128 350.55 276.787Z" fill="#BB9662"/>
<path d="M349.023 284.725C348.794 284.502 348.533 284.313 348.249 284.164C348.159 284.007 348.045 283.865 347.909 283.744C347.513 283.362 346.984 283.148 346.434 283.148C345.883 283.148 345.354 283.362 344.958 283.744C344.443 284.293 344.011 284.914 343.675 285.588C343.406 285.976 343.278 286.445 343.313 286.916C343.29 287.208 343.315 287.502 343.387 287.787C343.83 289.55 346.006 290.443 347.666 289.904C348.174 289.741 348.633 289.453 349.001 289.065C349.368 288.678 349.631 288.204 349.767 287.687C349.902 287.171 349.905 286.629 349.775 286.111C349.645 285.593 349.386 285.116 349.023 284.725Z" fill="#BB9662"/>
<path d="M352.387 292.161C352.115 291.849 351.771 291.608 351.384 291.46C351.165 291.286 350.914 291.156 350.646 291.077C350.229 290.964 349.794 290.935 349.366 290.991C348.938 291.048 348.526 291.189 348.153 291.407C347.78 291.625 347.454 291.914 347.195 292.259C346.935 292.604 346.746 292.997 346.64 293.415C346.385 294.242 346.453 295.134 346.829 295.913C347.206 296.692 347.863 297.299 348.669 297.613C351.812 298.786 354.6 294.611 352.387 292.161Z" fill="#BB9662"/>
<path d="M356.85 285.964C356.335 285.961 355.828 286.088 355.375 286.333C355.014 286.223 354.629 286.223 354.268 286.333C353.736 286.49 353.286 286.846 353.011 287.327C352.736 287.809 352.658 288.378 352.793 288.915C352.979 289.61 353.383 290.227 353.946 290.675C354.51 291.122 355.202 291.377 355.921 291.402C356.522 291.469 357.131 291.367 357.677 291.106C358.224 290.845 358.686 290.436 359.012 289.926C359.235 289.533 359.354 289.09 359.357 288.638C359.361 288.186 359.249 287.741 359.033 287.344C358.816 286.947 358.502 286.613 358.12 286.371C357.739 286.13 357.301 285.99 356.85 285.964Z" fill="#BB9662"/>
<path d="M361.336 279.872C360.974 279.6 360.534 279.452 360.081 279.452C359.529 279.456 358.999 279.676 358.606 280.064L358.281 280.492C358.216 280.598 358.164 280.712 358.126 280.831C357.794 281.222 357.529 281.658 357.226 282.063C356.977 282.455 356.866 282.919 356.912 283.381C356.958 283.843 357.158 284.277 357.479 284.612C357.801 284.947 358.225 285.164 358.685 285.229C359.145 285.294 359.613 285.203 360.015 284.97L360.192 285.007C360.655 285.061 361.123 284.973 361.535 284.756C361.999 284.538 362.395 284.197 362.681 283.771C362.967 283.345 363.132 282.849 363.158 282.336C363.155 281.785 362.977 281.25 362.649 280.807C362.321 280.364 361.861 280.037 361.336 279.872Z" fill="#BB9662"/>
<path d="M380.547 160.71C380.548 160.159 380.333 159.63 379.949 159.235C379.552 158.854 379.024 158.642 378.474 158.642C377.924 158.642 377.395 158.854 376.998 159.235C376.169 159.937 375.466 160.776 374.918 161.714C374.577 162.392 374.448 163.156 374.547 163.909C374.645 164.661 374.967 165.366 375.471 165.934C375.869 166.411 376.4 166.759 376.997 166.932C377.594 167.106 378.229 167.097 378.82 166.907C379.664 166.562 380.383 165.969 380.883 165.207C381.382 164.444 381.638 163.547 381.616 162.636C381.604 162.253 381.5 161.879 381.314 161.544C381.128 161.209 380.865 160.923 380.547 160.71Z" fill="#BB9662"/>
<path d="M374.977 150.877C374.698 150.405 374.249 150.059 373.723 149.91L373.243 149.777C373.091 149.74 372.935 149.718 372.778 149.711H372.616C372.452 149.715 372.288 149.737 372.129 149.777L371.65 149.91C371.121 150.055 370.67 150.402 370.395 150.877L370.181 151.378C370.087 151.744 370.087 152.127 370.181 152.492C370.313 153.058 370.631 153.564 371.085 153.926C371.539 154.289 372.101 154.488 372.682 154.492C373.264 154.489 373.828 154.29 374.283 153.927C374.739 153.564 375.058 153.059 375.191 152.492C375.328 151.946 375.251 151.368 374.977 150.877Z" fill="#BB9662"/>
<path d="M383.933 148.81C383.712 148.126 383.24 147.551 382.612 147.202C382.531 146.795 382.337 146.419 382.052 146.117C381.653 145.74 381.125 145.53 380.576 145.53C380.027 145.53 379.499 145.74 379.101 146.117C378.484 146.692 378.02 147.413 377.754 148.213C377.487 149.014 377.425 149.868 377.574 150.699C377.686 151.196 377.911 151.66 378.232 152.057C378.553 152.453 378.96 152.77 379.423 152.984C379.885 153.198 380.391 153.303 380.901 153.29C381.41 153.278 381.91 153.148 382.362 152.912C383.053 152.511 383.586 151.885 383.872 151.138C384.158 150.392 384.179 149.57 383.933 148.81Z" fill="#BB9662"/>
<path d="M374.033 162.452C373.994 162.146 373.885 161.854 373.716 161.596C373.696 161.29 373.605 160.992 373.45 160.726C373.31 160.488 373.125 160.28 372.904 160.114C372.683 159.948 372.432 159.828 372.165 159.759C371.897 159.69 371.619 159.675 371.346 159.715C371.073 159.754 370.81 159.847 370.573 159.988C370.099 160.263 369.751 160.714 369.606 161.242C369.482 161.715 369.332 162.18 369.156 162.637C369.071 162.95 369.061 163.278 369.126 163.596C369.191 163.914 369.331 164.212 369.533 164.466C369.72 164.728 369.969 164.94 370.257 165.084C370.545 165.228 370.863 165.3 371.185 165.292C371.703 165.272 372.208 165.13 372.661 164.879C373.097 164.602 373.47 164.235 373.753 163.802L373.959 163.301C374.064 163.03 374.089 162.736 374.033 162.452Z" fill="#BB9662"/>
<path d="M299.387 105.6C299.229 105.259 298.971 104.973 298.647 104.782C298.323 104.591 297.948 104.503 297.572 104.53C295.359 104.582 293.028 105.076 292.349 107.481C291.707 109.695 292.777 112.491 295.249 112.933C296.256 113.119 297.296 112.974 298.214 112.52C299.133 112.067 299.881 111.33 300.346 110.418C300.72 109.617 300.828 108.718 300.655 107.852C300.483 106.986 300.039 106.197 299.387 105.6Z" fill="#BB9662"/>
<path d="M290.106 104.56C290.009 104.19 289.812 103.854 289.538 103.588C289.264 103.321 288.922 103.135 288.55 103.048C288.293 102.787 287.973 102.599 287.62 102.502C287.082 102.363 286.512 102.44 286.029 102.715C285.547 102.991 285.191 103.444 285.038 103.978C285.041 104.029 285.041 104.081 285.038 104.132C284.782 104.505 284.65 104.948 284.66 105.4C284.671 105.852 284.824 106.288 285.097 106.648L285.149 106.707C285.297 107.095 285.529 107.445 285.827 107.733C286.194 108.103 286.67 108.346 287.186 108.426C287.701 108.506 288.228 108.418 288.69 108.175C289.277 107.799 289.73 107.247 289.985 106.598C290.239 105.948 290.282 105.235 290.106 104.56Z" fill="#BB9662"/>
<path d="M282.154 96.2173C280.59 95.7821 278.288 95.9075 277.174 97.2649C276.801 97.6661 276.595 98.1931 276.595 98.7404C276.595 99.2877 276.801 99.8148 277.174 100.216C277.617 100.629 278.206 100.849 278.812 100.828L278.981 100.991C280.457 102.385 283.268 103.41 284.544 101.197C285.754 99.124 284.286 96.8075 282.154 96.2173Z" fill="#BB9662"/>
<path d="M284.817 90.1299C284.24 89.6062 283.486 89.3213 282.707 89.3332C282.322 88.9751 281.816 88.775 281.291 88.7725C280.738 88.7799 280.21 88.9991 279.815 89.3848C279.455 89.7962 279.24 90.3146 279.203 90.8603C279.182 91.4466 279.279 92.0312 279.49 92.5789C279.7 93.1266 280.019 93.6261 280.427 94.0473C280.686 94.338 280.999 94.5749 281.348 94.7446C281.698 94.9144 282.078 95.0135 282.466 95.0365C282.854 95.0594 283.243 95.0057 283.61 94.8784C283.977 94.7511 284.316 94.5527 284.607 94.2945C284.897 94.0363 285.134 93.7234 285.304 93.3736C285.474 93.0239 285.573 92.6441 285.596 92.256C285.619 91.8679 285.565 91.4791 285.438 91.1118C285.31 90.7445 285.112 90.4058 284.854 90.1152L284.817 90.1299Z" fill="#BB9662"/>
<path d="M295.47 91.3995C295.462 90.9787 295.329 90.5697 295.087 90.2253C294.845 89.8809 294.506 89.6166 294.112 89.4666C293.707 89.125 293.19 88.9439 292.66 88.9575C292.13 88.9711 291.623 89.1784 291.235 89.5404C290.707 90.0052 290.324 90.6112 290.129 91.287C289.934 91.9627 289.936 92.6801 290.136 93.3545C290.257 93.7412 290.486 94.0853 290.795 94.3466C291.105 94.608 291.483 94.7756 291.884 94.83C292.235 94.8734 292.59 94.8324 292.921 94.7104C293.252 94.5885 293.549 94.3892 293.788 94.1291L293.891 94.0701C294.449 93.7006 294.875 93.1632 295.108 92.5356C295.346 92.2047 295.473 91.8069 295.47 91.3995Z" fill="#BB9662"/>
<path d="M293.434 97.4481C293.171 97.1859 292.844 96.998 292.485 96.9034C292.126 96.8088 291.748 96.8109 291.39 96.9095C290.861 97.0799 290.382 97.3791 289.996 97.7801C289.615 98.1918 289.359 98.7036 289.258 99.2556C289.219 99.4994 289.202 99.7464 289.207 99.9933C289.192 100.111 289.192 100.23 289.207 100.347C289.211 100.9 289.431 101.429 289.819 101.823C290.223 102.194 290.746 102.411 291.294 102.435C291.846 102.473 292.398 102.354 292.886 102.093C293.374 101.832 293.778 101.44 294.054 100.96C294.356 100.389 294.46 99.7336 294.347 99.0974C294.235 98.4612 293.914 97.8807 293.434 97.4481Z" fill="#BB9662"/>
<path d="M106.932 26.1527C106.932 26.0937 106.895 26.0421 106.88 25.983C106.865 25.924 106.88 25.8207 106.88 25.7396C106.874 25.1837 106.651 24.6523 106.258 24.2592C105.865 23.8661 105.333 23.6428 104.778 23.637V23.637C104.625 23.5772 104.467 23.5328 104.305 23.5042C103.663 23.3971 103.006 23.4196 102.372 23.5706L101.871 23.6739C102.38 23.5706 101.79 23.6739 101.627 23.637C101.133 23.6354 100.653 23.8095 100.275 24.1284C99.8966 24.4473 99.6438 24.8902 99.5616 25.3781C99.449 25.5456 99.3479 25.7206 99.2592 25.9019C98.9895 26.4975 98.8785 27.1528 98.9368 27.804C98.9951 28.4553 99.2208 29.0804 99.5921 29.6186C99.9633 30.1569 100.467 30.59 101.055 30.8759C101.643 31.1619 102.295 31.2909 102.948 31.2505C105.375 31.0514 107.515 28.6315 106.932 26.1527Z" fill="#BB9662"/>
<path d="M97.8647 32.0922C97.7698 31.7385 97.5835 31.4159 97.3245 31.1569C97.0655 30.8979 96.7429 30.7116 96.3892 30.6167C95.5007 30.3276 94.5402 30.3511 93.6669 30.6831C93.3786 30.5236 93.0517 30.447 92.7226 30.4618C92.1673 30.4694 91.6369 30.6934 91.2443 31.0861C90.8516 31.4787 90.6276 32.0091 90.62 32.5644C90.6251 33.2367 90.8139 33.8949 91.1659 34.4678C91.2492 34.9604 91.5034 35.4079 91.8839 35.7317C92.2644 36.0555 92.7468 36.2349 93.2464 36.2384C93.4186 36.2305 93.5893 36.2033 93.7554 36.1572C93.9846 36.1942 94.2169 36.209 94.4489 36.2015C95.404 36.1914 96.3204 35.8228 97.0163 35.1686C97.403 34.7673 97.6832 34.2755 97.8314 33.7382C97.9796 33.2009 97.991 32.6351 97.8647 32.0922V32.0922Z" fill="#BB9662"/>
<path d="M96.2493 40.4646C96.1245 40.1267 95.928 39.8198 95.6733 39.5651C95.4186 39.3104 95.1117 39.1139 94.7738 38.9891C94.6717 38.5198 94.4131 38.0991 94.0404 37.7961C93.6677 37.4931 93.2031 37.3259 92.7228 37.3218C92.1682 37.3313 91.6388 37.5558 91.2466 37.9481C90.8543 38.3404 90.6297 38.8697 90.6203 39.4244C90.6203 39.8449 90.6203 40.2654 90.5834 40.6933C90.2492 41.0997 90.0771 41.6154 90.1002 42.1412C90.1234 42.6669 90.3401 43.1655 90.7088 43.541C91.0419 43.8491 91.4617 44.0474 91.9113 44.109H91.9482C92.4838 44.4655 93.1248 44.6291 93.7658 44.5727C94.4067 44.5164 95.0094 44.2436 95.4746 43.7992C95.9061 43.3736 96.2079 42.8344 96.345 42.2441C96.4822 41.6538 96.4489 41.0367 96.2493 40.4646Z" fill="#BB9662"/>
<path d="M86.0611 34.3946C85.9582 34.1958 85.8319 34.01 85.6848 33.8413C85.525 33.4711 85.2603 33.1558 84.9234 32.9342C84.5865 32.7127 84.1921 32.5946 83.7889 32.5945C83.0647 32.6112 82.3659 32.8648 81.7996 33.3165C81.2333 33.7682 80.8307 34.3931 80.6534 35.0954C80.4087 35.8488 80.4724 36.6684 80.8305 37.3749C81.1886 38.0814 81.812 38.6173 82.5642 38.8653C82.9498 38.9716 83.3526 39.0007 83.7494 38.951C84.1463 38.9013 84.5295 38.7738 84.8769 38.5757C85.2244 38.3776 85.5294 38.1129 85.7744 37.7967C86.0193 37.4806 86.1995 37.1192 86.3045 36.7332C86.5135 35.9503 86.4268 35.1177 86.0611 34.3946V34.3946Z" fill="#BB9662"/>
<path d="M60.6309 129.601C60.7269 129.088 60.6291 128.559 60.3565 128.114C60.0838 127.67 59.6558 127.342 59.1554 127.196C58.1919 126.999 57.1899 127.187 56.363 127.719C55.536 128.251 54.9497 129.085 54.7289 130.044C54.2715 131.674 54.6847 133.732 56.2782 134.61C56.7143 134.839 57.1981 134.962 57.6906 134.97C58.1832 134.978 58.6706 134.869 59.1136 134.654C59.5565 134.439 59.9427 134.122 60.2409 133.73C60.539 133.338 60.7409 132.881 60.8301 132.397C60.9262 131.976 60.9561 131.543 60.9186 131.113C60.9867 130.591 60.8859 130.061 60.6309 129.601Z" fill="#BB9662"/>
<path d="M50.6492 134.418C50.1118 134.116 49.5039 133.964 48.888 133.975C48.2721 133.987 47.6704 134.163 47.1449 134.484L47.0564 134.543C46.6684 134.626 46.3022 134.789 45.9819 135.023C45.6615 135.257 45.3941 135.556 45.1972 135.901C44.8867 136.495 44.7737 137.173 44.8745 137.837C44.9753 138.5 45.2847 139.114 45.7579 139.589C46.1358 139.928 46.5795 140.186 47.0614 140.345C47.5433 140.505 48.053 140.563 48.5585 140.517C49.0641 140.471 49.5546 140.32 49.9993 140.076C50.4441 139.831 50.8337 139.497 51.1435 139.095C52.1763 137.723 52.2796 135.414 50.6492 134.418Z" fill="#BB9662"/>
<path d="M56.6839 120.569C56.5263 120.171 56.2877 119.809 55.983 119.507L55.865 119.411C55.8203 119.014 55.6549 118.641 55.3909 118.341C55.127 118.042 54.7774 117.831 54.3895 117.736C53.3714 117.508 51.9918 118.046 51.8 119.212C51.8 119.212 51.8 119.212 51.8 119.249C51.8 119.286 51.6893 119.522 51.6525 119.61C51.4025 120.088 51.1832 120.581 50.9959 121.086C50.7254 121.723 50.6872 122.434 50.8882 123.096C51.0891 123.759 51.5163 124.329 52.0951 124.708C52.8556 125.106 53.7429 125.187 54.5628 124.933C55.3827 124.678 56.0684 124.109 56.47 123.351C56.7184 122.935 56.867 122.468 56.9041 121.985C56.9413 121.503 56.8659 121.018 56.6839 120.569V120.569Z" fill="#BB9662"/>
<path d="M344.39 91.8267C342.914 89.6946 341.055 87.0756 338.65 85.9247L338.326 85.792C338.044 85.5509 337.698 85.3993 337.33 85.3567C334.748 84.9583 332.224 84.6189 329.768 85.7698C327.297 86.9323 325.332 88.954 324.242 91.4578C322.176 96.3122 324.493 101.89 328.499 104.988C330.271 106.4 332.44 107.222 334.703 107.337C336.966 107.452 339.208 106.855 341.114 105.63C345.747 102.605 347.747 96.6073 344.39 91.8267Z" fill="#BB9662"/>
<path d="M296.185 69.8058C295.423 69.4361 294.567 69.305 293.729 69.4295C293.266 69.5391 292.794 69.6082 292.32 69.6361C291.782 69.5067 291.216 69.5874 290.736 69.8616C290.256 70.1359 289.899 70.5829 289.737 71.1116C289.684 71.3211 289.664 71.5377 289.678 71.7534C289.141 72.457 288.787 73.2835 288.649 74.1581C288.511 75.0327 288.594 75.9279 288.889 76.7627C290.763 81.8901 298.258 78.6587 298.79 74.2986C298.861 73.3742 298.65 72.4498 298.185 71.6476C297.72 70.8454 297.023 70.2032 296.185 69.8058ZM293.692 74.7487C293.489 74.8834 293.277 75.0041 293.057 75.1102L292.873 75.1766H292.799C292.781 75.1064 292.781 75.0327 292.799 74.9626V74.97C292.799 74.7708 292.843 74.7118 292.799 74.7118C292.823 74.6442 292.843 74.5753 292.858 74.5052C292.854 74.4858 292.854 74.4657 292.858 74.4462V74.52C293.166 74.571 293.481 74.5459 293.777 74.4468C294.073 74.3478 294.34 74.1779 294.555 73.9519C294.545 73.9931 294.524 74.0311 294.496 74.0626C294.242 74.3144 293.974 74.5509 293.692 74.7708V74.7487Z" fill="#BB9662"/>
<path d="M344.943 142.842C343.409 141.101 341.085 139.397 338.761 138.976C338.252 138.887 337.727 138.979 337.278 139.236C336.829 139.494 336.485 139.9 336.304 140.385C330.683 141.433 330.196 150.463 335.176 153.347C338.798 155.435 343.63 153.237 345.556 149.85C346.238 148.777 346.548 147.509 346.438 146.242C346.327 144.975 345.802 143.78 344.943 142.842Z" fill="#BB9662"/>
<path d="M375.257 126.383C374.365 125.107 372.97 124.716 371.82 123.779C371.668 123.658 371.502 123.556 371.325 123.476C371.178 123.197 370.966 122.957 370.707 122.777C370.447 122.597 370.148 122.481 369.835 122.441C369.522 122.4 369.204 122.436 368.907 122.544C368.611 122.652 368.344 122.83 368.131 123.063C365.549 125.866 364.044 132.654 368.928 134.041C370.271 134.42 371.707 134.291 372.962 133.679C374.217 133.066 375.202 132.013 375.73 130.721C376.023 130.016 376.133 129.25 376.05 128.491C375.968 127.733 375.695 127.008 375.257 126.383Z" fill="#BB9662"/>
</svg>
